solid CATIA STL
  facet normal  -0.000000e+000  0.000000e+000 -1.000000e+000
    outer loop
      vertex -4.500000e+000 -7.000000e+000  3.000000e+000
      vertex -3.000000e+000 -1.450000e+001  3.000000e+000
      vertex -4.500000e+000 -1.600000e+001  3.000000e+000
    endloop
  endfacet
  facet normal  0.000000e+000  0.000000e+000 -1.000000e+000
    outer loop
      vertex -4.500000e+000 -1.600000e+001  3.000000e+000
      vertex -3.000000e+000 -1.450000e+001  3.000000e+000
      vertex  3.000000e+000 -1.450000e+001  3.000000e+000
    endloop
  endfacet
  facet normal  0.000000e+000  -0.000000e+000 -1.000000e+000
    outer loop
      vertex -4.500000e+000 -1.600000e+001  3.000000e+000
      vertex  3.000000e+000 -1.450000e+001  3.000000e+000
      vertex  4.500000e+000 -1.600000e+001  3.000000e+000
    endloop
  endfacet
  facet normal  0.000000e+000  0.000000e+000 -1.000000e+000
    outer loop
      vertex -3.000000e+000 -1.450000e+001  3.000000e+000
      vertex -4.500000e+000 -7.000000e+000  3.000000e+000
      vertex -3.000000e+000 -8.500000e+000  3.000000e+000
    endloop
  endfacet
  facet normal  0.000000e+000  0.000000e+000 -1.000000e+000
    outer loop
      vertex -3.000000e+000 -8.500000e+000  3.000000e+000
      vertex -4.500000e+000 -7.000000e+000  3.000000e+000
      vertex  4.500000e+000 -7.000000e+000  3.000000e+000
    endloop
  endfacet
  facet normal  0.000000e+000  0.000000e+000 -1.000000e+000
    outer loop
      vertex -3.000000e+000 -8.500000e+000  3.000000e+000
      vertex  4.500000e+000 -7.000000e+000  3.000000e+000
      vertex  3.000000e+000 -8.500000e+000  3.000000e+000
    endloop
  endfacet
  facet normal  0.000000e+000  0.000000e+000 -1.000000e+000
    outer loop
      vertex  3.000000e+000 -8.500000e+000  3.000000e+000
      vertex  4.500000e+000 -7.000000e+000  3.000000e+000
      vertex  4.500000e+000 -1.600000e+001  3.000000e+000
    endloop
  endfacet
  facet normal  0.000000e+000  0.000000e+000 -1.000000e+000
    outer loop
      vertex  3.000000e+000 -8.500000e+000  3.000000e+000
      vertex  4.500000e+000 -1.600000e+001  3.000000e+000
      vertex  3.000000e+000 -1.450000e+001  3.000000e+000
    endloop
  endfacet
  facet normal  -0.000000e+000  0.000000e+000 -1.000000e+000
    outer loop
      vertex -3.500000e+000  1.450000e+001  3.000000e+000
      vertex -2.500000e+000  8.500000e+000  3.000000e+000
      vertex -3.500000e+000  7.500000e+000  3.000000e+000
    endloop
  endfacet
  facet normal  0.000000e+000  0.000000e+000 -1.000000e+000
    outer loop
      vertex -3.500000e+000  7.500000e+000  3.000000e+000
      vertex -2.500000e+000  8.500000e+000  3.000000e+000
      vertex  2.500000e+000  8.500000e+000  3.000000e+000
    endloop
  endfacet
  facet normal  0.000000e+000  -0.000000e+000 -1.000000e+000
    outer loop
      vertex -3.500000e+000  7.500000e+000  3.000000e+000
      vertex  2.500000e+000  8.500000e+000  3.000000e+000
      vertex  3.500000e+000  7.500000e+000  3.000000e+000
    endloop
  endfacet
  facet normal  0.000000e+000  0.000000e+000 -1.000000e+000
    outer loop
      vertex -2.500000e+000  8.500000e+000  3.000000e+000
      vertex -3.500000e+000  1.450000e+001  3.000000e+000
      vertex -2.500000e+000  1.350000e+001  3.000000e+000
    endloop
  endfacet
  facet normal  0.000000e+000  0.000000e+000 -1.000000e+000
    outer loop
      vertex -2.500000e+000  1.350000e+001  3.000000e+000
      vertex -3.500000e+000  1.450000e+001  3.000000e+000
      vertex  3.500000e+000  1.450000e+001  3.000000e+000
    endloop
  endfacet
  facet normal  0.000000e+000  0.000000e+000 -1.000000e+000
    outer loop
      vertex -2.500000e+000  1.350000e+001  3.000000e+000
      vertex  3.500000e+000  1.450000e+001  3.000000e+000
      vertex  2.500000e+000  1.350000e+001  3.000000e+000
    endloop
  endfacet
  facet normal  0.000000e+000  0.000000e+000 -1.000000e+000
    outer loop
      vertex  2.500000e+000  1.350000e+001  3.000000e+000
      vertex  3.500000e+000  1.450000e+001  3.000000e+000
      vertex  3.500000e+000  7.500000e+000  3.000000e+000
    endloop
  endfacet
  facet normal  0.000000e+000  0.000000e+000 -1.000000e+000
    outer loop
      vertex  2.500000e+000  1.350000e+001  3.000000e+000
      vertex  3.500000e+000  7.500000e+000  3.000000e+000
      vertex  2.500000e+000  8.500000e+000  3.000000e+000
    endloop
  endfacet
  facet normal  -0.000000e+000  0.000000e+000 -1.000000e+000
    outer loop
      vertex -4.000000e+000  4.000000e+000  3.000000e+000
      vertex -2.500000e+000 -2.500000e+000  3.000000e+000
      vertex -4.000000e+000 -4.000000e+000  3.000000e+000
    endloop
  endfacet
  facet normal  0.000000e+000  0.000000e+000 -1.000000e+000
    outer loop
      vertex -4.000000e+000 -4.000000e+000  3.000000e+000
      vertex -2.500000e+000 -2.500000e+000  3.000000e+000
      vertex  2.500000e+000 -2.500000e+000  3.000000e+000
    endloop
  endfacet
  facet normal  0.000000e+000  -0.000000e+000 -1.000000e+000
    outer loop
      vertex -4.000000e+000 -4.000000e+000  3.000000e+000
      vertex  2.500000e+000 -2.500000e+000  3.000000e+000
      vertex  4.000000e+000 -4.000000e+000  3.000000e+000
    endloop
  endfacet
  facet normal  0.000000e+000  0.000000e+000 -1.000000e+000
    outer loop
      vertex -2.500000e+000 -2.500000e+000  3.000000e+000
      vertex -4.000000e+000  4.000000e+000  3.000000e+000
      vertex -2.500000e+000  2.500000e+000  3.000000e+000
    endloop
  endfacet
  facet normal  0.000000e+000  0.000000e+000 -1.000000e+000
    outer loop
      vertex -2.500000e+000  2.500000e+000  3.000000e+000
      vertex -4.000000e+000  4.000000e+000  3.000000e+000
      vertex  4.000000e+000  4.000000e+000  3.000000e+000
    endloop
  endfacet
  facet normal  0.000000e+000  0.000000e+000 -1.000000e+000
    outer loop
      vertex -2.500000e+000  2.500000e+000  3.000000e+000
      vertex  4.000000e+000  4.000000e+000  3.000000e+000
      vertex  2.500000e+000  2.500000e+000  3.000000e+000
    endloop
  endfacet
  facet normal  0.000000e+000  0.000000e+000 -1.000000e+000
    outer loop
      vertex  2.500000e+000  2.500000e+000  3.000000e+000
      vertex  4.000000e+000  4.000000e+000  3.000000e+000
      vertex  4.000000e+000 -4.000000e+000  3.000000e+000
    endloop
  endfacet
  facet normal  0.000000e+000  0.000000e+000 -1.000000e+000
    outer loop
      vertex  2.500000e+000  2.500000e+000  3.000000e+000
      vertex  4.000000e+000 -4.000000e+000  3.000000e+000
      vertex  2.500000e+000 -2.500000e+000  3.000000e+000
    endloop
  endfacet
  facet normal -1.000000e+000  -0.000000e+000  0.000000e+000
    outer loop
      vertex -3.000000e+000 -1.450000e+001  3.000000e+000
      vertex -3.000000e+000 -8.500000e+000  3.000000e+000
      vertex -3.000000e+000 -1.450000e+001  0.000000e+000
    endloop
  endfacet
  facet normal -1.000000e+000  0.000000e+000  0.000000e+000
    outer loop
      vertex -3.000000e+000 -1.450000e+001  0.000000e+000
      vertex -3.000000e+000 -8.500000e+000  3.000000e+000
      vertex -3.000000e+000 -8.500000e+000  0.000000e+000
    endloop
  endfacet
  facet normal  0.000000e+000 -1.000000e+000  0.000000e+000
    outer loop
      vertex  3.000000e+000 -1.450000e+001  3.000000e+000
      vertex -3.000000e+000 -1.450000e+001  3.000000e+000
      vertex  3.000000e+000 -1.450000e+001  0.000000e+000
    endloop
  endfacet
  facet normal  0.000000e+000 -1.000000e+000  0.000000e+000
    outer loop
      vertex  3.000000e+000 -1.450000e+001  0.000000e+000
      vertex -3.000000e+000 -1.450000e+001  3.000000e+000
      vertex -3.000000e+000 -1.450000e+001  0.000000e+000
    endloop
  endfacet
  facet normal  0.000000e+000  1.000000e+000  0.000000e+000
    outer loop
      vertex -3.000000e+000 -8.500000e+000  3.000000e+000
      vertex  3.000000e+000 -8.500000e+000  3.000000e+000
      vertex -3.000000e+000 -8.500000e+000  0.000000e+000
    endloop
  endfacet
  facet normal  0.000000e+000  1.000000e+000  0.000000e+000
    outer loop
      vertex -3.000000e+000 -8.500000e+000  0.000000e+000
      vertex  3.000000e+000 -8.500000e+000  3.000000e+000
      vertex  3.000000e+000 -8.500000e+000  0.000000e+000
    endloop
  endfacet
  facet normal  1.000000e+000  -0.000000e+000  0.000000e+000
    outer loop
      vertex  3.000000e+000 -8.500000e+000  3.000000e+000
      vertex  3.000000e+000 -1.450000e+001  3.000000e+000
      vertex  3.000000e+000 -8.500000e+000  0.000000e+000
    endloop
  endfacet
  facet normal  1.000000e+000  0.000000e+000  0.000000e+000
    outer loop
      vertex  3.000000e+000 -8.500000e+000  0.000000e+000
      vertex  3.000000e+000 -1.450000e+001  3.000000e+000
      vertex  3.000000e+000 -1.450000e+001  0.000000e+000
    endloop
  endfacet
  facet normal -1.000000e+000  -0.000000e+000  0.000000e+000
    outer loop
      vertex -2.500000e+000 -2.500000e+000  3.000000e+000
      vertex -2.500000e+000  2.500000e+000  3.000000e+000
      vertex -2.500000e+000 -2.500000e+000  0.000000e+000
    endloop
  endfacet
  facet normal -1.000000e+000  0.000000e+000  0.000000e+000
    outer loop
      vertex -2.500000e+000 -2.500000e+000  0.000000e+000
      vertex -2.500000e+000  2.500000e+000  3.000000e+000
      vertex -2.500000e+000  2.500000e+000  0.000000e+000
    endloop
  endfacet
  facet normal  0.000000e+000 -1.000000e+000  0.000000e+000
    outer loop
      vertex  2.500000e+000 -2.500000e+000  3.000000e+000
      vertex -2.500000e+000 -2.500000e+000  3.000000e+000
      vertex  2.500000e+000 -2.500000e+000  0.000000e+000
    endloop
  endfacet
  facet normal  0.000000e+000 -1.000000e+000  0.000000e+000
    outer loop
      vertex  2.500000e+000 -2.500000e+000  0.000000e+000
      vertex -2.500000e+000 -2.500000e+000  3.000000e+000
      vertex -2.500000e+000 -2.500000e+000  0.000000e+000
    endloop
  endfacet
  facet normal  0.000000e+000  1.000000e+000  0.000000e+000
    outer loop
      vertex -2.500000e+000  2.500000e+000  3.000000e+000
      vertex  2.500000e+000  2.500000e+000  3.000000e+000
      vertex -2.500000e+000  2.500000e+000  0.000000e+000
    endloop
  endfacet
  facet normal  0.000000e+000  1.000000e+000  0.000000e+000
    outer loop
      vertex -2.500000e+000  2.500000e+000  0.000000e+000
      vertex  2.500000e+000  2.500000e+000  3.000000e+000
      vertex  2.500000e+000  2.500000e+000  0.000000e+000
    endloop
  endfacet
  facet normal  1.000000e+000  -0.000000e+000  0.000000e+000
    outer loop
      vertex  2.500000e+000  2.500000e+000  3.000000e+000
      vertex  2.500000e+000 -2.500000e+000  3.000000e+000
      vertex  2.500000e+000  2.500000e+000  0.000000e+000
    endloop
  endfacet
  facet normal  1.000000e+000  0.000000e+000  0.000000e+000
    outer loop
      vertex  2.500000e+000  2.500000e+000  0.000000e+000
      vertex  2.500000e+000 -2.500000e+000  3.000000e+000
      vertex  2.500000e+000 -2.500000e+000  0.000000e+000
    endloop
  endfacet
  facet normal  0.000000e+000 -1.000000e+000  0.000000e+000
    outer loop
      vertex  2.500000e+000  8.500000e+000  3.000000e+000
      vertex -2.500000e+000  8.500000e+000  3.000000e+000
      vertex  2.500000e+000  8.500000e+000  0.000000e+000
    endloop
  endfacet
  facet normal  0.000000e+000 -1.000000e+000  0.000000e+000
    outer loop
      vertex  2.500000e+000  8.500000e+000  0.000000e+000
      vertex -2.500000e+000  8.500000e+000  3.000000e+000
      vertex -2.500000e+000  8.500000e+000  0.000000e+000
    endloop
  endfacet
  facet normal  1.000000e+000  -0.000000e+000  0.000000e+000
    outer loop
      vertex  2.500000e+000  1.350000e+001  3.000000e+000
      vertex  2.500000e+000  8.500000e+000  3.000000e+000
      vertex  2.500000e+000  1.350000e+001  0.000000e+000
    endloop
  endfacet
  facet normal  1.000000e+000  0.000000e+000  0.000000e+000
    outer loop
      vertex  2.500000e+000  1.350000e+001  0.000000e+000
      vertex  2.500000e+000  8.500000e+000  3.000000e+000
      vertex  2.500000e+000  8.500000e+000  0.000000e+000
    endloop
  endfacet
  facet normal -1.000000e+000  -0.000000e+000  0.000000e+000
    outer loop
      vertex -2.500000e+000  8.500000e+000  3.000000e+000
      vertex -2.500000e+000  1.350000e+001  3.000000e+000
      vertex -2.500000e+000  8.500000e+000  0.000000e+000
    endloop
  endfacet
  facet normal -1.000000e+000  0.000000e+000  0.000000e+000
    outer loop
      vertex -2.500000e+000  8.500000e+000  0.000000e+000
      vertex -2.500000e+000  1.350000e+001  3.000000e+000
      vertex -2.500000e+000  1.350000e+001  0.000000e+000
    endloop
  endfacet
  facet normal  0.000000e+000  1.000000e+000  0.000000e+000
    outer loop
      vertex -2.500000e+000  1.350000e+001  3.000000e+000
      vertex  2.500000e+000  1.350000e+001  3.000000e+000
      vertex -2.500000e+000  1.350000e+001  0.000000e+000
    endloop
  endfacet
  facet normal  0.000000e+000  1.000000e+000  0.000000e+000
    outer loop
      vertex -2.500000e+000  1.350000e+001  0.000000e+000
      vertex  2.500000e+000  1.350000e+001  3.000000e+000
      vertex  2.500000e+000  1.350000e+001  0.000000e+000
    endloop
  endfacet
  facet normal  0.000000e+000  0.000000e+000  1.000000e+000
    outer loop
      vertex -4.500000e+000 -1.600000e+001  6.000000e+000
      vertex  4.500000e+000 -1.600000e+001  6.000000e+000
      vertex -4.500000e+000 -7.000000e+000  6.000000e+000
    endloop
  endfacet
  facet normal  -0.000000e+000  0.000000e+000  1.000000e+000
    outer loop
      vertex -4.500000e+000 -7.000000e+000  6.000000e+000
      vertex  4.500000e+000 -1.600000e+001  6.000000e+000
      vertex  4.500000e+000 -7.000000e+000  6.000000e+000
    endloop
  endfacet
  facet normal  1.000000e+000  -0.000000e+000  0.000000e+000
    outer loop
      vertex  4.500000e+000 -7.000000e+000  6.000000e+000
      vertex  4.500000e+000 -1.600000e+001  6.000000e+000
      vertex  4.500000e+000 -7.000000e+000  3.000000e+000
    endloop
  endfacet
  facet normal  1.000000e+000  0.000000e+000  0.000000e+000
    outer loop
      vertex  4.500000e+000 -7.000000e+000  3.000000e+000
      vertex  4.500000e+000 -1.600000e+001  6.000000e+000
      vertex  4.500000e+000 -1.600000e+001  3.000000e+000
    endloop
  endfacet
  facet normal  0.000000e+000 -1.000000e+000  0.000000e+000
    outer loop
      vertex  4.500000e+000 -1.600000e+001  6.000000e+000
      vertex -4.500000e+000 -1.600000e+001  6.000000e+000
      vertex  4.500000e+000 -1.600000e+001  3.000000e+000
    endloop
  endfacet
  facet normal  0.000000e+000 -1.000000e+000  0.000000e+000
    outer loop
      vertex  4.500000e+000 -1.600000e+001  3.000000e+000
      vertex -4.500000e+000 -1.600000e+001  6.000000e+000
      vertex -4.500000e+000 -1.600000e+001  3.000000e+000
    endloop
  endfacet
  facet normal -1.000000e+000  -0.000000e+000  0.000000e+000
    outer loop
      vertex -4.500000e+000 -1.600000e+001  6.000000e+000
      vertex -4.500000e+000 -7.000000e+000  6.000000e+000
      vertex -4.500000e+000 -1.600000e+001  3.000000e+000
    endloop
  endfacet
  facet normal -1.000000e+000  0.000000e+000  0.000000e+000
    outer loop
      vertex -4.500000e+000 -1.600000e+001  3.000000e+000
      vertex -4.500000e+000 -7.000000e+000  6.000000e+000
      vertex -4.500000e+000 -7.000000e+000  3.000000e+000
    endloop
  endfacet
  facet normal  0.000000e+000  1.000000e+000  0.000000e+000
    outer loop
      vertex -4.500000e+000 -7.000000e+000  6.000000e+000
      vertex  4.500000e+000 -7.000000e+000  6.000000e+000
      vertex -4.500000e+000 -7.000000e+000  3.000000e+000
    endloop
  endfacet
  facet normal  0.000000e+000  1.000000e+000  0.000000e+000
    outer loop
      vertex -4.500000e+000 -7.000000e+000  3.000000e+000
      vertex  4.500000e+000 -7.000000e+000  6.000000e+000
      vertex  4.500000e+000 -7.000000e+000  3.000000e+000
    endloop
  endfacet
  facet normal  0.000000e+000  0.000000e+000  1.000000e+000
    outer loop
      vertex -3.500000e+000  7.500000e+000  6.000000e+000
      vertex  3.500000e+000  7.500000e+000  6.000000e+000
      vertex -3.500000e+000  1.450000e+001  6.000000e+000
    endloop
  endfacet
  facet normal  -0.000000e+000  0.000000e+000  1.000000e+000
    outer loop
      vertex -3.500000e+000  1.450000e+001  6.000000e+000
      vertex  3.500000e+000  7.500000e+000  6.000000e+000
      vertex  3.500000e+000  1.450000e+001  6.000000e+000
    endloop
  endfacet
  facet normal  1.000000e+000  -0.000000e+000  0.000000e+000
    outer loop
      vertex  3.500000e+000  1.450000e+001  6.000000e+000
      vertex  3.500000e+000  7.500000e+000  6.000000e+000
      vertex  3.500000e+000  1.450000e+001  3.000000e+000
    endloop
  endfacet
  facet normal  1.000000e+000  0.000000e+000  0.000000e+000
    outer loop
      vertex  3.500000e+000  1.450000e+001  3.000000e+000
      vertex  3.500000e+000  7.500000e+000  6.000000e+000
      vertex  3.500000e+000  7.500000e+000  3.000000e+000
    endloop
  endfacet
  facet normal  0.000000e+000 -1.000000e+000  0.000000e+000
    outer loop
      vertex  3.500000e+000  7.500000e+000  6.000000e+000
      vertex -3.500000e+000  7.500000e+000  6.000000e+000
      vertex  3.500000e+000  7.500000e+000  3.000000e+000
    endloop
  endfacet
  facet normal  0.000000e+000 -1.000000e+000  0.000000e+000
    outer loop
      vertex  3.500000e+000  7.500000e+000  3.000000e+000
      vertex -3.500000e+000  7.500000e+000  6.000000e+000
      vertex -3.500000e+000  7.500000e+000  3.000000e+000
    endloop
  endfacet
  facet normal -1.000000e+000  -0.000000e+000  0.000000e+000
    outer loop
      vertex -3.500000e+000  7.500000e+000  6.000000e+000
      vertex -3.500000e+000  1.450000e+001  6.000000e+000
      vertex -3.500000e+000  7.500000e+000  3.000000e+000
    endloop
  endfacet
  facet normal -1.000000e+000  0.000000e+000  0.000000e+000
    outer loop
      vertex -3.500000e+000  7.500000e+000  3.000000e+000
      vertex -3.500000e+000  1.450000e+001  6.000000e+000
      vertex -3.500000e+000  1.450000e+001  3.000000e+000
    endloop
  endfacet
  facet normal  0.000000e+000  1.000000e+000  0.000000e+000
    outer loop
      vertex -3.500000e+000  1.450000e+001  6.000000e+000
      vertex  3.500000e+000  1.450000e+001  6.000000e+000
      vertex -3.500000e+000  1.450000e+001  3.000000e+000
    endloop
  endfacet
  facet normal  0.000000e+000  1.000000e+000  0.000000e+000
    outer loop
      vertex -3.500000e+000  1.450000e+001  3.000000e+000
      vertex  3.500000e+000  1.450000e+001  6.000000e+000
      vertex  3.500000e+000  1.450000e+001  3.000000e+000
    endloop
  endfacet
  facet normal  0.000000e+000  0.000000e+000  1.000000e+000
    outer loop
      vertex -4.000000e+000 -4.000000e+000  6.000000e+000
      vertex  4.000000e+000 -4.000000e+000  6.000000e+000
      vertex -4.000000e+000  4.000000e+000  6.000000e+000
    endloop
  endfacet
  facet normal  -0.000000e+000  0.000000e+000  1.000000e+000
    outer loop
      vertex -4.000000e+000  4.000000e+000  6.000000e+000
      vertex  4.000000e+000 -4.000000e+000  6.000000e+000
      vertex  4.000000e+000  4.000000e+000  6.000000e+000
    endloop
  endfacet
  facet normal  1.000000e+000  -0.000000e+000  0.000000e+000
    outer loop
      vertex  4.000000e+000  4.000000e+000  6.000000e+000
      vertex  4.000000e+000 -4.000000e+000  6.000000e+000
      vertex  4.000000e+000  4.000000e+000  3.000000e+000
    endloop
  endfacet
  facet normal  1.000000e+000  0.000000e+000  0.000000e+000
    outer loop
      vertex  4.000000e+000  4.000000e+000  3.000000e+000
      vertex  4.000000e+000 -4.000000e+000  6.000000e+000
      vertex  4.000000e+000 -4.000000e+000  3.000000e+000
    endloop
  endfacet
  facet normal  0.000000e+000 -1.000000e+000  0.000000e+000
    outer loop
      vertex  4.000000e+000 -4.000000e+000  6.000000e+000
      vertex -4.000000e+000 -4.000000e+000  6.000000e+000
      vertex  4.000000e+000 -4.000000e+000  3.000000e+000
    endloop
  endfacet
  facet normal  0.000000e+000 -1.000000e+000  0.000000e+000
    outer loop
      vertex  4.000000e+000 -4.000000e+000  3.000000e+000
      vertex -4.000000e+000 -4.000000e+000  6.000000e+000
      vertex -4.000000e+000 -4.000000e+000  3.000000e+000
    endloop
  endfacet
  facet normal -1.000000e+000  -0.000000e+000  0.000000e+000
    outer loop
      vertex -4.000000e+000 -4.000000e+000  6.000000e+000
      vertex -4.000000e+000  4.000000e+000  6.000000e+000
      vertex -4.000000e+000 -4.000000e+000  3.000000e+000
    endloop
  endfacet
  facet normal -1.000000e+000  0.000000e+000  0.000000e+000
    outer loop
      vertex -4.000000e+000 -4.000000e+000  3.000000e+000
      vertex -4.000000e+000  4.000000e+000  6.000000e+000
      vertex -4.000000e+000  4.000000e+000  3.000000e+000
    endloop
  endfacet
  facet normal  0.000000e+000  1.000000e+000  0.000000e+000
    outer loop
      vertex -4.000000e+000  4.000000e+000  6.000000e+000
      vertex  4.000000e+000  4.000000e+000  6.000000e+000
      vertex -4.000000e+000  4.000000e+000  3.000000e+000
    endloop
  endfacet
  facet normal  0.000000e+000  1.000000e+000  0.000000e+000
    outer loop
      vertex -4.000000e+000  4.000000e+000  3.000000e+000
      vertex  4.000000e+000  4.000000e+000  6.000000e+000
      vertex  4.000000e+000  4.000000e+000  3.000000e+000
    endloop
  endfacet
  facet normal  0.000000e+000  0.000000e+000  1.000000e+000
    outer loop
      vertex  2.500000e+000  2.500000e+000  0.000000e+000
      vertex  3.000000e+000 -8.500000e+000  0.000000e+000
      vertex  2.500000e+000  8.500000e+000  0.000000e+000
    endloop
  endfacet
  facet normal  -0.000000e+000  0.000000e+000  1.000000e+000
    outer loop
      vertex  2.500000e+000  2.500000e+000  0.000000e+000
      vertex  2.500000e+000 -2.500000e+000  0.000000e+000
      vertex  3.000000e+000 -8.500000e+000  0.000000e+000
    endloop
  endfacet
  facet normal  0.000000e+000  0.000000e+000  1.000000e+000
    outer loop
      vertex -2.500000e+000  8.500000e+000  0.000000e+000
      vertex -2.500000e+000  1.350000e+001  0.000000e+000
      vertex -3.000000e+000 -8.500000e+000  0.000000e+000
    endloop
  endfacet
  facet normal  0.000000e+000  0.000000e+000  1.000000e+000
    outer loop
      vertex -2.500000e+000  8.500000e+000  0.000000e+000
      vertex -3.000000e+000 -8.500000e+000  0.000000e+000
      vertex -2.500000e+000  2.500000e+000  0.000000e+000
    endloop
  endfacet
  facet normal  0.000000e+000  0.000000e+000  1.000000e+000
    outer loop
      vertex -2.500000e+000  8.500000e+000  0.000000e+000
      vertex -2.500000e+000  2.500000e+000  0.000000e+000
      vertex  2.500000e+000  2.500000e+000  0.000000e+000
    endloop
  endfacet
  facet normal  0.000000e+000  -0.000000e+000  1.000000e+000
    outer loop
      vertex -2.500000e+000  8.500000e+000  0.000000e+000
      vertex  2.500000e+000  2.500000e+000  0.000000e+000
      vertex  2.500000e+000  8.500000e+000  0.000000e+000
    endloop
  endfacet
  facet normal  0.000000e+000  0.000000e+000  1.000000e+000
    outer loop
      vertex  2.500000e+000  1.350000e+001  0.000000e+000
      vertex  2.500000e+000  8.500000e+000  0.000000e+000
      vertex  7.268501e+000  1.738732e+001  0.000000e+000
    endloop
  endfacet
  facet normal  0.000000e+000  0.000000e+000  1.000000e+000
    outer loop
      vertex  7.268501e+000  1.738732e+001  0.000000e+000
      vertex  2.500000e+000  8.500000e+000  0.000000e+000
      vertex  3.000000e+000 -8.500000e+000  0.000000e+000
    endloop
  endfacet
  facet normal  -0.000000e+000  0.000000e+000  1.000000e+000
    outer loop
      vertex  7.268501e+000  1.738732e+001  0.000000e+000
      vertex  3.000000e+000 -8.500000e+000  0.000000e+000
      vertex  7.268501e+000 -1.738732e+001  0.000000e+000
    endloop
  endfacet
  facet normal  0.000000e+000  0.000000e+000  1.000000e+000
    outer loop
      vertex  7.268501e+000 -1.738732e+001  0.000000e+000
      vertex  3.000000e+000 -8.500000e+000  0.000000e+000
      vertex  3.000000e+000 -1.450000e+001  0.000000e+000
    endloop
  endfacet
  facet normal  0.000000e+000  0.000000e+000  1.000000e+000
    outer loop
      vertex  7.268501e+000 -1.738732e+001  0.000000e+000
      vertex  3.000000e+000 -1.450000e+001  0.000000e+000
      vertex -7.268501e+000 -1.738732e+001  0.000000e+000
    endloop
  endfacet
  facet normal  0.000000e+000  0.000000e+000  1.000000e+000
    outer loop
      vertex -7.268501e+000 -1.738732e+001  0.000000e+000
      vertex  3.000000e+000 -1.450000e+001  0.000000e+000
      vertex -3.000000e+000 -1.450000e+001  0.000000e+000
    endloop
  endfacet
  facet normal  0.000000e+000  0.000000e+000  1.000000e+000
    outer loop
      vertex -7.268501e+000 -1.738732e+001  0.000000e+000
      vertex -3.000000e+000 -1.450000e+001  0.000000e+000
      vertex -7.268501e+000  1.738732e+001  0.000000e+000
    endloop
  endfacet
  facet normal  0.000000e+000  0.000000e+000  1.000000e+000
    outer loop
      vertex -7.268501e+000  1.738732e+001  0.000000e+000
      vertex -3.000000e+000 -1.450000e+001  0.000000e+000
      vertex -3.000000e+000 -8.500000e+000  0.000000e+000
    endloop
  endfacet
  facet normal  0.000000e+000  -0.000000e+000  1.000000e+000
    outer loop
      vertex -7.268501e+000  1.738732e+001  0.000000e+000
      vertex -3.000000e+000 -8.500000e+000  0.000000e+000
      vertex -2.500000e+000  1.350000e+001  0.000000e+000
    endloop
  endfacet
  facet normal  0.000000e+000  0.000000e+000  1.000000e+000
    outer loop
      vertex  3.000000e+000 -8.500000e+000  0.000000e+000
      vertex  2.500000e+000 -2.500000e+000  0.000000e+000
      vertex -3.000000e+000 -8.500000e+000  0.000000e+000
    endloop
  endfacet
  facet normal  0.000000e+000  0.000000e+000  1.000000e+000
    outer loop
      vertex -3.000000e+000 -8.500000e+000  0.000000e+000
      vertex  2.500000e+000 -2.500000e+000  0.000000e+000
      vertex -2.500000e+000 -2.500000e+000  0.000000e+000
    endloop
  endfacet
  facet normal  0.000000e+000  -0.000000e+000  1.000000e+000
    outer loop
      vertex -3.000000e+000 -8.500000e+000  0.000000e+000
      vertex -2.500000e+000 -2.500000e+000  0.000000e+000
      vertex -2.500000e+000  2.500000e+000  0.000000e+000
    endloop
  endfacet
  facet normal  0.000000e+000  -0.000000e+000  1.000000e+000
    outer loop
      vertex -7.268501e+000  1.738732e+001  0.000000e+000
      vertex -2.500000e+000  1.350000e+001  0.000000e+000
      vertex  7.268501e+000  1.738732e+001  0.000000e+000
    endloop
  endfacet
  facet normal  0.000000e+000  0.000000e+000  9.999999e-001
    outer loop
      vertex  7.268501e+000  1.738732e+001  0.000000e+000
      vertex -2.500000e+000  1.350000e+001  0.000000e+000
      vertex  2.500000e+000  1.350000e+001  0.000000e+000
    endloop
  endfacet
  facet normal  0.000000e+000  0.000000e+000 -1.000000e+000
    outer loop
      vertex -7.268501e+000 -1.738732e+001 -1.000000e+000
      vertex -7.268501e+000  1.738732e+001 -1.000000e+000
      vertex  7.268501e+000 -1.738732e+001 -1.000000e+000
    endloop
  endfacet
  facet normal  0.000000e+000  0.000000e+000 -1.000000e+000
    outer loop
      vertex  7.268501e+000 -1.738732e+001 -1.000000e+000
      vertex -7.268501e+000  1.738732e+001 -1.000000e+000
      vertex  7.268501e+000  1.738732e+001 -1.000000e+000
    endloop
  endfacet
  facet normal  1.000000e+000  0.000000e+000  0.000000e+000
    outer loop
      vertex  7.268501e+000  1.738732e+001 -1.000000e+000
      vertex  7.268501e+000  1.738732e+001  0.000000e+000
      vertex  7.268501e+000 -1.738732e+001 -1.000000e+000
    endloop
  endfacet
  facet normal  1.000000e+000  0.000000e+000  0.000000e+000
    outer loop
      vertex  7.268501e+000 -1.738732e+001 -1.000000e+000
      vertex  7.268501e+000  1.738732e+001  0.000000e+000
      vertex  7.268501e+000 -1.738732e+001  0.000000e+000
    endloop
  endfacet
  facet normal  0.000000e+000 -1.000000e+000  -0.000000e+000
    outer loop
      vertex  7.268501e+000 -1.738732e+001 -1.000000e+000
      vertex  7.268501e+000 -1.738732e+001  0.000000e+000
      vertex -7.268501e+000 -1.738732e+001 -1.000000e+000
    endloop
  endfacet
  facet normal  0.000000e+000 -1.000000e+000  0.000000e+000
    outer loop
      vertex -7.268501e+000 -1.738732e+001 -1.000000e+000
      vertex  7.268501e+000 -1.738732e+001  0.000000e+000
      vertex -7.268501e+000 -1.738732e+001  0.000000e+000
    endloop
  endfacet
  facet normal -1.000000e+000  0.000000e+000  0.000000e+000
    outer loop
      vertex -7.268501e+000 -1.738732e+001 -1.000000e+000
      vertex -7.268501e+000 -1.738732e+001  0.000000e+000
      vertex -7.268501e+000  1.738732e+001 -1.000000e+000
    endloop
  endfacet
  facet normal -1.000000e+000  0.000000e+000  0.000000e+000
    outer loop
      vertex -7.268501e+000  1.738732e+001 -1.000000e+000
      vertex -7.268501e+000 -1.738732e+001  0.000000e+000
      vertex -7.268501e+000  1.738732e+001  0.000000e+000
    endloop
  endfacet
  facet normal  0.000000e+000  1.000000e+000  0.000000e+000
    outer loop
      vertex -7.268501e+000  1.738732e+001 -1.000000e+000
      vertex -7.268501e+000  1.738732e+001  0.000000e+000
      vertex  7.268501e+000  1.738732e+001 -1.000000e+000
    endloop
  endfacet
  facet normal  0.000000e+000  1.000000e+000  -0.000000e+000
    outer loop
      vertex  7.268501e+000  1.738732e+001 -1.000000e+000
      vertex -7.268501e+000  1.738732e+001  0.000000e+000
      vertex  7.268501e+000  1.738732e+001  0.000000e+000
    endloop
  endfacet
endsolid CATIA STL
