solid CATIA STL
  facet normal  0.000000e+000  0.000000e+000  1.000000e+000
    outer loop
      vertex -1.450000e+000  1.450000e+000  0.000000e+000
      vertex -5.387706e+000  1.478207e+000  0.000000e+000
      vertex -5.111088e+000  1.330351e+000  0.000000e+000
    endloop
  endfacet
  facet normal  0.000000e+000  -0.000000e+000  1.000000e+000
    outer loop
      vertex  1.450000e+000  1.450000e+000  0.000000e+000
      vertex  5.111088e+000  1.330351e+000  0.000000e+000
      vertex  5.387706e+000  1.478207e+000  0.000000e+000
    endloop
  endfacet
  facet normal  0.000000e+000  0.000000e+000  1.000000e+000
    outer loop
      vertex -9.000000e+000  3.000000e+000  0.000000e+000
      vertex -9.000000e+000 -3.000000e+000  0.000000e+000
      vertex -7.478207e+000  6.122935e-001  0.000000e+000
    endloop
  endfacet
  facet normal  0.000000e+000  -0.000000e+000  1.000000e+000
    outer loop
      vertex -9.000000e+000  3.000000e+000  0.000000e+000
      vertex -7.478207e+000  6.122935e-001  0.000000e+000
      vertex -7.330351e+000  8.889124e-001  0.000000e+000
    endloop
  endfacet
  facet normal  0.000000e+000  -0.000000e+000  1.000000e+000
    outer loop
      vertex -9.000000e+000  3.000000e+000  0.000000e+000
      vertex -7.330351e+000  8.889124e-001  0.000000e+000
      vertex -7.131371e+000  1.131371e+000  0.000000e+000
    endloop
  endfacet
  facet normal  0.000000e+000  -0.000000e+000  9.999999e-001
    outer loop
      vertex -9.000000e+000  3.000000e+000  0.000000e+000
      vertex -7.131371e+000  1.131371e+000  0.000000e+000
      vertex -6.888912e+000  1.330351e+000  0.000000e+000
    endloop
  endfacet
  facet normal  0.000000e+000  -0.000000e+000  1.000000e+000
    outer loop
      vertex -9.000000e+000  3.000000e+000  0.000000e+000
      vertex -6.888912e+000  1.330351e+000  0.000000e+000
      vertex -6.612294e+000  1.478207e+000  0.000000e+000
    endloop
  endfacet
  facet normal  0.000000e+000  -0.000000e+000  9.999999e-001
    outer loop
      vertex -9.000000e+000  3.000000e+000  0.000000e+000
      vertex -6.612294e+000  1.478207e+000  0.000000e+000
      vertex -6.312144e+000  1.569256e+000  0.000000e+000
    endloop
  endfacet
  facet normal  0.000000e+000  -0.000000e+000  1.000000e+000
    outer loop
      vertex -9.000000e+000  3.000000e+000  0.000000e+000
      vertex -6.312144e+000  1.569256e+000  0.000000e+000
      vertex -6.000000e+000  1.600000e+000  0.000000e+000
    endloop
  endfacet
  facet normal  -0.000000e+000  -0.000000e+000  1.000000e+000
    outer loop
      vertex -9.000000e+000  3.000000e+000  0.000000e+000
      vertex -6.000000e+000  1.600000e+000  0.000000e+000
      vertex -5.687856e+000  1.569256e+000  0.000000e+000
    endloop
  endfacet
  facet normal  -0.000000e+000  -0.000000e+000  1.000000e+000
    outer loop
      vertex -9.000000e+000  3.000000e+000  0.000000e+000
      vertex -5.687856e+000  1.569256e+000  0.000000e+000
      vertex -5.387706e+000  1.478207e+000  0.000000e+000
    endloop
  endfacet
  facet normal  -0.000000e+000  -0.000000e+000  1.000000e+000
    outer loop
      vertex -9.000000e+000  3.000000e+000  0.000000e+000
      vertex -5.387706e+000  1.478207e+000  0.000000e+000
      vertex -1.450000e+000  1.450000e+000  0.000000e+000
    endloop
  endfacet
  facet normal  0.000000e+000  -0.000000e+000  1.000000e+000
    outer loop
      vertex -9.000000e+000  3.000000e+000  0.000000e+000
      vertex -1.450000e+000  1.450000e+000  0.000000e+000
      vertex  1.450000e+000  1.450000e+000  0.000000e+000
    endloop
  endfacet
  facet normal  0.000000e+000  -0.000000e+000  1.000000e+000
    outer loop
      vertex -9.000000e+000  3.000000e+000  0.000000e+000
      vertex  1.450000e+000  1.450000e+000  0.000000e+000
      vertex  5.387706e+000  1.478207e+000  0.000000e+000
    endloop
  endfacet
  facet normal  0.000000e+000  -0.000000e+000  1.000000e+000
    outer loop
      vertex -9.000000e+000  3.000000e+000  0.000000e+000
      vertex  5.387706e+000  1.478207e+000  0.000000e+000
      vertex  5.687856e+000  1.569256e+000  0.000000e+000
    endloop
  endfacet
  facet normal  0.000000e+000  -0.000000e+000  1.000000e+000
    outer loop
      vertex -9.000000e+000  3.000000e+000  0.000000e+000
      vertex  5.687856e+000  1.569256e+000  0.000000e+000
      vertex  6.000000e+000  1.600000e+000  0.000000e+000
    endloop
  endfacet
  facet normal  0.000000e+000  -0.000000e+000  1.000000e+000
    outer loop
      vertex -9.000000e+000  3.000000e+000  0.000000e+000
      vertex  6.000000e+000  1.600000e+000  0.000000e+000
      vertex  9.000000e+000  3.000000e+000  0.000000e+000
    endloop
  endfacet
  facet normal  0.000000e+000  0.000000e+000  1.000000e+000
    outer loop
      vertex -9.000000e+000 -3.000000e+000  0.000000e+000
      vertex  9.000000e+000 -3.000000e+000  0.000000e+000
      vertex  6.000000e+000 -1.600000e+000  0.000000e+000
    endloop
  endfacet
  facet normal  0.000000e+000  0.000000e+000  1.000000e+000
    outer loop
      vertex -9.000000e+000 -3.000000e+000  0.000000e+000
      vertex  6.000000e+000 -1.600000e+000  0.000000e+000
      vertex  5.687856e+000 -1.569256e+000  0.000000e+000
    endloop
  endfacet
  facet normal  0.000000e+000  0.000000e+000  1.000000e+000
    outer loop
      vertex -9.000000e+000 -3.000000e+000  0.000000e+000
      vertex  5.687856e+000 -1.569256e+000  0.000000e+000
      vertex  5.387706e+000 -1.478207e+000  0.000000e+000
    endloop
  endfacet
  facet normal  0.000000e+000  0.000000e+000  1.000000e+000
    outer loop
      vertex -9.000000e+000 -3.000000e+000  0.000000e+000
      vertex  5.387706e+000 -1.478207e+000  0.000000e+000
      vertex  1.450000e+000 -1.450000e+000  0.000000e+000
    endloop
  endfacet
  facet normal  0.000000e+000  0.000000e+000  1.000000e+000
    outer loop
      vertex -9.000000e+000 -3.000000e+000  0.000000e+000
      vertex  1.450000e+000 -1.450000e+000  0.000000e+000
      vertex -1.450000e+000 -1.450000e+000  0.000000e+000
    endloop
  endfacet
  facet normal  0.000000e+000  0.000000e+000  1.000000e+000
    outer loop
      vertex -9.000000e+000 -3.000000e+000  0.000000e+000
      vertex -1.450000e+000 -1.450000e+000  0.000000e+000
      vertex -5.387706e+000 -1.478207e+000  0.000000e+000
    endloop
  endfacet
  facet normal  0.000000e+000  0.000000e+000  1.000000e+000
    outer loop
      vertex -9.000000e+000 -3.000000e+000  0.000000e+000
      vertex -5.387706e+000 -1.478207e+000  0.000000e+000
      vertex -5.687856e+000 -1.569256e+000  0.000000e+000
    endloop
  endfacet
  facet normal  0.000000e+000  0.000000e+000  1.000000e+000
    outer loop
      vertex -9.000000e+000 -3.000000e+000  0.000000e+000
      vertex -5.687856e+000 -1.569256e+000  0.000000e+000
      vertex -6.000000e+000 -1.600000e+000  0.000000e+000
    endloop
  endfacet
  facet normal  0.000000e+000  0.000000e+000  1.000000e+000
    outer loop
      vertex -9.000000e+000 -3.000000e+000  0.000000e+000
      vertex -6.000000e+000 -1.600000e+000  0.000000e+000
      vertex -6.312144e+000 -1.569256e+000  0.000000e+000
    endloop
  endfacet
  facet normal  0.000000e+000  0.000000e+000  1.000000e+000
    outer loop
      vertex -9.000000e+000 -3.000000e+000  0.000000e+000
      vertex -6.312144e+000 -1.569256e+000  0.000000e+000
      vertex -6.612294e+000 -1.478207e+000  0.000000e+000
    endloop
  endfacet
  facet normal  0.000000e+000  0.000000e+000  1.000000e+000
    outer loop
      vertex -9.000000e+000 -3.000000e+000  0.000000e+000
      vertex -6.612294e+000 -1.478207e+000  0.000000e+000
      vertex -6.888912e+000 -1.330351e+000  0.000000e+000
    endloop
  endfacet
  facet normal  0.000000e+000  0.000000e+000  9.999999e-001
    outer loop
      vertex -9.000000e+000 -3.000000e+000  0.000000e+000
      vertex -6.888912e+000 -1.330351e+000  0.000000e+000
      vertex -7.131371e+000 -1.131371e+000  0.000000e+000
    endloop
  endfacet
  facet normal  0.000000e+000  0.000000e+000  1.000000e+000
    outer loop
      vertex -9.000000e+000 -3.000000e+000  0.000000e+000
      vertex -7.131371e+000 -1.131371e+000  0.000000e+000
      vertex -7.330351e+000 -8.889124e-001  0.000000e+000
    endloop
  endfacet
  facet normal  0.000000e+000  0.000000e+000  1.000000e+000
    outer loop
      vertex -9.000000e+000 -3.000000e+000  0.000000e+000
      vertex -7.330351e+000 -8.889124e-001  0.000000e+000
      vertex -7.478207e+000 -6.122935e-001  0.000000e+000
    endloop
  endfacet
  facet normal  0.000000e+000  0.000000e+000  1.000000e+000
    outer loop
      vertex -9.000000e+000 -3.000000e+000  0.000000e+000
      vertex -7.478207e+000 -6.122935e-001  0.000000e+000
      vertex -7.569256e+000 -3.121445e-001  0.000000e+000
    endloop
  endfacet
  facet normal  0.000000e+000  0.000000e+000  1.000000e+000
    outer loop
      vertex -9.000000e+000 -3.000000e+000  0.000000e+000
      vertex -7.569256e+000 -3.121445e-001  0.000000e+000
      vertex -7.600000e+000  1.959435e-016  0.000000e+000
    endloop
  endfacet
  facet normal  0.000000e+000  -0.000000e+000  1.000000e+000
    outer loop
      vertex -9.000000e+000 -3.000000e+000  0.000000e+000
      vertex -7.600000e+000  1.959435e-016  0.000000e+000
      vertex -7.569256e+000  3.121445e-001  0.000000e+000
    endloop
  endfacet
  facet normal  0.000000e+000  -0.000000e+000  1.000000e+000
    outer loop
      vertex -9.000000e+000 -3.000000e+000  0.000000e+000
      vertex -7.569256e+000  3.121445e-001  0.000000e+000
      vertex -7.478207e+000  6.122935e-001  0.000000e+000
    endloop
  endfacet
  facet normal  0.000000e+000  0.000000e+000  1.000000e+000
    outer loop
      vertex -1.450000e+000 -1.450000e+000  0.000000e+000
      vertex -1.450000e+000  1.450000e+000  0.000000e+000
      vertex -5.111088e+000  1.330351e+000  0.000000e+000
    endloop
  endfacet
  facet normal  0.000000e+000  0.000000e+000  9.999999e-001
    outer loop
      vertex -1.450000e+000 -1.450000e+000  0.000000e+000
      vertex -5.111088e+000  1.330351e+000  0.000000e+000
      vertex -4.868629e+000  1.131371e+000  0.000000e+000
    endloop
  endfacet
  facet normal  0.000000e+000  0.000000e+000  1.000000e+000
    outer loop
      vertex -1.450000e+000 -1.450000e+000  0.000000e+000
      vertex -4.868629e+000  1.131371e+000  0.000000e+000
      vertex -4.669649e+000  8.889124e-001  0.000000e+000
    endloop
  endfacet
  facet normal  0.000000e+000  0.000000e+000  1.000000e+000
    outer loop
      vertex -1.450000e+000 -1.450000e+000  0.000000e+000
      vertex -4.669649e+000  8.889124e-001  0.000000e+000
      vertex -4.521793e+000  6.122935e-001  0.000000e+000
    endloop
  endfacet
  facet normal  0.000000e+000  0.000000e+000  1.000000e+000
    outer loop
      vertex -1.450000e+000 -1.450000e+000  0.000000e+000
      vertex -4.521793e+000  6.122935e-001  0.000000e+000
      vertex -4.430744e+000  3.121445e-001  0.000000e+000
    endloop
  endfacet
  facet normal  0.000000e+000  0.000000e+000  1.000000e+000
    outer loop
      vertex -1.450000e+000 -1.450000e+000  0.000000e+000
      vertex -4.430744e+000  3.121445e-001  0.000000e+000
      vertex -4.400000e+000 -3.918870e-016  0.000000e+000
    endloop
  endfacet
  facet normal  0.000000e+000  0.000000e+000  1.000000e+000
    outer loop
      vertex -1.450000e+000 -1.450000e+000  0.000000e+000
      vertex -4.400000e+000 -3.918870e-016  0.000000e+000
      vertex -4.430744e+000 -3.121445e-001  0.000000e+000
    endloop
  endfacet
  facet normal  0.000000e+000  0.000000e+000  1.000000e+000
    outer loop
      vertex -1.450000e+000 -1.450000e+000  0.000000e+000
      vertex -4.430744e+000 -3.121445e-001  0.000000e+000
      vertex -4.521793e+000 -6.122935e-001  0.000000e+000
    endloop
  endfacet
  facet normal  0.000000e+000  0.000000e+000  9.999999e-001
    outer loop
      vertex -1.450000e+000 -1.450000e+000  0.000000e+000
      vertex -4.521793e+000 -6.122935e-001  0.000000e+000
      vertex -4.669649e+000 -8.889124e-001  0.000000e+000
    endloop
  endfacet
  facet normal  0.000000e+000  0.000000e+000  9.999999e-001
    outer loop
      vertex -1.450000e+000 -1.450000e+000  0.000000e+000
      vertex -4.669649e+000 -8.889124e-001  0.000000e+000
      vertex -4.868629e+000 -1.131371e+000  0.000000e+000
    endloop
  endfacet
  facet normal  0.000000e+000  0.000000e+000  1.000000e+000
    outer loop
      vertex -1.450000e+000 -1.450000e+000  0.000000e+000
      vertex -4.868629e+000 -1.131371e+000  0.000000e+000
      vertex -5.111088e+000 -1.330351e+000  0.000000e+000
    endloop
  endfacet
  facet normal  0.000000e+000  0.000000e+000  1.000000e+000
    outer loop
      vertex -1.450000e+000 -1.450000e+000  0.000000e+000
      vertex -5.111088e+000 -1.330351e+000  0.000000e+000
      vertex -5.387706e+000 -1.478207e+000  0.000000e+000
    endloop
  endfacet
  facet normal  0.000000e+000  0.000000e+000  1.000000e+000
    outer loop
      vertex  1.450000e+000 -1.450000e+000  0.000000e+000
      vertex  5.387706e+000 -1.478207e+000  0.000000e+000
      vertex  5.111088e+000 -1.330351e+000  0.000000e+000
    endloop
  endfacet
  facet normal  0.000000e+000  0.000000e+000  1.000000e+000
    outer loop
      vertex  1.450000e+000 -1.450000e+000  0.000000e+000
      vertex  5.111088e+000 -1.330351e+000  0.000000e+000
      vertex  4.868629e+000 -1.131371e+000  0.000000e+000
    endloop
  endfacet
  facet normal  0.000000e+000  0.000000e+000  9.999999e-001
    outer loop
      vertex  1.450000e+000 -1.450000e+000  0.000000e+000
      vertex  4.868629e+000 -1.131371e+000  0.000000e+000
      vertex  4.669649e+000 -8.889124e-001  0.000000e+000
    endloop
  endfacet
  facet normal  0.000000e+000  0.000000e+000  9.999999e-001
    outer loop
      vertex  1.450000e+000 -1.450000e+000  0.000000e+000
      vertex  4.669649e+000 -8.889124e-001  0.000000e+000
      vertex  4.521793e+000 -6.122935e-001  0.000000e+000
    endloop
  endfacet
  facet normal  0.000000e+000  0.000000e+000  1.000000e+000
    outer loop
      vertex  1.450000e+000 -1.450000e+000  0.000000e+000
      vertex  4.521793e+000 -6.122935e-001  0.000000e+000
      vertex  4.430744e+000 -3.121445e-001  0.000000e+000
    endloop
  endfacet
  facet normal  0.000000e+000  0.000000e+000  1.000000e+000
    outer loop
      vertex  1.450000e+000 -1.450000e+000  0.000000e+000
      vertex  4.430744e+000 -3.121445e-001  0.000000e+000
      vertex  4.400000e+000  1.959435e-016  0.000000e+000
    endloop
  endfacet
  facet normal  0.000000e+000  -0.000000e+000  1.000000e+000
    outer loop
      vertex  1.450000e+000 -1.450000e+000  0.000000e+000
      vertex  4.400000e+000  1.959435e-016  0.000000e+000
      vertex  4.430744e+000  3.121445e-001  0.000000e+000
    endloop
  endfacet
  facet normal  0.000000e+000  -0.000000e+000  1.000000e+000
    outer loop
      vertex  1.450000e+000 -1.450000e+000  0.000000e+000
      vertex  4.430744e+000  3.121445e-001  0.000000e+000
      vertex  4.521793e+000  6.122935e-001  0.000000e+000
    endloop
  endfacet
  facet normal  0.000000e+000  -0.000000e+000  1.000000e+000
    outer loop
      vertex  1.450000e+000 -1.450000e+000  0.000000e+000
      vertex  4.521793e+000  6.122935e-001  0.000000e+000
      vertex  4.669649e+000  8.889124e-001  0.000000e+000
    endloop
  endfacet
  facet normal  0.000000e+000  -0.000000e+000  1.000000e+000
    outer loop
      vertex  1.450000e+000 -1.450000e+000  0.000000e+000
      vertex  4.669649e+000  8.889124e-001  0.000000e+000
      vertex  4.868629e+000  1.131371e+000  0.000000e+000
    endloop
  endfacet
  facet normal  0.000000e+000  -0.000000e+000  1.000000e+000
    outer loop
      vertex  1.450000e+000 -1.450000e+000  0.000000e+000
      vertex  4.868629e+000  1.131371e+000  0.000000e+000
      vertex  5.111088e+000  1.330351e+000  0.000000e+000
    endloop
  endfacet
  facet normal  0.000000e+000  0.000000e+000  1.000000e+000
    outer loop
      vertex  1.450000e+000 -1.450000e+000  0.000000e+000
      vertex  5.111088e+000  1.330351e+000  0.000000e+000
      vertex  1.450000e+000  1.450000e+000  0.000000e+000
    endloop
  endfacet
  facet normal  0.000000e+000  0.000000e+000  1.000000e+000
    outer loop
      vertex  9.000000e+000 -3.000000e+000  0.000000e+000
      vertex  7.478207e+000  6.122935e-001  0.000000e+000
      vertex  7.569256e+000  3.121445e-001  0.000000e+000
    endloop
  endfacet
  facet normal  0.000000e+000  0.000000e+000  1.000000e+000
    outer loop
      vertex  9.000000e+000 -3.000000e+000  0.000000e+000
      vertex  7.569256e+000  3.121445e-001  0.000000e+000
      vertex  7.600000e+000  0.000000e+000  0.000000e+000
    endloop
  endfacet
  facet normal  0.000000e+000  0.000000e+000  1.000000e+000
    outer loop
      vertex  9.000000e+000 -3.000000e+000  0.000000e+000
      vertex  7.600000e+000  0.000000e+000  0.000000e+000
      vertex  7.569256e+000 -3.121445e-001  0.000000e+000
    endloop
  endfacet
  facet normal  0.000000e+000  0.000000e+000  9.999999e-001
    outer loop
      vertex  9.000000e+000 -3.000000e+000  0.000000e+000
      vertex  7.569256e+000 -3.121445e-001  0.000000e+000
      vertex  7.478207e+000 -6.122935e-001  0.000000e+000
    endloop
  endfacet
  facet normal  0.000000e+000  0.000000e+000  1.000000e+000
    outer loop
      vertex  9.000000e+000 -3.000000e+000  0.000000e+000
      vertex  7.478207e+000 -6.122935e-001  0.000000e+000
      vertex  7.330351e+000 -8.889124e-001  0.000000e+000
    endloop
  endfacet
  facet normal  0.000000e+000  0.000000e+000  1.000000e+000
    outer loop
      vertex  9.000000e+000 -3.000000e+000  0.000000e+000
      vertex  7.330351e+000 -8.889124e-001  0.000000e+000
      vertex  7.131371e+000 -1.131371e+000  0.000000e+000
    endloop
  endfacet
  facet normal  0.000000e+000  0.000000e+000  9.999999e-001
    outer loop
      vertex  9.000000e+000 -3.000000e+000  0.000000e+000
      vertex  7.131371e+000 -1.131371e+000  0.000000e+000
      vertex  6.888912e+000 -1.330351e+000  0.000000e+000
    endloop
  endfacet
  facet normal  0.000000e+000  0.000000e+000  1.000000e+000
    outer loop
      vertex  9.000000e+000 -3.000000e+000  0.000000e+000
      vertex  6.888912e+000 -1.330351e+000  0.000000e+000
      vertex  6.612294e+000 -1.478207e+000  0.000000e+000
    endloop
  endfacet
  facet normal  0.000000e+000  0.000000e+000  9.999999e-001
    outer loop
      vertex  9.000000e+000 -3.000000e+000  0.000000e+000
      vertex  6.612294e+000 -1.478207e+000  0.000000e+000
      vertex  6.312144e+000 -1.569256e+000  0.000000e+000
    endloop
  endfacet
  facet normal  0.000000e+000  0.000000e+000  1.000000e+000
    outer loop
      vertex  9.000000e+000 -3.000000e+000  0.000000e+000
      vertex  6.312144e+000 -1.569256e+000  0.000000e+000
      vertex  6.000000e+000 -1.600000e+000  0.000000e+000
    endloop
  endfacet
  facet normal  -0.000000e+000  0.000000e+000  1.000000e+000
    outer loop
      vertex  9.000000e+000  3.000000e+000  0.000000e+000
      vertex  6.000000e+000  1.600000e+000  0.000000e+000
      vertex  6.312144e+000  1.569256e+000  0.000000e+000
    endloop
  endfacet
  facet normal  -0.000000e+000  0.000000e+000  1.000000e+000
    outer loop
      vertex  9.000000e+000  3.000000e+000  0.000000e+000
      vertex  6.312144e+000  1.569256e+000  0.000000e+000
      vertex  6.612294e+000  1.478207e+000  0.000000e+000
    endloop
  endfacet
  facet normal  -0.000000e+000  0.000000e+000  1.000000e+000
    outer loop
      vertex  9.000000e+000  3.000000e+000  0.000000e+000
      vertex  6.612294e+000  1.478207e+000  0.000000e+000
      vertex  6.888912e+000  1.330351e+000  0.000000e+000
    endloop
  endfacet
  facet normal  -0.000000e+000  0.000000e+000  9.999999e-001
    outer loop
      vertex  9.000000e+000  3.000000e+000  0.000000e+000
      vertex  6.888912e+000  1.330351e+000  0.000000e+000
      vertex  7.131371e+000  1.131371e+000  0.000000e+000
    endloop
  endfacet
  facet normal  -0.000000e+000  0.000000e+000  1.000000e+000
    outer loop
      vertex  9.000000e+000  3.000000e+000  0.000000e+000
      vertex  7.131371e+000  1.131371e+000  0.000000e+000
      vertex  7.330351e+000  8.889124e-001  0.000000e+000
    endloop
  endfacet
  facet normal  -0.000000e+000  0.000000e+000  1.000000e+000
    outer loop
      vertex  9.000000e+000  3.000000e+000  0.000000e+000
      vertex  7.330351e+000  8.889124e-001  0.000000e+000
      vertex  7.478207e+000  6.122935e-001  0.000000e+000
    endloop
  endfacet
  facet normal  -0.000000e+000  0.000000e+000  1.000000e+000
    outer loop
      vertex  9.000000e+000  3.000000e+000  0.000000e+000
      vertex  7.478207e+000  6.122935e-001  0.000000e+000
      vertex  9.000000e+000 -3.000000e+000  0.000000e+000
    endloop
  endfacet
  facet normal  1.000000e+000  0.000000e+000  0.000000e+000
    outer loop
      vertex  1.450000e+000  1.450000e+000  0.000000e+000
      vertex  1.450000e+000  1.450000e+000  7.800000e+000
      vertex  1.450000e+000 -1.450000e+000  0.000000e+000
    endloop
  endfacet
  facet normal  1.000000e+000  0.000000e+000  0.000000e+000
    outer loop
      vertex  1.450000e+000 -1.450000e+000  0.000000e+000
      vertex  1.450000e+000  1.450000e+000  7.800000e+000
      vertex  1.450000e+000 -1.450000e+000  7.800000e+000
    endloop
  endfacet
  facet normal  0.000000e+000 -1.000000e+000  -0.000000e+000
    outer loop
      vertex  1.450000e+000 -1.450000e+000  0.000000e+000
      vertex  1.450000e+000 -1.450000e+000  7.800000e+000
      vertex -1.450000e+000 -1.450000e+000  0.000000e+000
    endloop
  endfacet
  facet normal  0.000000e+000 -1.000000e+000  0.000000e+000
    outer loop
      vertex -1.450000e+000 -1.450000e+000  0.000000e+000
      vertex  1.450000e+000 -1.450000e+000  7.800000e+000
      vertex -1.450000e+000 -1.450000e+000  7.800000e+000
    endloop
  endfacet
  facet normal -1.000000e+000  0.000000e+000  0.000000e+000
    outer loop
      vertex -1.450000e+000 -1.450000e+000  0.000000e+000
      vertex -1.450000e+000 -1.450000e+000  7.800000e+000
      vertex -1.450000e+000  1.450000e+000  0.000000e+000
    endloop
  endfacet
  facet normal -1.000000e+000  0.000000e+000  0.000000e+000
    outer loop
      vertex -1.450000e+000  1.450000e+000  0.000000e+000
      vertex -1.450000e+000 -1.450000e+000  7.800000e+000
      vertex -1.450000e+000  1.450000e+000  7.800000e+000
    endloop
  endfacet
  facet normal  0.000000e+000  1.000000e+000  0.000000e+000
    outer loop
      vertex -1.450000e+000  1.450000e+000  0.000000e+000
      vertex -1.450000e+000  1.450000e+000  7.800000e+000
      vertex  1.450000e+000  1.450000e+000  0.000000e+000
    endloop
  endfacet
  facet normal  0.000000e+000  1.000000e+000  -0.000000e+000
    outer loop
      vertex  1.450000e+000  1.450000e+000  0.000000e+000
      vertex -1.450000e+000  1.450000e+000  7.800000e+000
      vertex  1.450000e+000  1.450000e+000  7.800000e+000
    endloop
  endfacet
  facet normal  -0.000000e+000  0.000000e+000 -1.000000e+000
    outer loop
      vertex -9.000000e+000  3.000000e+000 -3.000000e+000
      vertex  9.000000e+000  3.000000e+000 -3.000000e+000
      vertex  6.000000e+000  1.600000e+000 -3.000000e+000
    endloop
  endfacet
  facet normal  0.000000e+000  0.000000e+000 -1.000000e+000
    outer loop
      vertex -9.000000e+000  3.000000e+000 -3.000000e+000
      vertex  6.000000e+000  1.600000e+000 -3.000000e+000
      vertex -6.000000e+000  1.600000e+000 -3.000000e+000
    endloop
  endfacet
  facet normal  -0.000000e+000  0.000000e+000 -1.000000e+000
    outer loop
      vertex -9.000000e+000  3.000000e+000 -3.000000e+000
      vertex -6.000000e+000  1.600000e+000 -3.000000e+000
      vertex -6.312144e+000  1.569256e+000 -3.000000e+000
    endloop
  endfacet
  facet normal  -0.000000e+000  0.000000e+000 -1.000000e+000
    outer loop
      vertex -9.000000e+000  3.000000e+000 -3.000000e+000
      vertex -6.312144e+000  1.569256e+000 -3.000000e+000
      vertex -6.612294e+000  1.478207e+000 -3.000000e+000
    endloop
  endfacet
  facet normal  -0.000000e+000  0.000000e+000 -1.000000e+000
    outer loop
      vertex -9.000000e+000  3.000000e+000 -3.000000e+000
      vertex -6.612294e+000  1.478207e+000 -3.000000e+000
      vertex -6.888912e+000  1.330351e+000 -3.000000e+000
    endloop
  endfacet
  facet normal  -0.000000e+000  0.000000e+000 -9.999999e-001
    outer loop
      vertex -9.000000e+000  3.000000e+000 -3.000000e+000
      vertex -6.888912e+000  1.330351e+000 -3.000000e+000
      vertex -7.131371e+000  1.131371e+000 -3.000000e+000
    endloop
  endfacet
  facet normal  -0.000000e+000  0.000000e+000 -1.000000e+000
    outer loop
      vertex -9.000000e+000  3.000000e+000 -3.000000e+000
      vertex -7.131371e+000  1.131371e+000 -3.000000e+000
      vertex -7.330351e+000  8.889124e-001 -3.000000e+000
    endloop
  endfacet
  facet normal  -0.000000e+000  0.000000e+000 -1.000000e+000
    outer loop
      vertex -9.000000e+000  3.000000e+000 -3.000000e+000
      vertex -7.330351e+000  8.889124e-001 -3.000000e+000
      vertex -7.478207e+000  6.122935e-001 -3.000000e+000
    endloop
  endfacet
  facet normal  -0.000000e+000  0.000000e+000 -1.000000e+000
    outer loop
      vertex -9.000000e+000  3.000000e+000 -3.000000e+000
      vertex -7.478207e+000  6.122935e-001 -3.000000e+000
      vertex -9.000000e+000 -3.000000e+000 -3.000000e+000
    endloop
  endfacet
  facet normal  0.000000e+000  0.000000e+000 -1.000000e+000
    outer loop
      vertex -9.000000e+000 -3.000000e+000 -3.000000e+000
      vertex -7.478207e+000  6.122935e-001 -3.000000e+000
      vertex -7.569256e+000  3.121445e-001 -3.000000e+000
    endloop
  endfacet
  facet normal  0.000000e+000  0.000000e+000 -1.000000e+000
    outer loop
      vertex -9.000000e+000 -3.000000e+000 -3.000000e+000
      vertex -7.569256e+000  3.121445e-001 -3.000000e+000
      vertex -7.600000e+000  1.959435e-016 -3.000000e+000
    endloop
  endfacet
  facet normal  0.000000e+000  -0.000000e+000 -1.000000e+000
    outer loop
      vertex -9.000000e+000 -3.000000e+000 -3.000000e+000
      vertex -7.600000e+000  1.959435e-016 -3.000000e+000
      vertex -7.569256e+000 -3.121445e-001 -3.000000e+000
    endloop
  endfacet
  facet normal  0.000000e+000  -0.000000e+000 -9.999999e-001
    outer loop
      vertex -9.000000e+000 -3.000000e+000 -3.000000e+000
      vertex -7.569256e+000 -3.121445e-001 -3.000000e+000
      vertex -7.478207e+000 -6.122935e-001 -3.000000e+000
    endloop
  endfacet
  facet normal  0.000000e+000  -0.000000e+000 -1.000000e+000
    outer loop
      vertex -9.000000e+000 -3.000000e+000 -3.000000e+000
      vertex -7.478207e+000 -6.122935e-001 -3.000000e+000
      vertex -7.330351e+000 -8.889124e-001 -3.000000e+000
    endloop
  endfacet
  facet normal  0.000000e+000  -0.000000e+000 -1.000000e+000
    outer loop
      vertex -9.000000e+000 -3.000000e+000 -3.000000e+000
      vertex -7.330351e+000 -8.889124e-001 -3.000000e+000
      vertex -7.131371e+000 -1.131371e+000 -3.000000e+000
    endloop
  endfacet
  facet normal  0.000000e+000  -0.000000e+000 -9.999999e-001
    outer loop
      vertex -9.000000e+000 -3.000000e+000 -3.000000e+000
      vertex -7.131371e+000 -1.131371e+000 -3.000000e+000
      vertex -6.888912e+000 -1.330351e+000 -3.000000e+000
    endloop
  endfacet
  facet normal  0.000000e+000  -0.000000e+000 -1.000000e+000
    outer loop
      vertex -9.000000e+000 -3.000000e+000 -3.000000e+000
      vertex -6.888912e+000 -1.330351e+000 -3.000000e+000
      vertex -6.612294e+000 -1.478207e+000 -3.000000e+000
    endloop
  endfacet
  facet normal  0.000000e+000  -0.000000e+000 -9.999999e-001
    outer loop
      vertex -9.000000e+000 -3.000000e+000 -3.000000e+000
      vertex -6.612294e+000 -1.478207e+000 -3.000000e+000
      vertex -6.312144e+000 -1.569256e+000 -3.000000e+000
    endloop
  endfacet
  facet normal  0.000000e+000  -0.000000e+000 -1.000000e+000
    outer loop
      vertex -9.000000e+000 -3.000000e+000 -3.000000e+000
      vertex -6.312144e+000 -1.569256e+000 -3.000000e+000
      vertex -6.000000e+000 -1.600000e+000 -3.000000e+000
    endloop
  endfacet
  facet normal  0.000000e+000  -0.000000e+000 -1.000000e+000
    outer loop
      vertex -9.000000e+000 -3.000000e+000 -3.000000e+000
      vertex -6.000000e+000 -1.600000e+000 -3.000000e+000
      vertex  6.000000e+000 -1.600000e+000 -3.000000e+000
    endloop
  endfacet
  facet normal  0.000000e+000  -0.000000e+000 -1.000000e+000
    outer loop
      vertex -9.000000e+000 -3.000000e+000 -3.000000e+000
      vertex  6.000000e+000 -1.600000e+000 -3.000000e+000
      vertex  9.000000e+000 -3.000000e+000 -3.000000e+000
    endloop
  endfacet
  facet normal  0.000000e+000  0.000000e+000 -1.000000e+000
    outer loop
      vertex  9.000000e+000 -3.000000e+000 -3.000000e+000
      vertex  6.000000e+000 -1.600000e+000 -3.000000e+000
      vertex  6.312144e+000 -1.569256e+000 -3.000000e+000
    endloop
  endfacet
  facet normal  0.000000e+000  0.000000e+000 -1.000000e+000
    outer loop
      vertex  9.000000e+000 -3.000000e+000 -3.000000e+000
      vertex  6.312144e+000 -1.569256e+000 -3.000000e+000
      vertex  6.612294e+000 -1.478207e+000 -3.000000e+000
    endloop
  endfacet
  facet normal  0.000000e+000  0.000000e+000 -1.000000e+000
    outer loop
      vertex  9.000000e+000 -3.000000e+000 -3.000000e+000
      vertex  6.612294e+000 -1.478207e+000 -3.000000e+000
      vertex  6.888912e+000 -1.330351e+000 -3.000000e+000
    endloop
  endfacet
  facet normal  0.000000e+000  0.000000e+000 -9.999999e-001
    outer loop
      vertex  9.000000e+000 -3.000000e+000 -3.000000e+000
      vertex  6.888912e+000 -1.330351e+000 -3.000000e+000
      vertex  7.131371e+000 -1.131371e+000 -3.000000e+000
    endloop
  endfacet
  facet normal  0.000000e+000  0.000000e+000 -1.000000e+000
    outer loop
      vertex  9.000000e+000 -3.000000e+000 -3.000000e+000
      vertex  7.131371e+000 -1.131371e+000 -3.000000e+000
      vertex  7.330351e+000 -8.889124e-001 -3.000000e+000
    endloop
  endfacet
  facet normal  0.000000e+000  0.000000e+000 -1.000000e+000
    outer loop
      vertex  9.000000e+000 -3.000000e+000 -3.000000e+000
      vertex  7.330351e+000 -8.889124e-001 -3.000000e+000
      vertex  7.478207e+000 -6.122935e-001 -3.000000e+000
    endloop
  endfacet
  facet normal  0.000000e+000  0.000000e+000 -1.000000e+000
    outer loop
      vertex  9.000000e+000 -3.000000e+000 -3.000000e+000
      vertex  7.478207e+000 -6.122935e-001 -3.000000e+000
      vertex  7.569256e+000 -3.121445e-001 -3.000000e+000
    endloop
  endfacet
  facet normal  0.000000e+000  0.000000e+000 -1.000000e+000
    outer loop
      vertex  9.000000e+000 -3.000000e+000 -3.000000e+000
      vertex  7.569256e+000 -3.121445e-001 -3.000000e+000
      vertex  7.600000e+000  0.000000e+000 -3.000000e+000
    endloop
  endfacet
  facet normal  0.000000e+000  0.000000e+000 -1.000000e+000
    outer loop
      vertex  9.000000e+000 -3.000000e+000 -3.000000e+000
      vertex  7.600000e+000  0.000000e+000 -3.000000e+000
      vertex  7.569256e+000  3.121445e-001 -3.000000e+000
    endloop
  endfacet
  facet normal  0.000000e+000  0.000000e+000 -1.000000e+000
    outer loop
      vertex  9.000000e+000 -3.000000e+000 -3.000000e+000
      vertex  7.569256e+000  3.121445e-001 -3.000000e+000
      vertex  7.478207e+000  6.122935e-001 -3.000000e+000
    endloop
  endfacet
  facet normal  0.000000e+000  0.000000e+000 -1.000000e+000
    outer loop
      vertex  9.000000e+000  3.000000e+000 -3.000000e+000
      vertex  9.000000e+000 -3.000000e+000 -3.000000e+000
      vertex  7.478207e+000  6.122935e-001 -3.000000e+000
    endloop
  endfacet
  facet normal  0.000000e+000  0.000000e+000 -1.000000e+000
    outer loop
      vertex  9.000000e+000  3.000000e+000 -3.000000e+000
      vertex  7.478207e+000  6.122935e-001 -3.000000e+000
      vertex  7.330351e+000  8.889124e-001 -3.000000e+000
    endloop
  endfacet
  facet normal  0.000000e+000  0.000000e+000 -1.000000e+000
    outer loop
      vertex  9.000000e+000  3.000000e+000 -3.000000e+000
      vertex  7.330351e+000  8.889124e-001 -3.000000e+000
      vertex  7.131371e+000  1.131371e+000 -3.000000e+000
    endloop
  endfacet
  facet normal  0.000000e+000  0.000000e+000 -9.999999e-001
    outer loop
      vertex  9.000000e+000  3.000000e+000 -3.000000e+000
      vertex  7.131371e+000  1.131371e+000 -3.000000e+000
      vertex  6.888912e+000  1.330351e+000 -3.000000e+000
    endloop
  endfacet
  facet normal  0.000000e+000  0.000000e+000 -1.000000e+000
    outer loop
      vertex  9.000000e+000  3.000000e+000 -3.000000e+000
      vertex  6.888912e+000  1.330351e+000 -3.000000e+000
      vertex  6.612294e+000  1.478207e+000 -3.000000e+000
    endloop
  endfacet
  facet normal  0.000000e+000  0.000000e+000 -9.999999e-001
    outer loop
      vertex  9.000000e+000  3.000000e+000 -3.000000e+000
      vertex  6.612294e+000  1.478207e+000 -3.000000e+000
      vertex  6.312144e+000  1.569256e+000 -3.000000e+000
    endloop
  endfacet
  facet normal  0.000000e+000  0.000000e+000 -1.000000e+000
    outer loop
      vertex  9.000000e+000  3.000000e+000 -3.000000e+000
      vertex  6.312144e+000  1.569256e+000 -3.000000e+000
      vertex  6.000000e+000  1.600000e+000 -3.000000e+000
    endloop
  endfacet
  facet normal  0.000000e+000  0.000000e+000 -1.000000e+000
    outer loop
      vertex  4.400000e+000  1.959435e-016 -3.000000e+000
      vertex -4.430744e+000  3.121445e-001 -3.000000e+000
      vertex  4.430744e+000  3.121445e-001 -3.000000e+000
    endloop
  endfacet
  facet normal  0.000000e+000  0.000000e+000 -1.000000e+000
    outer loop
      vertex  4.430744e+000  3.121445e-001 -3.000000e+000
      vertex -4.430744e+000  3.121445e-001 -3.000000e+000
      vertex -4.521793e+000  6.122935e-001 -3.000000e+000
    endloop
  endfacet
  facet normal  0.000000e+000  0.000000e+000 -1.000000e+000
    outer loop
      vertex  4.430744e+000  3.121445e-001 -3.000000e+000
      vertex -4.521793e+000  6.122935e-001 -3.000000e+000
      vertex  4.521793e+000  6.122935e-001 -3.000000e+000
    endloop
  endfacet
  facet normal  0.000000e+000  0.000000e+000 -1.000000e+000
    outer loop
      vertex  4.521793e+000  6.122935e-001 -3.000000e+000
      vertex -4.521793e+000  6.122935e-001 -3.000000e+000
      vertex -4.669649e+000  8.889124e-001 -3.000000e+000
    endloop
  endfacet
  facet normal  0.000000e+000  0.000000e+000 -1.000000e+000
    outer loop
      vertex  4.521793e+000  6.122935e-001 -3.000000e+000
      vertex -4.669649e+000  8.889124e-001 -3.000000e+000
      vertex  4.669649e+000  8.889124e-001 -3.000000e+000
    endloop
  endfacet
  facet normal  0.000000e+000  0.000000e+000 -1.000000e+000
    outer loop
      vertex  4.669649e+000  8.889124e-001 -3.000000e+000
      vertex -4.669649e+000  8.889124e-001 -3.000000e+000
      vertex -4.868629e+000  1.131371e+000 -3.000000e+000
    endloop
  endfacet
  facet normal  0.000000e+000  0.000000e+000 -9.999999e-001
    outer loop
      vertex  4.669649e+000  8.889124e-001 -3.000000e+000
      vertex -4.868629e+000  1.131371e+000 -3.000000e+000
      vertex  4.868629e+000  1.131371e+000 -3.000000e+000
    endloop
  endfacet
  facet normal  0.000000e+000  0.000000e+000 -1.000000e+000
    outer loop
      vertex  4.868629e+000  1.131371e+000 -3.000000e+000
      vertex -4.868629e+000  1.131371e+000 -3.000000e+000
      vertex -5.111088e+000  1.330351e+000 -3.000000e+000
    endloop
  endfacet
  facet normal  0.000000e+000  0.000000e+000 -1.000000e+000
    outer loop
      vertex  4.868629e+000  1.131371e+000 -3.000000e+000
      vertex -5.111088e+000  1.330351e+000 -3.000000e+000
      vertex  5.111088e+000  1.330351e+000 -3.000000e+000
    endloop
  endfacet
  facet normal  0.000000e+000  0.000000e+000 -1.000000e+000
    outer loop
      vertex  5.111088e+000  1.330351e+000 -3.000000e+000
      vertex -5.111088e+000  1.330351e+000 -3.000000e+000
      vertex -5.387706e+000  1.478207e+000 -3.000000e+000
    endloop
  endfacet
  facet normal  0.000000e+000  0.000000e+000 -9.999999e-001
    outer loop
      vertex  5.111088e+000  1.330351e+000 -3.000000e+000
      vertex -5.387706e+000  1.478207e+000 -3.000000e+000
      vertex  5.387706e+000  1.478207e+000 -3.000000e+000
    endloop
  endfacet
  facet normal  0.000000e+000  0.000000e+000 -1.000000e+000
    outer loop
      vertex  5.387706e+000  1.478207e+000 -3.000000e+000
      vertex -5.387706e+000  1.478207e+000 -3.000000e+000
      vertex -5.687856e+000  1.569256e+000 -3.000000e+000
    endloop
  endfacet
  facet normal  0.000000e+000  0.000000e+000 -1.000000e+000
    outer loop
      vertex  5.387706e+000  1.478207e+000 -3.000000e+000
      vertex -5.687856e+000  1.569256e+000 -3.000000e+000
      vertex  5.687856e+000  1.569256e+000 -3.000000e+000
    endloop
  endfacet
  facet normal  0.000000e+000  0.000000e+000 -1.000000e+000
    outer loop
      vertex  5.687856e+000  1.569256e+000 -3.000000e+000
      vertex -5.687856e+000  1.569256e+000 -3.000000e+000
      vertex -6.000000e+000  1.600000e+000 -3.000000e+000
    endloop
  endfacet
  facet normal  0.000000e+000  0.000000e+000 -1.000000e+000
    outer loop
      vertex  5.687856e+000  1.569256e+000 -3.000000e+000
      vertex -6.000000e+000  1.600000e+000 -3.000000e+000
      vertex  6.000000e+000  1.600000e+000 -3.000000e+000
    endloop
  endfacet
  facet normal  -0.000000e+000  0.000000e+000 -1.000000e+000
    outer loop
      vertex -4.430744e+000  3.121445e-001 -3.000000e+000
      vertex  4.400000e+000  1.959435e-016 -3.000000e+000
      vertex -4.400000e+000 -3.918870e-016 -3.000000e+000
    endloop
  endfacet
  facet normal  0.000000e+000  0.000000e+000 -1.000000e+000
    outer loop
      vertex -4.400000e+000 -3.918870e-016 -3.000000e+000
      vertex  4.400000e+000  1.959435e-016 -3.000000e+000
      vertex  4.430744e+000 -3.121445e-001 -3.000000e+000
    endloop
  endfacet
  facet normal  0.000000e+000  0.000000e+000 -1.000000e+000
    outer loop
      vertex -4.400000e+000 -3.918870e-016 -3.000000e+000
      vertex  4.430744e+000 -3.121445e-001 -3.000000e+000
      vertex -4.430744e+000 -3.121445e-001 -3.000000e+000
    endloop
  endfacet
  facet normal  0.000000e+000  0.000000e+000 -1.000000e+000
    outer loop
      vertex -4.430744e+000 -3.121445e-001 -3.000000e+000
      vertex  4.430744e+000 -3.121445e-001 -3.000000e+000
      vertex  4.521793e+000 -6.122935e-001 -3.000000e+000
    endloop
  endfacet
  facet normal  0.000000e+000  0.000000e+000 -1.000000e+000
    outer loop
      vertex -4.430744e+000 -3.121445e-001 -3.000000e+000
      vertex  4.521793e+000 -6.122935e-001 -3.000000e+000
      vertex -4.521793e+000 -6.122935e-001 -3.000000e+000
    endloop
  endfacet
  facet normal  0.000000e+000  0.000000e+000 -1.000000e+000
    outer loop
      vertex -4.521793e+000 -6.122935e-001 -3.000000e+000
      vertex  4.521793e+000 -6.122935e-001 -3.000000e+000
      vertex  4.669649e+000 -8.889124e-001 -3.000000e+000
    endloop
  endfacet
  facet normal  0.000000e+000  0.000000e+000 -1.000000e+000
    outer loop
      vertex -4.521793e+000 -6.122935e-001 -3.000000e+000
      vertex  4.669649e+000 -8.889124e-001 -3.000000e+000
      vertex -4.669649e+000 -8.889124e-001 -3.000000e+000
    endloop
  endfacet
  facet normal  0.000000e+000  0.000000e+000 -1.000000e+000
    outer loop
      vertex -4.669649e+000 -8.889124e-001 -3.000000e+000
      vertex  4.669649e+000 -8.889124e-001 -3.000000e+000
      vertex  4.868629e+000 -1.131371e+000 -3.000000e+000
    endloop
  endfacet
  facet normal  0.000000e+000  0.000000e+000 -9.999999e-001
    outer loop
      vertex -4.669649e+000 -8.889124e-001 -3.000000e+000
      vertex  4.868629e+000 -1.131371e+000 -3.000000e+000
      vertex -4.868629e+000 -1.131371e+000 -3.000000e+000
    endloop
  endfacet
  facet normal  0.000000e+000  0.000000e+000 -1.000000e+000
    outer loop
      vertex -4.868629e+000 -1.131371e+000 -3.000000e+000
      vertex  4.868629e+000 -1.131371e+000 -3.000000e+000
      vertex  5.111088e+000 -1.330351e+000 -3.000000e+000
    endloop
  endfacet
  facet normal  0.000000e+000  0.000000e+000 -1.000000e+000
    outer loop
      vertex -4.868629e+000 -1.131371e+000 -3.000000e+000
      vertex  5.111088e+000 -1.330351e+000 -3.000000e+000
      vertex -5.111088e+000 -1.330351e+000 -3.000000e+000
    endloop
  endfacet
  facet normal  0.000000e+000  0.000000e+000 -1.000000e+000
    outer loop
      vertex -5.111088e+000 -1.330351e+000 -3.000000e+000
      vertex  5.111088e+000 -1.330351e+000 -3.000000e+000
      vertex  5.387706e+000 -1.478207e+000 -3.000000e+000
    endloop
  endfacet
  facet normal  0.000000e+000  0.000000e+000 -9.999999e-001
    outer loop
      vertex -5.111088e+000 -1.330351e+000 -3.000000e+000
      vertex  5.387706e+000 -1.478207e+000 -3.000000e+000
      vertex -5.387706e+000 -1.478207e+000 -3.000000e+000
    endloop
  endfacet
  facet normal  0.000000e+000  0.000000e+000 -1.000000e+000
    outer loop
      vertex -5.387706e+000 -1.478207e+000 -3.000000e+000
      vertex  5.387706e+000 -1.478207e+000 -3.000000e+000
      vertex  5.687856e+000 -1.569256e+000 -3.000000e+000
    endloop
  endfacet
  facet normal  0.000000e+000  0.000000e+000 -1.000000e+000
    outer loop
      vertex -5.387706e+000 -1.478207e+000 -3.000000e+000
      vertex  5.687856e+000 -1.569256e+000 -3.000000e+000
      vertex -5.687856e+000 -1.569256e+000 -3.000000e+000
    endloop
  endfacet
  facet normal  0.000000e+000  0.000000e+000 -1.000000e+000
    outer loop
      vertex -5.687856e+000 -1.569256e+000 -3.000000e+000
      vertex  5.687856e+000 -1.569256e+000 -3.000000e+000
      vertex  6.000000e+000 -1.600000e+000 -3.000000e+000
    endloop
  endfacet
  facet normal  0.000000e+000  0.000000e+000 -1.000000e+000
    outer loop
      vertex -5.687856e+000 -1.569256e+000 -3.000000e+000
      vertex  6.000000e+000 -1.600000e+000 -3.000000e+000
      vertex -6.000000e+000 -1.600000e+000 -3.000000e+000
    endloop
  endfacet
  facet normal -9.801736e-002  9.951847e-001  0.000000e+000
    outer loop
      vertex -6.000000e+000 -1.600000e+000 -3.000000e+000
      vertex -5.687856e+000 -1.569256e+000  0.000000e+000
      vertex -5.687856e+000 -1.569256e+000 -3.000000e+000
    endloop
  endfacet
  facet normal -2.902843e-001  9.569405e-001  0.000000e+000
    outer loop
      vertex -5.687856e+000 -1.569256e+000 -3.000000e+000
      vertex -5.687856e+000 -1.569256e+000  0.000000e+000
      vertex -5.387706e+000 -1.478207e+000  0.000000e+000
    endloop
  endfacet
  facet normal -2.902843e-001  9.569405e-001  0.000000e+000
    outer loop
      vertex -5.687856e+000 -1.569256e+000 -3.000000e+000
      vertex -5.387706e+000 -1.478207e+000  0.000000e+000
      vertex -5.387706e+000 -1.478207e+000 -3.000000e+000
    endloop
  endfacet
  facet normal -4.713973e-001  8.819209e-001  0.000000e+000
    outer loop
      vertex -5.387706e+000 -1.478207e+000 -3.000000e+000
      vertex -5.387706e+000 -1.478207e+000  0.000000e+000
      vertex -5.111088e+000 -1.330351e+000  0.000000e+000
    endloop
  endfacet
  facet normal -4.713973e-001  8.819209e-001  0.000000e+000
    outer loop
      vertex -5.387706e+000 -1.478207e+000 -3.000000e+000
      vertex -5.111088e+000 -1.330351e+000  0.000000e+000
      vertex -5.111088e+000 -1.330351e+000 -3.000000e+000
    endloop
  endfacet
  facet normal -6.343926e-001  7.730110e-001  0.000000e+000
    outer loop
      vertex -5.111088e+000 -1.330351e+000 -3.000000e+000
      vertex -5.111088e+000 -1.330351e+000  0.000000e+000
      vertex -4.868629e+000 -1.131371e+000  0.000000e+000
    endloop
  endfacet
  facet normal -6.343926e-001  7.730110e-001  0.000000e+000
    outer loop
      vertex -5.111088e+000 -1.330351e+000 -3.000000e+000
      vertex -4.868629e+000 -1.131371e+000  0.000000e+000
      vertex -4.868629e+000 -1.131371e+000 -3.000000e+000
    endloop
  endfacet
  facet normal -7.730108e-001  6.343929e-001  0.000000e+000
    outer loop
      vertex -4.868629e+000 -1.131371e+000 -3.000000e+000
      vertex -4.868629e+000 -1.131371e+000  0.000000e+000
      vertex -4.669649e+000 -8.889124e-001  0.000000e+000
    endloop
  endfacet
  facet normal -7.730108e-001  6.343929e-001  0.000000e+000
    outer loop
      vertex -4.868629e+000 -1.131371e+000 -3.000000e+000
      vertex -4.669649e+000 -8.889124e-001  0.000000e+000
      vertex -4.669649e+000 -8.889124e-001 -3.000000e+000
    endloop
  endfacet
  facet normal -8.819215e-001  4.713965e-001  0.000000e+000
    outer loop
      vertex -4.669649e+000 -8.889124e-001 -3.000000e+000
      vertex -4.669649e+000 -8.889124e-001  0.000000e+000
      vertex -4.521793e+000 -6.122935e-001  0.000000e+000
    endloop
  endfacet
  facet normal -8.819215e-001  4.713965e-001  0.000000e+000
    outer loop
      vertex -4.669649e+000 -8.889124e-001 -3.000000e+000
      vertex -4.521793e+000 -6.122935e-001  0.000000e+000
      vertex -4.521793e+000 -6.122935e-001 -3.000000e+000
    endloop
  endfacet
  facet normal -9.569404e-001  2.902847e-001  0.000000e+000
    outer loop
      vertex -4.521793e+000 -6.122935e-001 -3.000000e+000
      vertex -4.521793e+000 -6.122935e-001  0.000000e+000
      vertex -4.430744e+000 -3.121445e-001  0.000000e+000
    endloop
  endfacet
  facet normal -9.569404e-001  2.902847e-001  0.000000e+000
    outer loop
      vertex -4.521793e+000 -6.122935e-001 -3.000000e+000
      vertex -4.430744e+000 -3.121445e-001  0.000000e+000
      vertex -4.430744e+000 -3.121445e-001 -3.000000e+000
    endloop
  endfacet
  facet normal -9.951847e-001  9.801729e-002  0.000000e+000
    outer loop
      vertex -4.430744e+000 -3.121445e-001 -3.000000e+000
      vertex -4.430744e+000 -3.121445e-001  0.000000e+000
      vertex -4.400000e+000 -3.918870e-016  0.000000e+000
    endloop
  endfacet
  facet normal -9.951847e-001  9.801729e-002  0.000000e+000
    outer loop
      vertex -4.430744e+000 -3.121445e-001 -3.000000e+000
      vertex -4.400000e+000 -3.918870e-016  0.000000e+000
      vertex -4.400000e+000 -3.918870e-016 -3.000000e+000
    endloop
  endfacet
  facet normal -9.801736e-002  9.951847e-001  0.000000e+000
    outer loop
      vertex -5.687856e+000 -1.569256e+000  0.000000e+000
      vertex -6.000000e+000 -1.600000e+000 -3.000000e+000
      vertex -6.000000e+000 -1.600000e+000  0.000000e+000
    endloop
  endfacet
  facet normal  9.801736e-002  9.951847e-001  0.000000e+000
    outer loop
      vertex -6.000000e+000 -1.600000e+000  0.000000e+000
      vertex -6.000000e+000 -1.600000e+000 -3.000000e+000
      vertex -6.312144e+000 -1.569256e+000 -3.000000e+000
    endloop
  endfacet
  facet normal  9.801736e-002  9.951847e-001  -0.000000e+000
    outer loop
      vertex -6.000000e+000 -1.600000e+000  0.000000e+000
      vertex -6.312144e+000 -1.569256e+000 -3.000000e+000
      vertex -6.312144e+000 -1.569256e+000  0.000000e+000
    endloop
  endfacet
  facet normal  2.902843e-001  9.569405e-001  0.000000e+000
    outer loop
      vertex -6.312144e+000 -1.569256e+000  0.000000e+000
      vertex -6.312144e+000 -1.569256e+000 -3.000000e+000
      vertex -6.612294e+000 -1.478207e+000 -3.000000e+000
    endloop
  endfacet
  facet normal  2.902843e-001  9.569405e-001  -0.000000e+000
    outer loop
      vertex -6.312144e+000 -1.569256e+000  0.000000e+000
      vertex -6.612294e+000 -1.478207e+000 -3.000000e+000
      vertex -6.612294e+000 -1.478207e+000  0.000000e+000
    endloop
  endfacet
  facet normal  4.713973e-001  8.819209e-001  0.000000e+000
    outer loop
      vertex -6.612294e+000 -1.478207e+000  0.000000e+000
      vertex -6.612294e+000 -1.478207e+000 -3.000000e+000
      vertex -6.888912e+000 -1.330351e+000 -3.000000e+000
    endloop
  endfacet
  facet normal  4.713973e-001  8.819209e-001  -0.000000e+000
    outer loop
      vertex -6.612294e+000 -1.478207e+000  0.000000e+000
      vertex -6.888912e+000 -1.330351e+000 -3.000000e+000
      vertex -6.888912e+000 -1.330351e+000  0.000000e+000
    endloop
  endfacet
  facet normal  6.343926e-001  7.730110e-001  0.000000e+000
    outer loop
      vertex -6.888912e+000 -1.330351e+000  0.000000e+000
      vertex -6.888912e+000 -1.330351e+000 -3.000000e+000
      vertex -7.131371e+000 -1.131371e+000 -3.000000e+000
    endloop
  endfacet
  facet normal  6.343926e-001  7.730110e-001  -0.000000e+000
    outer loop
      vertex -6.888912e+000 -1.330351e+000  0.000000e+000
      vertex -7.131371e+000 -1.131371e+000 -3.000000e+000
      vertex -7.131371e+000 -1.131371e+000  0.000000e+000
    endloop
  endfacet
  facet normal  7.730108e-001  6.343929e-001  0.000000e+000
    outer loop
      vertex -7.131371e+000 -1.131371e+000  0.000000e+000
      vertex -7.131371e+000 -1.131371e+000 -3.000000e+000
      vertex -7.330351e+000 -8.889124e-001 -3.000000e+000
    endloop
  endfacet
  facet normal  7.730108e-001  6.343929e-001  -0.000000e+000
    outer loop
      vertex -7.131371e+000 -1.131371e+000  0.000000e+000
      vertex -7.330351e+000 -8.889124e-001 -3.000000e+000
      vertex -7.330351e+000 -8.889124e-001  0.000000e+000
    endloop
  endfacet
  facet normal  8.819215e-001  4.713965e-001  0.000000e+000
    outer loop
      vertex -7.330351e+000 -8.889124e-001  0.000000e+000
      vertex -7.330351e+000 -8.889124e-001 -3.000000e+000
      vertex -7.478207e+000 -6.122935e-001 -3.000000e+000
    endloop
  endfacet
  facet normal  8.819215e-001  4.713965e-001  -0.000000e+000
    outer loop
      vertex -7.330351e+000 -8.889124e-001  0.000000e+000
      vertex -7.478207e+000 -6.122935e-001 -3.000000e+000
      vertex -7.478207e+000 -6.122935e-001  0.000000e+000
    endloop
  endfacet
  facet normal  9.569404e-001  2.902847e-001  0.000000e+000
    outer loop
      vertex -7.478207e+000 -6.122935e-001  0.000000e+000
      vertex -7.478207e+000 -6.122935e-001 -3.000000e+000
      vertex -7.569256e+000 -3.121445e-001 -3.000000e+000
    endloop
  endfacet
  facet normal  9.569404e-001  2.902847e-001  -0.000000e+000
    outer loop
      vertex -7.478207e+000 -6.122935e-001  0.000000e+000
      vertex -7.569256e+000 -3.121445e-001 -3.000000e+000
      vertex -7.569256e+000 -3.121445e-001  0.000000e+000
    endloop
  endfacet
  facet normal  9.951847e-001  9.801729e-002  0.000000e+000
    outer loop
      vertex -7.569256e+000 -3.121445e-001  0.000000e+000
      vertex -7.569256e+000 -3.121445e-001 -3.000000e+000
      vertex -7.600000e+000  1.959435e-016 -3.000000e+000
    endloop
  endfacet
  facet normal  9.951847e-001  9.801729e-002  -0.000000e+000
    outer loop
      vertex -7.569256e+000 -3.121445e-001  0.000000e+000
      vertex -7.600000e+000  1.959435e-016 -3.000000e+000
      vertex -7.600000e+000  1.959435e-016  0.000000e+000
    endloop
  endfacet
  facet normal  9.801736e-002 -9.951847e-001  0.000000e+000
    outer loop
      vertex -6.000000e+000  1.600000e+000 -3.000000e+000
      vertex -6.312144e+000  1.569256e+000  0.000000e+000
      vertex -6.312144e+000  1.569256e+000 -3.000000e+000
    endloop
  endfacet
  facet normal  2.902843e-001 -9.569405e-001  0.000000e+000
    outer loop
      vertex -6.312144e+000  1.569256e+000 -3.000000e+000
      vertex -6.312144e+000  1.569256e+000  0.000000e+000
      vertex -6.612294e+000  1.478207e+000  0.000000e+000
    endloop
  endfacet
  facet normal  2.902843e-001 -9.569405e-001  0.000000e+000
    outer loop
      vertex -6.312144e+000  1.569256e+000 -3.000000e+000
      vertex -6.612294e+000  1.478207e+000  0.000000e+000
      vertex -6.612294e+000  1.478207e+000 -3.000000e+000
    endloop
  endfacet
  facet normal  4.713973e-001 -8.819209e-001  0.000000e+000
    outer loop
      vertex -6.612294e+000  1.478207e+000 -3.000000e+000
      vertex -6.612294e+000  1.478207e+000  0.000000e+000
      vertex -6.888912e+000  1.330351e+000  0.000000e+000
    endloop
  endfacet
  facet normal  4.713973e-001 -8.819209e-001  0.000000e+000
    outer loop
      vertex -6.612294e+000  1.478207e+000 -3.000000e+000
      vertex -6.888912e+000  1.330351e+000  0.000000e+000
      vertex -6.888912e+000  1.330351e+000 -3.000000e+000
    endloop
  endfacet
  facet normal  6.343926e-001 -7.730110e-001  0.000000e+000
    outer loop
      vertex -6.888912e+000  1.330351e+000 -3.000000e+000
      vertex -6.888912e+000  1.330351e+000  0.000000e+000
      vertex -7.131371e+000  1.131371e+000  0.000000e+000
    endloop
  endfacet
  facet normal  6.343926e-001 -7.730110e-001  0.000000e+000
    outer loop
      vertex -6.888912e+000  1.330351e+000 -3.000000e+000
      vertex -7.131371e+000  1.131371e+000  0.000000e+000
      vertex -7.131371e+000  1.131371e+000 -3.000000e+000
    endloop
  endfacet
  facet normal  7.730108e-001 -6.343929e-001  0.000000e+000
    outer loop
      vertex -7.131371e+000  1.131371e+000 -3.000000e+000
      vertex -7.131371e+000  1.131371e+000  0.000000e+000
      vertex -7.330351e+000  8.889124e-001  0.000000e+000
    endloop
  endfacet
  facet normal  7.730108e-001 -6.343929e-001  0.000000e+000
    outer loop
      vertex -7.131371e+000  1.131371e+000 -3.000000e+000
      vertex -7.330351e+000  8.889124e-001  0.000000e+000
      vertex -7.330351e+000  8.889124e-001 -3.000000e+000
    endloop
  endfacet
  facet normal  8.819215e-001 -4.713965e-001  0.000000e+000
    outer loop
      vertex -7.330351e+000  8.889124e-001 -3.000000e+000
      vertex -7.330351e+000  8.889124e-001  0.000000e+000
      vertex -7.478207e+000  6.122935e-001  0.000000e+000
    endloop
  endfacet
  facet normal  8.819215e-001 -4.713965e-001  0.000000e+000
    outer loop
      vertex -7.330351e+000  8.889124e-001 -3.000000e+000
      vertex -7.478207e+000  6.122935e-001  0.000000e+000
      vertex -7.478207e+000  6.122935e-001 -3.000000e+000
    endloop
  endfacet
  facet normal  9.569404e-001 -2.902847e-001  0.000000e+000
    outer loop
      vertex -7.478207e+000  6.122935e-001 -3.000000e+000
      vertex -7.478207e+000  6.122935e-001  0.000000e+000
      vertex -7.569256e+000  3.121445e-001  0.000000e+000
    endloop
  endfacet
  facet normal  9.569404e-001 -2.902847e-001  0.000000e+000
    outer loop
      vertex -7.478207e+000  6.122935e-001 -3.000000e+000
      vertex -7.569256e+000  3.121445e-001  0.000000e+000
      vertex -7.569256e+000  3.121445e-001 -3.000000e+000
    endloop
  endfacet
  facet normal  9.951847e-001 -9.801729e-002  0.000000e+000
    outer loop
      vertex -7.569256e+000  3.121445e-001 -3.000000e+000
      vertex -7.569256e+000  3.121445e-001  0.000000e+000
      vertex -7.600000e+000  1.959435e-016  0.000000e+000
    endloop
  endfacet
  facet normal  9.951847e-001 -9.801729e-002  0.000000e+000
    outer loop
      vertex -7.569256e+000  3.121445e-001 -3.000000e+000
      vertex -7.600000e+000  1.959435e-016  0.000000e+000
      vertex -7.600000e+000  1.959435e-016 -3.000000e+000
    endloop
  endfacet
  facet normal  9.801736e-002 -9.951847e-001  0.000000e+000
    outer loop
      vertex -6.312144e+000  1.569256e+000  0.000000e+000
      vertex -6.000000e+000  1.600000e+000 -3.000000e+000
      vertex -6.000000e+000  1.600000e+000  0.000000e+000
    endloop
  endfacet
  facet normal -9.801736e-002 -9.951847e-001  -0.000000e+000
    outer loop
      vertex -6.000000e+000  1.600000e+000  0.000000e+000
      vertex -6.000000e+000  1.600000e+000 -3.000000e+000
      vertex -5.687856e+000  1.569256e+000 -3.000000e+000
    endloop
  endfacet
  facet normal -9.801736e-002 -9.951847e-001  0.000000e+000
    outer loop
      vertex -6.000000e+000  1.600000e+000  0.000000e+000
      vertex -5.687856e+000  1.569256e+000 -3.000000e+000
      vertex -5.687856e+000  1.569256e+000  0.000000e+000
    endloop
  endfacet
  facet normal -2.902843e-001 -9.569405e-001  -0.000000e+000
    outer loop
      vertex -5.687856e+000  1.569256e+000  0.000000e+000
      vertex -5.687856e+000  1.569256e+000 -3.000000e+000
      vertex -5.387706e+000  1.478207e+000 -3.000000e+000
    endloop
  endfacet
  facet normal -2.902843e-001 -9.569405e-001  0.000000e+000
    outer loop
      vertex -5.687856e+000  1.569256e+000  0.000000e+000
      vertex -5.387706e+000  1.478207e+000 -3.000000e+000
      vertex -5.387706e+000  1.478207e+000  0.000000e+000
    endloop
  endfacet
  facet normal -4.713973e-001 -8.819209e-001  -0.000000e+000
    outer loop
      vertex -5.387706e+000  1.478207e+000  0.000000e+000
      vertex -5.387706e+000  1.478207e+000 -3.000000e+000
      vertex -5.111088e+000  1.330351e+000 -3.000000e+000
    endloop
  endfacet
  facet normal -4.713973e-001 -8.819209e-001  0.000000e+000
    outer loop
      vertex -5.387706e+000  1.478207e+000  0.000000e+000
      vertex -5.111088e+000  1.330351e+000 -3.000000e+000
      vertex -5.111088e+000  1.330351e+000  0.000000e+000
    endloop
  endfacet
  facet normal -6.343926e-001 -7.730110e-001  -0.000000e+000
    outer loop
      vertex -5.111088e+000  1.330351e+000  0.000000e+000
      vertex -5.111088e+000  1.330351e+000 -3.000000e+000
      vertex -4.868629e+000  1.131371e+000 -3.000000e+000
    endloop
  endfacet
  facet normal -6.343926e-001 -7.730110e-001  0.000000e+000
    outer loop
      vertex -5.111088e+000  1.330351e+000  0.000000e+000
      vertex -4.868629e+000  1.131371e+000 -3.000000e+000
      vertex -4.868629e+000  1.131371e+000  0.000000e+000
    endloop
  endfacet
  facet normal -7.730108e-001 -6.343929e-001  -0.000000e+000
    outer loop
      vertex -4.868629e+000  1.131371e+000  0.000000e+000
      vertex -4.868629e+000  1.131371e+000 -3.000000e+000
      vertex -4.669649e+000  8.889124e-001 -3.000000e+000
    endloop
  endfacet
  facet normal -7.730108e-001 -6.343929e-001  0.000000e+000
    outer loop
      vertex -4.868629e+000  1.131371e+000  0.000000e+000
      vertex -4.669649e+000  8.889124e-001 -3.000000e+000
      vertex -4.669649e+000  8.889124e-001  0.000000e+000
    endloop
  endfacet
  facet normal -8.819215e-001 -4.713965e-001  -0.000000e+000
    outer loop
      vertex -4.669649e+000  8.889124e-001  0.000000e+000
      vertex -4.669649e+000  8.889124e-001 -3.000000e+000
      vertex -4.521793e+000  6.122935e-001 -3.000000e+000
    endloop
  endfacet
  facet normal -8.819215e-001 -4.713965e-001  0.000000e+000
    outer loop
      vertex -4.669649e+000  8.889124e-001  0.000000e+000
      vertex -4.521793e+000  6.122935e-001 -3.000000e+000
      vertex -4.521793e+000  6.122935e-001  0.000000e+000
    endloop
  endfacet
  facet normal -9.569404e-001 -2.902847e-001  -0.000000e+000
    outer loop
      vertex -4.521793e+000  6.122935e-001  0.000000e+000
      vertex -4.521793e+000  6.122935e-001 -3.000000e+000
      vertex -4.430744e+000  3.121445e-001 -3.000000e+000
    endloop
  endfacet
  facet normal -9.569404e-001 -2.902847e-001  0.000000e+000
    outer loop
      vertex -4.521793e+000  6.122935e-001  0.000000e+000
      vertex -4.430744e+000  3.121445e-001 -3.000000e+000
      vertex -4.430744e+000  3.121445e-001  0.000000e+000
    endloop
  endfacet
  facet normal -9.951847e-001 -9.801729e-002  -0.000000e+000
    outer loop
      vertex -4.430744e+000  3.121445e-001  0.000000e+000
      vertex -4.430744e+000  3.121445e-001 -3.000000e+000
      vertex -4.400000e+000 -3.918870e-016 -3.000000e+000
    endloop
  endfacet
  facet normal -9.951847e-001 -9.801729e-002  0.000000e+000
    outer loop
      vertex -4.430744e+000  3.121445e-001  0.000000e+000
      vertex -4.400000e+000 -3.918870e-016 -3.000000e+000
      vertex -4.400000e+000 -3.918870e-016  0.000000e+000
    endloop
  endfacet
  facet normal  9.801736e-002 -9.951847e-001  0.000000e+000
    outer loop
      vertex  6.000000e+000  1.600000e+000 -3.000000e+000
      vertex  5.687856e+000  1.569256e+000  0.000000e+000
      vertex  5.687856e+000  1.569256e+000 -3.000000e+000
    endloop
  endfacet
  facet normal  2.902843e-001 -9.569405e-001  0.000000e+000
    outer loop
      vertex  5.687856e+000  1.569256e+000 -3.000000e+000
      vertex  5.687856e+000  1.569256e+000  0.000000e+000
      vertex  5.387706e+000  1.478207e+000  0.000000e+000
    endloop
  endfacet
  facet normal  2.902843e-001 -9.569405e-001  0.000000e+000
    outer loop
      vertex  5.687856e+000  1.569256e+000 -3.000000e+000
      vertex  5.387706e+000  1.478207e+000  0.000000e+000
      vertex  5.387706e+000  1.478207e+000 -3.000000e+000
    endloop
  endfacet
  facet normal  4.713973e-001 -8.819209e-001  0.000000e+000
    outer loop
      vertex  5.387706e+000  1.478207e+000 -3.000000e+000
      vertex  5.387706e+000  1.478207e+000  0.000000e+000
      vertex  5.111088e+000  1.330351e+000  0.000000e+000
    endloop
  endfacet
  facet normal  4.713973e-001 -8.819209e-001  0.000000e+000
    outer loop
      vertex  5.387706e+000  1.478207e+000 -3.000000e+000
      vertex  5.111088e+000  1.330351e+000  0.000000e+000
      vertex  5.111088e+000  1.330351e+000 -3.000000e+000
    endloop
  endfacet
  facet normal  6.343926e-001 -7.730110e-001  0.000000e+000
    outer loop
      vertex  5.111088e+000  1.330351e+000 -3.000000e+000
      vertex  5.111088e+000  1.330351e+000  0.000000e+000
      vertex  4.868629e+000  1.131371e+000  0.000000e+000
    endloop
  endfacet
  facet normal  6.343926e-001 -7.730110e-001  0.000000e+000
    outer loop
      vertex  5.111088e+000  1.330351e+000 -3.000000e+000
      vertex  4.868629e+000  1.131371e+000  0.000000e+000
      vertex  4.868629e+000  1.131371e+000 -3.000000e+000
    endloop
  endfacet
  facet normal  7.730108e-001 -6.343929e-001  0.000000e+000
    outer loop
      vertex  4.868629e+000  1.131371e+000 -3.000000e+000
      vertex  4.868629e+000  1.131371e+000  0.000000e+000
      vertex  4.669649e+000  8.889124e-001  0.000000e+000
    endloop
  endfacet
  facet normal  7.730108e-001 -6.343929e-001  0.000000e+000
    outer loop
      vertex  4.868629e+000  1.131371e+000 -3.000000e+000
      vertex  4.669649e+000  8.889124e-001  0.000000e+000
      vertex  4.669649e+000  8.889124e-001 -3.000000e+000
    endloop
  endfacet
  facet normal  8.819215e-001 -4.713965e-001  0.000000e+000
    outer loop
      vertex  4.669649e+000  8.889124e-001 -3.000000e+000
      vertex  4.669649e+000  8.889124e-001  0.000000e+000
      vertex  4.521793e+000  6.122935e-001  0.000000e+000
    endloop
  endfacet
  facet normal  8.819215e-001 -4.713965e-001  0.000000e+000
    outer loop
      vertex  4.669649e+000  8.889124e-001 -3.000000e+000
      vertex  4.521793e+000  6.122935e-001  0.000000e+000
      vertex  4.521793e+000  6.122935e-001 -3.000000e+000
    endloop
  endfacet
  facet normal  9.569404e-001 -2.902847e-001  0.000000e+000
    outer loop
      vertex  4.521793e+000  6.122935e-001 -3.000000e+000
      vertex  4.521793e+000  6.122935e-001  0.000000e+000
      vertex  4.430744e+000  3.121445e-001  0.000000e+000
    endloop
  endfacet
  facet normal  9.569404e-001 -2.902847e-001  0.000000e+000
    outer loop
      vertex  4.521793e+000  6.122935e-001 -3.000000e+000
      vertex  4.430744e+000  3.121445e-001  0.000000e+000
      vertex  4.430744e+000  3.121445e-001 -3.000000e+000
    endloop
  endfacet
  facet normal  9.951847e-001 -9.801729e-002  0.000000e+000
    outer loop
      vertex  4.430744e+000  3.121445e-001 -3.000000e+000
      vertex  4.430744e+000  3.121445e-001  0.000000e+000
      vertex  4.400000e+000  1.959435e-016  0.000000e+000
    endloop
  endfacet
  facet normal  9.951847e-001 -9.801729e-002  0.000000e+000
    outer loop
      vertex  4.430744e+000  3.121445e-001 -3.000000e+000
      vertex  4.400000e+000  1.959435e-016  0.000000e+000
      vertex  4.400000e+000  1.959435e-016 -3.000000e+000
    endloop
  endfacet
  facet normal  9.801736e-002 -9.951847e-001  0.000000e+000
    outer loop
      vertex  5.687856e+000  1.569256e+000  0.000000e+000
      vertex  6.000000e+000  1.600000e+000 -3.000000e+000
      vertex  6.000000e+000  1.600000e+000  0.000000e+000
    endloop
  endfacet
  facet normal -9.801736e-002 -9.951847e-001  -0.000000e+000
    outer loop
      vertex  6.000000e+000  1.600000e+000  0.000000e+000
      vertex  6.000000e+000  1.600000e+000 -3.000000e+000
      vertex  6.312144e+000  1.569256e+000 -3.000000e+000
    endloop
  endfacet
  facet normal -9.801736e-002 -9.951847e-001  0.000000e+000
    outer loop
      vertex  6.000000e+000  1.600000e+000  0.000000e+000
      vertex  6.312144e+000  1.569256e+000 -3.000000e+000
      vertex  6.312144e+000  1.569256e+000  0.000000e+000
    endloop
  endfacet
  facet normal -2.902843e-001 -9.569405e-001  -0.000000e+000
    outer loop
      vertex  6.312144e+000  1.569256e+000  0.000000e+000
      vertex  6.312144e+000  1.569256e+000 -3.000000e+000
      vertex  6.612294e+000  1.478207e+000 -3.000000e+000
    endloop
  endfacet
  facet normal -2.902843e-001 -9.569405e-001  0.000000e+000
    outer loop
      vertex  6.312144e+000  1.569256e+000  0.000000e+000
      vertex  6.612294e+000  1.478207e+000 -3.000000e+000
      vertex  6.612294e+000  1.478207e+000  0.000000e+000
    endloop
  endfacet
  facet normal -4.713973e-001 -8.819209e-001  -0.000000e+000
    outer loop
      vertex  6.612294e+000  1.478207e+000  0.000000e+000
      vertex  6.612294e+000  1.478207e+000 -3.000000e+000
      vertex  6.888912e+000  1.330351e+000 -3.000000e+000
    endloop
  endfacet
  facet normal -4.713973e-001 -8.819209e-001  0.000000e+000
    outer loop
      vertex  6.612294e+000  1.478207e+000  0.000000e+000
      vertex  6.888912e+000  1.330351e+000 -3.000000e+000
      vertex  6.888912e+000  1.330351e+000  0.000000e+000
    endloop
  endfacet
  facet normal -6.343926e-001 -7.730110e-001  -0.000000e+000
    outer loop
      vertex  6.888912e+000  1.330351e+000  0.000000e+000
      vertex  6.888912e+000  1.330351e+000 -3.000000e+000
      vertex  7.131371e+000  1.131371e+000 -3.000000e+000
    endloop
  endfacet
  facet normal -6.343926e-001 -7.730110e-001  0.000000e+000
    outer loop
      vertex  6.888912e+000  1.330351e+000  0.000000e+000
      vertex  7.131371e+000  1.131371e+000 -3.000000e+000
      vertex  7.131371e+000  1.131371e+000  0.000000e+000
    endloop
  endfacet
  facet normal -7.730108e-001 -6.343929e-001  -0.000000e+000
    outer loop
      vertex  7.131371e+000  1.131371e+000  0.000000e+000
      vertex  7.131371e+000  1.131371e+000 -3.000000e+000
      vertex  7.330351e+000  8.889124e-001 -3.000000e+000
    endloop
  endfacet
  facet normal -7.730108e-001 -6.343929e-001  0.000000e+000
    outer loop
      vertex  7.131371e+000  1.131371e+000  0.000000e+000
      vertex  7.330351e+000  8.889124e-001 -3.000000e+000
      vertex  7.330351e+000  8.889124e-001  0.000000e+000
    endloop
  endfacet
  facet normal -8.819215e-001 -4.713965e-001  -0.000000e+000
    outer loop
      vertex  7.330351e+000  8.889124e-001  0.000000e+000
      vertex  7.330351e+000  8.889124e-001 -3.000000e+000
      vertex  7.478207e+000  6.122935e-001 -3.000000e+000
    endloop
  endfacet
  facet normal -8.819215e-001 -4.713965e-001  0.000000e+000
    outer loop
      vertex  7.330351e+000  8.889124e-001  0.000000e+000
      vertex  7.478207e+000  6.122935e-001 -3.000000e+000
      vertex  7.478207e+000  6.122935e-001  0.000000e+000
    endloop
  endfacet
  facet normal -9.569404e-001 -2.902847e-001  -0.000000e+000
    outer loop
      vertex  7.478207e+000  6.122935e-001  0.000000e+000
      vertex  7.478207e+000  6.122935e-001 -3.000000e+000
      vertex  7.569256e+000  3.121445e-001 -3.000000e+000
    endloop
  endfacet
  facet normal -9.569404e-001 -2.902847e-001  0.000000e+000
    outer loop
      vertex  7.478207e+000  6.122935e-001  0.000000e+000
      vertex  7.569256e+000  3.121445e-001 -3.000000e+000
      vertex  7.569256e+000  3.121445e-001  0.000000e+000
    endloop
  endfacet
  facet normal -9.951847e-001 -9.801729e-002  -0.000000e+000
    outer loop
      vertex  7.569256e+000  3.121445e-001  0.000000e+000
      vertex  7.569256e+000  3.121445e-001 -3.000000e+000
      vertex  7.600000e+000  0.000000e+000 -3.000000e+000
    endloop
  endfacet
  facet normal -9.951847e-001 -9.801729e-002  0.000000e+000
    outer loop
      vertex  7.569256e+000  3.121445e-001  0.000000e+000
      vertex  7.600000e+000  0.000000e+000 -3.000000e+000
      vertex  7.600000e+000  0.000000e+000  0.000000e+000
    endloop
  endfacet
  facet normal -9.801736e-002  9.951847e-001  0.000000e+000
    outer loop
      vertex  6.000000e+000 -1.600000e+000 -3.000000e+000
      vertex  6.312144e+000 -1.569256e+000  0.000000e+000
      vertex  6.312144e+000 -1.569256e+000 -3.000000e+000
    endloop
  endfacet
  facet normal -2.902843e-001  9.569405e-001  0.000000e+000
    outer loop
      vertex  6.312144e+000 -1.569256e+000 -3.000000e+000
      vertex  6.312144e+000 -1.569256e+000  0.000000e+000
      vertex  6.612294e+000 -1.478207e+000  0.000000e+000
    endloop
  endfacet
  facet normal -2.902843e-001  9.569405e-001  0.000000e+000
    outer loop
      vertex  6.312144e+000 -1.569256e+000 -3.000000e+000
      vertex  6.612294e+000 -1.478207e+000  0.000000e+000
      vertex  6.612294e+000 -1.478207e+000 -3.000000e+000
    endloop
  endfacet
  facet normal -4.713973e-001  8.819209e-001  0.000000e+000
    outer loop
      vertex  6.612294e+000 -1.478207e+000 -3.000000e+000
      vertex  6.612294e+000 -1.478207e+000  0.000000e+000
      vertex  6.888912e+000 -1.330351e+000  0.000000e+000
    endloop
  endfacet
  facet normal -4.713973e-001  8.819209e-001  0.000000e+000
    outer loop
      vertex  6.612294e+000 -1.478207e+000 -3.000000e+000
      vertex  6.888912e+000 -1.330351e+000  0.000000e+000
      vertex  6.888912e+000 -1.330351e+000 -3.000000e+000
    endloop
  endfacet
  facet normal -6.343926e-001  7.730110e-001  0.000000e+000
    outer loop
      vertex  6.888912e+000 -1.330351e+000 -3.000000e+000
      vertex  6.888912e+000 -1.330351e+000  0.000000e+000
      vertex  7.131371e+000 -1.131371e+000  0.000000e+000
    endloop
  endfacet
  facet normal -6.343926e-001  7.730110e-001  0.000000e+000
    outer loop
      vertex  6.888912e+000 -1.330351e+000 -3.000000e+000
      vertex  7.131371e+000 -1.131371e+000  0.000000e+000
      vertex  7.131371e+000 -1.131371e+000 -3.000000e+000
    endloop
  endfacet
  facet normal -7.730108e-001  6.343929e-001  0.000000e+000
    outer loop
      vertex  7.131371e+000 -1.131371e+000 -3.000000e+000
      vertex  7.131371e+000 -1.131371e+000  0.000000e+000
      vertex  7.330351e+000 -8.889124e-001  0.000000e+000
    endloop
  endfacet
  facet normal -7.730108e-001  6.343929e-001  0.000000e+000
    outer loop
      vertex  7.131371e+000 -1.131371e+000 -3.000000e+000
      vertex  7.330351e+000 -8.889124e-001  0.000000e+000
      vertex  7.330351e+000 -8.889124e-001 -3.000000e+000
    endloop
  endfacet
  facet normal -8.819215e-001  4.713965e-001  0.000000e+000
    outer loop
      vertex  7.330351e+000 -8.889124e-001 -3.000000e+000
      vertex  7.330351e+000 -8.889124e-001  0.000000e+000
      vertex  7.478207e+000 -6.122935e-001  0.000000e+000
    endloop
  endfacet
  facet normal -8.819215e-001  4.713965e-001  0.000000e+000
    outer loop
      vertex  7.330351e+000 -8.889124e-001 -3.000000e+000
      vertex  7.478207e+000 -6.122935e-001  0.000000e+000
      vertex  7.478207e+000 -6.122935e-001 -3.000000e+000
    endloop
  endfacet
  facet normal -9.569404e-001  2.902847e-001  0.000000e+000
    outer loop
      vertex  7.478207e+000 -6.122935e-001 -3.000000e+000
      vertex  7.478207e+000 -6.122935e-001  0.000000e+000
      vertex  7.569256e+000 -3.121445e-001  0.000000e+000
    endloop
  endfacet
  facet normal -9.569404e-001  2.902847e-001  0.000000e+000
    outer loop
      vertex  7.478207e+000 -6.122935e-001 -3.000000e+000
      vertex  7.569256e+000 -3.121445e-001  0.000000e+000
      vertex  7.569256e+000 -3.121445e-001 -3.000000e+000
    endloop
  endfacet
  facet normal -9.951847e-001  9.801729e-002  0.000000e+000
    outer loop
      vertex  7.569256e+000 -3.121445e-001 -3.000000e+000
      vertex  7.569256e+000 -3.121445e-001  0.000000e+000
      vertex  7.600000e+000  0.000000e+000  0.000000e+000
    endloop
  endfacet
  facet normal -9.951847e-001  9.801729e-002  0.000000e+000
    outer loop
      vertex  7.569256e+000 -3.121445e-001 -3.000000e+000
      vertex  7.600000e+000  0.000000e+000  0.000000e+000
      vertex  7.600000e+000  0.000000e+000 -3.000000e+000
    endloop
  endfacet
  facet normal -9.801736e-002  9.951847e-001  0.000000e+000
    outer loop
      vertex  6.312144e+000 -1.569256e+000  0.000000e+000
      vertex  6.000000e+000 -1.600000e+000 -3.000000e+000
      vertex  6.000000e+000 -1.600000e+000  0.000000e+000
    endloop
  endfacet
  facet normal  9.801736e-002  9.951847e-001  0.000000e+000
    outer loop
      vertex  6.000000e+000 -1.600000e+000  0.000000e+000
      vertex  6.000000e+000 -1.600000e+000 -3.000000e+000
      vertex  5.687856e+000 -1.569256e+000 -3.000000e+000
    endloop
  endfacet
  facet normal  9.801736e-002  9.951847e-001  -0.000000e+000
    outer loop
      vertex  6.000000e+000 -1.600000e+000  0.000000e+000
      vertex  5.687856e+000 -1.569256e+000 -3.000000e+000
      vertex  5.687856e+000 -1.569256e+000  0.000000e+000
    endloop
  endfacet
  facet normal  2.902843e-001  9.569405e-001  0.000000e+000
    outer loop
      vertex  5.687856e+000 -1.569256e+000  0.000000e+000
      vertex  5.687856e+000 -1.569256e+000 -3.000000e+000
      vertex  5.387706e+000 -1.478207e+000 -3.000000e+000
    endloop
  endfacet
  facet normal  2.902843e-001  9.569405e-001  -0.000000e+000
    outer loop
      vertex  5.687856e+000 -1.569256e+000  0.000000e+000
      vertex  5.387706e+000 -1.478207e+000 -3.000000e+000
      vertex  5.387706e+000 -1.478207e+000  0.000000e+000
    endloop
  endfacet
  facet normal  4.713973e-001  8.819209e-001  0.000000e+000
    outer loop
      vertex  5.387706e+000 -1.478207e+000  0.000000e+000
      vertex  5.387706e+000 -1.478207e+000 -3.000000e+000
      vertex  5.111088e+000 -1.330351e+000 -3.000000e+000
    endloop
  endfacet
  facet normal  4.713973e-001  8.819209e-001  -0.000000e+000
    outer loop
      vertex  5.387706e+000 -1.478207e+000  0.000000e+000
      vertex  5.111088e+000 -1.330351e+000 -3.000000e+000
      vertex  5.111088e+000 -1.330351e+000  0.000000e+000
    endloop
  endfacet
  facet normal  6.343926e-001  7.730110e-001  0.000000e+000
    outer loop
      vertex  5.111088e+000 -1.330351e+000  0.000000e+000
      vertex  5.111088e+000 -1.330351e+000 -3.000000e+000
      vertex  4.868629e+000 -1.131371e+000 -3.000000e+000
    endloop
  endfacet
  facet normal  6.343926e-001  7.730110e-001  -0.000000e+000
    outer loop
      vertex  5.111088e+000 -1.330351e+000  0.000000e+000
      vertex  4.868629e+000 -1.131371e+000 -3.000000e+000
      vertex  4.868629e+000 -1.131371e+000  0.000000e+000
    endloop
  endfacet
  facet normal  7.730108e-001  6.343929e-001  0.000000e+000
    outer loop
      vertex  4.868629e+000 -1.131371e+000  0.000000e+000
      vertex  4.868629e+000 -1.131371e+000 -3.000000e+000
      vertex  4.669649e+000 -8.889124e-001 -3.000000e+000
    endloop
  endfacet
  facet normal  7.730108e-001  6.343929e-001  -0.000000e+000
    outer loop
      vertex  4.868629e+000 -1.131371e+000  0.000000e+000
      vertex  4.669649e+000 -8.889124e-001 -3.000000e+000
      vertex  4.669649e+000 -8.889124e-001  0.000000e+000
    endloop
  endfacet
  facet normal  8.819215e-001  4.713965e-001  0.000000e+000
    outer loop
      vertex  4.669649e+000 -8.889124e-001  0.000000e+000
      vertex  4.669649e+000 -8.889124e-001 -3.000000e+000
      vertex  4.521793e+000 -6.122935e-001 -3.000000e+000
    endloop
  endfacet
  facet normal  8.819215e-001  4.713965e-001  -0.000000e+000
    outer loop
      vertex  4.669649e+000 -8.889124e-001  0.000000e+000
      vertex  4.521793e+000 -6.122935e-001 -3.000000e+000
      vertex  4.521793e+000 -6.122935e-001  0.000000e+000
    endloop
  endfacet
  facet normal  9.569404e-001  2.902847e-001  0.000000e+000
    outer loop
      vertex  4.521793e+000 -6.122935e-001  0.000000e+000
      vertex  4.521793e+000 -6.122935e-001 -3.000000e+000
      vertex  4.430744e+000 -3.121445e-001 -3.000000e+000
    endloop
  endfacet
  facet normal  9.569404e-001  2.902847e-001  -0.000000e+000
    outer loop
      vertex  4.521793e+000 -6.122935e-001  0.000000e+000
      vertex  4.430744e+000 -3.121445e-001 -3.000000e+000
      vertex  4.430744e+000 -3.121445e-001  0.000000e+000
    endloop
  endfacet
  facet normal  9.951847e-001  9.801729e-002  0.000000e+000
    outer loop
      vertex  4.430744e+000 -3.121445e-001  0.000000e+000
      vertex  4.430744e+000 -3.121445e-001 -3.000000e+000
      vertex  4.400000e+000  1.959435e-016 -3.000000e+000
    endloop
  endfacet
  facet normal  9.951847e-001  9.801729e-002  -0.000000e+000
    outer loop
      vertex  4.430744e+000 -3.121445e-001  0.000000e+000
      vertex  4.400000e+000  1.959435e-016 -3.000000e+000
      vertex  4.400000e+000  1.959435e-016  0.000000e+000
    endloop
  endfacet
  facet normal  0.000000e+000  1.000000e+000  0.000000e+000
    outer loop
      vertex -9.000000e+000  3.000000e+000 -3.000000e+000
      vertex -9.000000e+000  3.000000e+000  0.000000e+000
      vertex  9.000000e+000  3.000000e+000 -3.000000e+000
    endloop
  endfacet
  facet normal  0.000000e+000  1.000000e+000  -0.000000e+000
    outer loop
      vertex  9.000000e+000  3.000000e+000 -3.000000e+000
      vertex -9.000000e+000  3.000000e+000  0.000000e+000
      vertex  9.000000e+000  3.000000e+000  0.000000e+000
    endloop
  endfacet
  facet normal  1.000000e+000  0.000000e+000  0.000000e+000
    outer loop
      vertex  9.000000e+000 -3.000000e+000 -3.000000e+000
      vertex  9.000000e+000  3.000000e+000 -3.000000e+000
      vertex  9.000000e+000 -3.000000e+000  0.000000e+000
    endloop
  endfacet
  facet normal  1.000000e+000  -0.000000e+000  0.000000e+000
    outer loop
      vertex  9.000000e+000 -3.000000e+000  0.000000e+000
      vertex  9.000000e+000  3.000000e+000 -3.000000e+000
      vertex  9.000000e+000  3.000000e+000  0.000000e+000
    endloop
  endfacet
  facet normal  0.000000e+000 -1.000000e+000  -0.000000e+000
    outer loop
      vertex  9.000000e+000 -3.000000e+000 -3.000000e+000
      vertex  9.000000e+000 -3.000000e+000  0.000000e+000
      vertex -9.000000e+000 -3.000000e+000 -3.000000e+000
    endloop
  endfacet
  facet normal  0.000000e+000 -1.000000e+000  0.000000e+000
    outer loop
      vertex -9.000000e+000 -3.000000e+000 -3.000000e+000
      vertex  9.000000e+000 -3.000000e+000  0.000000e+000
      vertex -9.000000e+000 -3.000000e+000  0.000000e+000
    endloop
  endfacet
  facet normal -1.000000e+000  0.000000e+000  0.000000e+000
    outer loop
      vertex -9.000000e+000  3.000000e+000 -3.000000e+000
      vertex -9.000000e+000 -3.000000e+000 -3.000000e+000
      vertex -9.000000e+000  3.000000e+000  0.000000e+000
    endloop
  endfacet
  facet normal -1.000000e+000  -0.000000e+000  0.000000e+000
    outer loop
      vertex -9.000000e+000  3.000000e+000  0.000000e+000
      vertex -9.000000e+000 -3.000000e+000 -3.000000e+000
      vertex -9.000000e+000 -3.000000e+000  0.000000e+000
    endloop
  endfacet
  facet normal  0.000000e+000  0.000000e+000  1.000000e+000
    outer loop
      vertex -1.450000e+000 -1.450000e+000  7.800000e+000
      vertex  1.450000e+000 -1.450000e+000  7.800000e+000
      vertex -1.450000e+000  1.450000e+000  7.800000e+000
    endloop
  endfacet
  facet normal  -0.000000e+000  0.000000e+000  1.000000e+000
    outer loop
      vertex -1.450000e+000  1.450000e+000  7.800000e+000
      vertex  1.450000e+000 -1.450000e+000  7.800000e+000
      vertex  1.450000e+000  1.450000e+000  7.800000e+000
    endloop
  endfacet
endsolid CATIA STL
