solid CATIA STL
  facet normal  0.000000e+000  4.905818e-002  9.987959e-001
    outer loop
      vertex -8.000000e-001 -7.000000e+000  2.280000e+001
      vertex  8.000000e-001 -7.000000e+000  2.280000e+001
      vertex -8.000000e-001 -6.235466e+000  2.276245e+001
    endloop
  endfacet
  facet normal  -0.000000e+000  4.905818e-002  9.987959e-001
    outer loop
      vertex -8.000000e-001 -6.235466e+000  2.276245e+001
      vertex  8.000000e-001 -7.000000e+000  2.280000e+001
      vertex  8.000000e-001 -6.235466e+000  2.276245e+001
    endloop
  endfacet
  facet normal  0.000000e+000  1.467285e-001  9.891768e-001
    outer loop
      vertex -8.000000e-001 -6.235466e+000  2.276245e+001
      vertex  8.000000e-001 -6.235466e+000  2.276245e+001
      vertex -8.000000e-001 -5.478294e+000  2.265013e+001
    endloop
  endfacet
  facet normal  -0.000000e+000  1.467285e-001  9.891768e-001
    outer loop
      vertex -8.000000e-001 -5.478294e+000  2.265013e+001
      vertex  8.000000e-001 -6.235466e+000  2.276245e+001
      vertex  8.000000e-001 -5.478294e+000  2.265013e+001
    endloop
  endfacet
  facet normal  0.000000e+000  2.429809e-001  9.700311e-001
    outer loop
      vertex -8.000000e-001 -5.478294e+000  2.265013e+001
      vertex  8.000000e-001 -5.478294e+000  2.265013e+001
      vertex -8.000000e-001 -4.735777e+000  2.246414e+001
    endloop
  endfacet
  facet normal  -0.000000e+000  2.429809e-001  9.700311e-001
    outer loop
      vertex -8.000000e-001 -4.735777e+000  2.246414e+001
      vertex  8.000000e-001 -5.478294e+000  2.265013e+001
      vertex  8.000000e-001 -4.735777e+000  2.246414e+001
    endloop
  endfacet
  facet normal  0.000000e+000  3.368886e-001  9.415445e-001
    outer loop
      vertex -8.000000e-001 -4.735777e+000  2.246414e+001
      vertex  8.000000e-001 -4.735777e+000  2.246414e+001
      vertex -8.000000e-001 -4.015066e+000  2.220627e+001
    endloop
  endfacet
  facet normal  -0.000000e+000  3.368886e-001  9.415445e-001
    outer loop
      vertex -8.000000e-001 -4.015066e+000  2.220627e+001
      vertex  8.000000e-001 -4.735777e+000  2.246414e+001
      vertex  8.000000e-001 -4.015066e+000  2.220627e+001
    endloop
  endfacet
  facet normal  0.000000e+000  4.275547e-001  9.039896e-001
    outer loop
      vertex -8.000000e-001 -4.015066e+000  2.220627e+001
      vertex  8.000000e-001 -4.015066e+000  2.220627e+001
      vertex -8.000000e-001 -3.323102e+000  2.187899e+001
    endloop
  endfacet
  facet normal  -0.000000e+000  4.275547e-001  9.039896e-001
    outer loop
      vertex -8.000000e-001 -3.323102e+000  2.187899e+001
      vertex  8.000000e-001 -4.015066e+000  2.220627e+001
      vertex  8.000000e-001 -3.323102e+000  2.187899e+001
    endloop
  endfacet
  facet normal  0.000000e+000  5.141035e-001  8.577281e-001
    outer loop
      vertex -8.000000e-001 -3.323102e+000  2.187899e+001
      vertex  8.000000e-001 -3.323102e+000  2.187899e+001
      vertex -8.000000e-001 -2.666548e+000  2.148547e+001
    endloop
  endfacet
  facet normal  -0.000000e+000  5.141035e-001  8.577281e-001
    outer loop
      vertex -8.000000e-001 -2.666548e+000  2.148547e+001
      vertex  8.000000e-001 -3.323102e+000  2.187899e+001
      vertex  8.000000e-001 -2.666548e+000  2.148547e+001
    endloop
  endfacet
  facet normal  0.000000e+000  5.956995e-001  8.032074e-001
    outer loop
      vertex -8.000000e-001 -2.666548e+000  2.148547e+001
      vertex  8.000000e-001 -2.666548e+000  2.148547e+001
      vertex -8.000000e-001 -2.051728e+000  2.102949e+001
    endloop
  endfacet
  facet normal  -0.000000e+000  5.956995e-001  8.032074e-001
    outer loop
      vertex -8.000000e-001 -2.051728e+000  2.102949e+001
      vertex  8.000000e-001 -2.666548e+000  2.148547e+001
      vertex  8.000000e-001 -2.051728e+000  2.102949e+001
    endloop
  endfacet
  facet normal  0.000000e+000  6.715578e-001  7.409522e-001
    outer loop
      vertex -8.000000e-001 -2.051728e+000  2.102949e+001
      vertex  8.000000e-001 -2.051728e+000  2.102949e+001
      vertex -8.000000e-001 -1.484562e+000  2.051544e+001
    endloop
  endfacet
  facet normal  -0.000000e+000  6.715578e-001  7.409522e-001
    outer loop
      vertex -8.000000e-001 -1.484562e+000  2.051544e+001
      vertex  8.000000e-001 -2.051728e+000  2.102949e+001
      vertex  8.000000e-001 -1.484562e+000  2.051544e+001
    endloop
  endfacet
  facet normal  0.000000e+000  7.409508e-001  6.715593e-001
    outer loop
      vertex -8.000000e-001 -1.484562e+000  2.051544e+001
      vertex  8.000000e-001 -1.484562e+000  2.051544e+001
      vertex -8.000000e-001 -9.705124e-001  1.994827e+001
    endloop
  endfacet
  facet normal  -0.000000e+000  7.409508e-001  6.715593e-001
    outer loop
      vertex -8.000000e-001 -9.705124e-001  1.994827e+001
      vertex  8.000000e-001 -1.484562e+000  2.051544e+001
      vertex  8.000000e-001 -9.705124e-001  1.994827e+001
    endloop
  endfacet
  facet normal  0.000000e+000  8.032075e-001  5.956993e-001
    outer loop
      vertex -8.000000e-001 -9.705124e-001  1.994827e+001
      vertex  8.000000e-001 -9.705124e-001  1.994827e+001
      vertex -8.000000e-001 -5.145304e-001  1.933345e+001
    endloop
  endfacet
  facet normal  -0.000000e+000  8.032075e-001  5.956993e-001
    outer loop
      vertex -8.000000e-001 -5.145304e-001  1.933345e+001
      vertex  8.000000e-001 -9.705124e-001  1.994827e+001
      vertex  8.000000e-001 -5.145304e-001  1.933345e+001
    endloop
  endfacet
  facet normal  0.000000e+000  8.577291e-001  5.141021e-001
    outer loop
      vertex -8.000000e-001 -5.145304e-001  1.933345e+001
      vertex  8.000000e-001 -5.145304e-001  1.933345e+001
      vertex -8.000000e-001 -1.210071e-001  1.867690e+001
    endloop
  endfacet
  facet normal  -0.000000e+000  8.577291e-001  5.141021e-001
    outer loop
      vertex -8.000000e-001 -1.210071e-001  1.867690e+001
      vertex  8.000000e-001 -5.145304e-001  1.933345e+001
      vertex  8.000000e-001 -1.210071e-001  1.867690e+001
    endloop
  endfacet
  facet normal  0.000000e+000  9.039890e-001  4.275558e-001
    outer loop
      vertex -8.000000e-001 -1.210071e-001  1.867690e+001
      vertex  8.000000e-001 -1.210071e-001  1.867690e+001
      vertex -8.000000e-001  2.062678e-001  1.798493e+001
    endloop
  endfacet
  facet normal  -0.000000e+000  9.039890e-001  4.275558e-001
    outer loop
      vertex -8.000000e-001  2.062678e-001  1.798493e+001
      vertex  8.000000e-001 -1.210071e-001  1.867690e+001
      vertex  8.000000e-001  2.062678e-001  1.798493e+001
    endloop
  endfacet
  facet normal  0.000000e+000  9.415441e-001  3.368900e-001
    outer loop
      vertex -8.000000e-001  2.062678e-001  1.798493e+001
      vertex  8.000000e-001  2.062678e-001  1.798493e+001
      vertex -8.000000e-001  4.641424e-001  1.726422e+001
    endloop
  endfacet
  facet normal  -0.000000e+000  9.415441e-001  3.368900e-001
    outer loop
      vertex -8.000000e-001  4.641424e-001  1.726422e+001
      vertex  8.000000e-001  2.062678e-001  1.798493e+001
      vertex  8.000000e-001  4.641424e-001  1.726422e+001
    endloop
  endfacet
  facet normal  0.000000e+000  9.700313e-001  2.429800e-001
    outer loop
      vertex -8.000000e-001  4.641424e-001  1.726422e+001
      vertex  8.000000e-001  4.641424e-001  1.726422e+001
      vertex -8.000000e-001  6.501331e-001  1.652171e+001
    endloop
  endfacet
  facet normal  -0.000000e+000  9.700313e-001  2.429800e-001
    outer loop
      vertex -8.000000e-001  6.501331e-001  1.652171e+001
      vertex  8.000000e-001  4.641424e-001  1.726422e+001
      vertex  8.000000e-001  6.501331e-001  1.652171e+001
    endloop
  endfacet
  facet normal  0.000000e+000  9.891765e-001  1.467305e-001
    outer loop
      vertex -8.000000e-001  6.501331e-001  1.652171e+001
      vertex  8.000000e-001  6.501331e-001  1.652171e+001
      vertex -8.000000e-001  7.624490e-001  1.576453e+001
    endloop
  endfacet
  facet normal  -0.000000e+000  9.891765e-001  1.467305e-001
    outer loop
      vertex -8.000000e-001  7.624490e-001  1.576453e+001
      vertex  8.000000e-001  6.501331e-001  1.652171e+001
      vertex  8.000000e-001  7.624490e-001  1.576453e+001
    endloop
  endfacet
  facet normal  0.000000e+000  9.987959e-001  4.905711e-002
    outer loop
      vertex -8.000000e-001  7.624490e-001  1.576453e+001
      vertex  8.000000e-001  7.624490e-001  1.576453e+001
      vertex -8.000000e-001  8.000000e-001  1.500000e+001
    endloop
  endfacet
  facet normal  -0.000000e+000  9.987959e-001  4.905711e-002
    outer loop
      vertex -8.000000e-001  8.000000e-001  1.500000e+001
      vertex  8.000000e-001  7.624490e-001  1.576453e+001
      vertex  8.000000e-001  8.000000e-001  1.500000e+001
    endloop
  endfacet
  facet normal  0.000000e+000  0.000000e+000  1.000000e+000
    outer loop
      vertex -8.000000e-001 -4.200000e+000  3.000000e+000
      vertex  2.000000e+000 -4.200000e+000  3.000000e+000
      vertex -8.000000e-001 -8.000000e-001  3.000000e+000
    endloop
  endfacet
  facet normal  -0.000000e+000  0.000000e+000  1.000000e+000
    outer loop
      vertex -8.000000e-001 -8.000000e-001  3.000000e+000
      vertex  2.000000e+000 -4.200000e+000  3.000000e+000
      vertex  8.000000e-001 -8.000000e-001  3.000000e+000
    endloop
  endfacet
  facet normal  0.000000e+000  0.000000e+000  1.000000e+000
    outer loop
      vertex  2.000000e+000 -4.200000e+000  3.000000e+000
      vertex  2.000000e+000  8.000000e-001  3.000000e+000
      vertex  8.000000e-001 -8.000000e-001  3.000000e+000
    endloop
  endfacet
  facet normal  0.000000e+000  0.000000e+000  1.000000e+000
    outer loop
      vertex  8.000000e-001 -8.000000e-001  3.000000e+000
      vertex  2.000000e+000  8.000000e-001  3.000000e+000
      vertex  8.000000e-001  8.000000e-001  3.000000e+000
    endloop
  endfacet
  facet normal  -0.000000e+000  0.000000e+000 -1.000000e+000
    outer loop
      vertex -8.000000e-001  8.000000e-001 -5.000000e+000
      vertex  2.000000e+000  8.000000e-001 -5.000000e+000
      vertex -8.000000e-001 -4.200000e+000 -5.000000e+000
    endloop
  endfacet
  facet normal  0.000000e+000  0.000000e+000 -1.000000e+000
    outer loop
      vertex -8.000000e-001 -4.200000e+000 -5.000000e+000
      vertex  2.000000e+000  8.000000e-001 -5.000000e+000
      vertex  2.000000e+000 -4.200000e+000 -5.000000e+000
    endloop
  endfacet
  facet normal  0.000000e+000  1.000000e+000  0.000000e+000
    outer loop
      vertex  2.000000e+000  8.000000e-001  3.000000e+000
      vertex -4.000000e-001  8.000000e-001  2.500000e+000
      vertex  8.000000e-001  8.000000e-001  3.000000e+000
    endloop
  endfacet
  facet normal  0.000000e+000  1.000000e+000  0.000000e+000
    outer loop
      vertex  8.000000e-001  8.000000e-001  3.000000e+000
      vertex -4.000000e-001  8.000000e-001  2.500000e+000
      vertex -8.000000e-001  8.000000e-001  1.500000e+001
    endloop
  endfacet
  facet normal  -0.000000e+000  1.000000e+000  0.000000e+000
    outer loop
      vertex  8.000000e-001  8.000000e-001  3.000000e+000
      vertex -8.000000e-001  8.000000e-001  1.500000e+001
      vertex  8.000000e-001  8.000000e-001  1.500000e+001
    endloop
  endfacet
  facet normal  0.000000e+000  1.000000e+000  0.000000e+000
    outer loop
      vertex -4.000000e-001  8.000000e-001  2.500000e+000
      vertex  2.000000e+000  8.000000e-001  3.000000e+000
      vertex  1.700000e+000  8.000000e-001  2.500000e+000
    endloop
  endfacet
  facet normal  -0.000000e+000  1.000000e+000  0.000000e+000
    outer loop
      vertex  1.700000e+000  8.000000e-001  2.500000e+000
      vertex  2.000000e+000  8.000000e-001  3.000000e+000
      vertex  2.000000e+000  8.000000e-001 -5.000000e+000
    endloop
  endfacet
  facet normal  0.000000e+000  1.000000e+000  0.000000e+000
    outer loop
      vertex  1.700000e+000  8.000000e-001  2.500000e+000
      vertex  2.000000e+000  8.000000e-001 -5.000000e+000
      vertex  1.700000e+000  8.000000e-001  4.000000e-001
    endloop
  endfacet
  facet normal  0.000000e+000  1.000000e+000  0.000000e+000
    outer loop
      vertex  1.700000e+000  8.000000e-001  4.000000e-001
      vertex  2.000000e+000  8.000000e-001 -5.000000e+000
      vertex -8.000000e-001  8.000000e-001 -5.000000e+000
    endloop
  endfacet
  facet normal  0.000000e+000  1.000000e+000  0.000000e+000
    outer loop
      vertex  1.700000e+000  8.000000e-001  4.000000e-001
      vertex -8.000000e-001  8.000000e-001 -5.000000e+000
      vertex -4.000000e-001  8.000000e-001  4.000000e-001
    endloop
  endfacet
  facet normal  0.000000e+000  1.000000e+000  0.000000e+000
    outer loop
      vertex -4.000000e-001  8.000000e-001  4.000000e-001
      vertex -8.000000e-001  8.000000e-001 -5.000000e+000
      vertex -8.000000e-001  8.000000e-001  1.500000e+001
    endloop
  endfacet
  facet normal  0.000000e+000  1.000000e+000  0.000000e+000
    outer loop
      vertex -4.000000e-001  8.000000e-001  4.000000e-001
      vertex -8.000000e-001  8.000000e-001  1.500000e+001
      vertex -4.000000e-001  8.000000e-001  2.500000e+000
    endloop
  endfacet
  facet normal  1.000000e+000  0.000000e+000  0.000000e+000
    outer loop
      vertex  2.000000e+000  8.000000e-001 -5.000000e+000
      vertex  2.000000e+000  8.000000e-001  3.000000e+000
      vertex  2.000000e+000 -4.200000e+000 -5.000000e+000
    endloop
  endfacet
  facet normal  1.000000e+000  0.000000e+000  0.000000e+000
    outer loop
      vertex  2.000000e+000 -4.200000e+000 -5.000000e+000
      vertex  2.000000e+000  8.000000e-001  3.000000e+000
      vertex  2.000000e+000 -4.200000e+000  3.000000e+000
    endloop
  endfacet
  facet normal  0.000000e+000 -1.000000e+000  0.000000e+000
    outer loop
      vertex -8.000000e-001 -4.200000e+000 -5.000000e+000
      vertex  2.000000e+000 -4.200000e+000 -5.000000e+000
      vertex  1.700000e+000 -4.200000e+000  4.000000e-001
    endloop
  endfacet
  facet normal  -0.000000e+000 -1.000000e+000  0.000000e+000
    outer loop
      vertex -8.000000e-001 -4.200000e+000 -5.000000e+000
      vertex  1.700000e+000 -4.200000e+000  4.000000e-001
      vertex -4.000000e-001 -4.200000e+000  4.000000e-001
    endloop
  endfacet
  facet normal  -0.000000e+000 -9.999999e-001  0.000000e+000
    outer loop
      vertex -8.000000e-001 -4.200000e+000 -5.000000e+000
      vertex -4.000000e-001 -4.200000e+000  4.000000e-001
      vertex -4.000000e-001 -4.200000e+000  2.500000e+000
    endloop
  endfacet
  facet normal  -0.000000e+000 -1.000000e+000  0.000000e+000
    outer loop
      vertex -8.000000e-001 -4.200000e+000 -5.000000e+000
      vertex -4.000000e-001 -4.200000e+000  2.500000e+000
      vertex -8.000000e-001 -4.200000e+000  3.000000e+000
    endloop
  endfacet
  facet normal  0.000000e+000 -1.000000e+000  0.000000e+000
    outer loop
      vertex  1.700000e+000 -4.200000e+000  4.000000e-001
      vertex  2.000000e+000 -4.200000e+000 -5.000000e+000
      vertex  1.700000e+000 -4.200000e+000  2.500000e+000
    endloop
  endfacet
  facet normal  0.000000e+000 -1.000000e+000  0.000000e+000
    outer loop
      vertex  1.700000e+000 -4.200000e+000  2.500000e+000
      vertex  2.000000e+000 -4.200000e+000 -5.000000e+000
      vertex  2.000000e+000 -4.200000e+000  3.000000e+000
    endloop
  endfacet
  facet normal  0.000000e+000 -1.000000e+000  0.000000e+000
    outer loop
      vertex  1.700000e+000 -4.200000e+000  2.500000e+000
      vertex  2.000000e+000 -4.200000e+000  3.000000e+000
      vertex -4.000000e-001 -4.200000e+000  2.500000e+000
    endloop
  endfacet
  facet normal  0.000000e+000 -1.000000e+000  0.000000e+000
    outer loop
      vertex -4.000000e-001 -4.200000e+000  2.500000e+000
      vertex  2.000000e+000 -4.200000e+000  3.000000e+000
      vertex -8.000000e-001 -4.200000e+000  3.000000e+000
    endloop
  endfacet
  facet normal -1.000000e+000  0.000000e+000  0.000000e+000
    outer loop
      vertex -8.000000e-001 -9.705124e-001  1.994827e+001
      vertex -8.000000e-001 -3.134356e+000  1.984736e+001
      vertex -8.000000e-001 -3.701395e+000  2.024970e+001
    endloop
  endfacet
  facet normal -1.000000e+000  0.000000e+000  0.000000e+000
    outer loop
      vertex -8.000000e-001 -7.000000e+000  2.120000e+001
      vertex -8.000000e-001 -7.000000e+000  2.280000e+001
      vertex -8.000000e-001 -6.235466e+000  2.276245e+001
    endloop
  endfacet
  facet normal -1.000000e+000  0.000000e+000  -0.000000e+000
    outer loop
      vertex -8.000000e-001 -7.000000e+000  2.120000e+001
      vertex -8.000000e-001 -6.235466e+000  2.276245e+001
      vertex -8.000000e-001 -5.478294e+000  2.265013e+001
    endloop
  endfacet
  facet normal -1.000000e+000  0.000000e+000  -0.000000e+000
    outer loop
      vertex -8.000000e-001 -7.000000e+000  2.120000e+001
      vertex -8.000000e-001 -5.478294e+000  2.265013e+001
      vertex -8.000000e-001 -4.735777e+000  2.246414e+001
    endloop
  endfacet
  facet normal -1.000000e+000  0.000000e+000  -0.000000e+000
    outer loop
      vertex -8.000000e-001 -7.000000e+000  2.120000e+001
      vertex -8.000000e-001 -4.735777e+000  2.246414e+001
      vertex -8.000000e-001 -4.015066e+000  2.220627e+001
    endloop
  endfacet
  facet normal -1.000000e+000  0.000000e+000  -0.000000e+000
    outer loop
      vertex -8.000000e-001 -7.000000e+000  2.120000e+001
      vertex -8.000000e-001 -4.015066e+000  2.220627e+001
      vertex -8.000000e-001 -3.323102e+000  2.187899e+001
    endloop
  endfacet
  facet normal -1.000000e+000  0.000000e+000  -0.000000e+000
    outer loop
      vertex -8.000000e-001 -7.000000e+000  2.120000e+001
      vertex -8.000000e-001 -3.323102e+000  2.187899e+001
      vertex -8.000000e-001 -2.666548e+000  2.148547e+001
    endloop
  endfacet
  facet normal -1.000000e+000  0.000000e+000  -0.000000e+000
    outer loop
      vertex -8.000000e-001 -7.000000e+000  2.120000e+001
      vertex -8.000000e-001 -2.666548e+000  2.148547e+001
      vertex -8.000000e-001 -2.051728e+000  2.102949e+001
    endloop
  endfacet
  facet normal -1.000000e+000  0.000000e+000  0.000000e+000
    outer loop
      vertex -8.000000e-001 -7.000000e+000  2.120000e+001
      vertex -8.000000e-001 -2.051728e+000  2.102949e+001
      vertex -8.000000e-001 -6.305819e+000  2.116102e+001
    endloop
  endfacet
  facet normal -9.999999e-001  0.000000e+000  0.000000e+000
    outer loop
      vertex -8.000000e-001 -6.305819e+000  2.116102e+001
      vertex -8.000000e-001 -2.051728e+000  2.102949e+001
      vertex -8.000000e-001 -5.620368e+000  2.104456e+001
    endloop
  endfacet
  facet normal -1.000000e+000  0.000000e+000  0.000000e+000
    outer loop
      vertex -8.000000e-001 -5.620368e+000  2.104456e+001
      vertex -8.000000e-001 -2.051728e+000  2.102949e+001
      vertex -8.000000e-001 -1.484562e+000  2.051544e+001
    endloop
  endfacet
  facet normal -9.999999e-001  0.000000e+000  0.000000e+000
    outer loop
      vertex -8.000000e-001 -5.620368e+000  2.104456e+001
      vertex -8.000000e-001 -1.484562e+000  2.051544e+001
      vertex -8.000000e-001 -4.952266e+000  2.085208e+001
    endloop
  endfacet
  facet normal -1.000000e+000  0.000000e+000  0.000000e+000
    outer loop
      vertex -8.000000e-001 -4.952266e+000  2.085208e+001
      vertex -8.000000e-001 -1.484562e+000  2.051544e+001
      vertex -8.000000e-001 -4.309916e+000  2.058601e+001
    endloop
  endfacet
  facet normal -1.000000e+000  0.000000e+000  0.000000e+000
    outer loop
      vertex -8.000000e-001 -4.309916e+000  2.058601e+001
      vertex -8.000000e-001 -1.484562e+000  2.051544e+001
      vertex -8.000000e-001 -9.705124e-001  1.994827e+001
    endloop
  endfacet
  facet normal -1.000000e+000  0.000000e+000  0.000000e+000
    outer loop
      vertex -8.000000e-001 -4.309916e+000  2.058601e+001
      vertex -8.000000e-001 -9.705124e-001  1.994827e+001
      vertex -8.000000e-001 -3.701395e+000  2.024970e+001
    endloop
  endfacet
  facet normal -1.000000e+000  0.000000e+000  0.000000e+000
    outer loop
      vertex -8.000000e-001 -1.413984e+000  1.769008e+001
      vertex -8.000000e-001 -1.750301e+000  1.829860e+001
      vertex -8.000000e-001  2.062678e-001  1.798493e+001
    endloop
  endfacet
  facet normal -1.000000e+000  0.000000e+000  0.000000e+000
    outer loop
      vertex -8.000000e-001  2.062678e-001  1.798493e+001
      vertex -8.000000e-001 -1.750301e+000  1.829860e+001
      vertex -8.000000e-001 -2.152636e+000  1.886564e+001
    endloop
  endfacet
  facet normal -1.000000e+000  0.000000e+000  0.000000e+000
    outer loop
      vertex -8.000000e-001  2.062678e-001  1.798493e+001
      vertex -8.000000e-001 -2.152636e+000  1.886564e+001
      vertex -8.000000e-001 -1.210071e-001  1.867690e+001
    endloop
  endfacet
  facet normal -1.000000e+000  0.000000e+000  0.000000e+000
    outer loop
      vertex -8.000000e-001 -1.210071e-001  1.867690e+001
      vertex -8.000000e-001 -2.152636e+000  1.886564e+001
      vertex -8.000000e-001 -2.615930e+000  1.938407e+001
    endloop
  endfacet
  facet normal -1.000000e+000  0.000000e+000  0.000000e+000
    outer loop
      vertex -8.000000e-001 -1.210071e-001  1.867690e+001
      vertex -8.000000e-001 -2.615930e+000  1.938407e+001
      vertex -8.000000e-001 -5.145304e-001  1.933345e+001
    endloop
  endfacet
  facet normal -1.000000e+000  0.000000e+000  0.000000e+000
    outer loop
      vertex -8.000000e-001 -5.145304e-001  1.933345e+001
      vertex -8.000000e-001 -2.615930e+000  1.938407e+001
      vertex -8.000000e-001 -3.134356e+000  1.984736e+001
    endloop
  endfacet
  facet normal -1.000000e+000  0.000000e+000  0.000000e+000
    outer loop
      vertex -8.000000e-001 -5.145304e-001  1.933345e+001
      vertex -8.000000e-001 -3.134356e+000  1.984736e+001
      vertex -8.000000e-001 -9.705124e-001  1.994827e+001
    endloop
  endfacet
  facet normal -1.000000e+000  0.000000e+000  0.000000e+000
    outer loop
      vertex -8.000000e-001  7.624490e-001  1.576453e+001
      vertex -8.000000e-001 -9.554387e-001  1.637963e+001
      vertex -8.000000e-001  6.501331e-001  1.652171e+001
    endloop
  endfacet
  facet normal -1.000000e+000  -0.000000e+000  0.000000e+000
    outer loop
      vertex -8.000000e-001  6.501331e-001  1.652171e+001
      vertex -8.000000e-001 -9.554387e-001  1.637963e+001
      vertex -8.000000e-001 -1.147914e+000  1.704773e+001
    endloop
  endfacet
  facet normal -1.000000e+000  0.000000e+000  0.000000e+000
    outer loop
      vertex -8.000000e-001  6.501331e-001  1.652171e+001
      vertex -8.000000e-001 -1.147914e+000  1.704773e+001
      vertex -8.000000e-001  4.641424e-001  1.726422e+001
    endloop
  endfacet
  facet normal -1.000000e+000  -0.000000e+000  0.000000e+000
    outer loop
      vertex -8.000000e-001  4.641424e-001  1.726422e+001
      vertex -8.000000e-001 -1.147914e+000  1.704773e+001
      vertex -8.000000e-001 -1.413984e+000  1.769008e+001
    endloop
  endfacet
  facet normal -1.000000e+000  0.000000e+000  0.000000e+000
    outer loop
      vertex -8.000000e-001  4.641424e-001  1.726422e+001
      vertex -8.000000e-001 -1.413984e+000  1.769008e+001
      vertex -8.000000e-001  2.062678e-001  1.798493e+001
    endloop
  endfacet
  facet normal -1.000000e+000  -0.000000e+000  0.000000e+000
    outer loop
      vertex -8.000000e-001 -9.554387e-001  1.637963e+001
      vertex -8.000000e-001  7.624490e-001  1.576453e+001
      vertex -8.000000e-001 -8.389773e-001  1.569418e+001
    endloop
  endfacet
  facet normal -9.999999e-001  0.000000e+000  0.000000e+000
    outer loop
      vertex -8.000000e-001 -8.389773e-001  1.569418e+001
      vertex -8.000000e-001  7.624490e-001  1.576453e+001
      vertex -8.000000e-001  8.000000e-001  1.500000e+001
    endloop
  endfacet
  facet normal -1.000000e+000  0.000000e+000  0.000000e+000
    outer loop
      vertex -8.000000e-001 -8.389773e-001  1.569418e+001
      vertex -8.000000e-001  8.000000e-001  1.500000e+001
      vertex -8.000000e-001 -8.000000e-001  1.500000e+001
    endloop
  endfacet
  facet normal -1.000000e+000  0.000000e+000  0.000000e+000
    outer loop
      vertex -8.000000e-001 -8.000000e-001  1.500000e+001
      vertex -8.000000e-001  8.000000e-001  1.500000e+001
      vertex -8.000000e-001  8.000000e-001 -5.000000e+000
    endloop
  endfacet
  facet normal -1.000000e+000  0.000000e+000  0.000000e+000
    outer loop
      vertex -8.000000e-001 -8.000000e-001  1.500000e+001
      vertex -8.000000e-001  8.000000e-001 -5.000000e+000
      vertex -8.000000e-001 -8.000000e-001  3.000000e+000
    endloop
  endfacet
  facet normal -1.000000e+000  0.000000e+000  -0.000000e+000
    outer loop
      vertex -8.000000e-001 -8.000000e-001  3.000000e+000
      vertex -8.000000e-001  8.000000e-001 -5.000000e+000
      vertex -8.000000e-001 -4.200000e+000 -5.000000e+000
    endloop
  endfacet
  facet normal -1.000000e+000  0.000000e+000  0.000000e+000
    outer loop
      vertex -8.000000e-001 -8.000000e-001  3.000000e+000
      vertex -8.000000e-001 -4.200000e+000 -5.000000e+000
      vertex -8.000000e-001 -4.200000e+000  3.000000e+000
    endloop
  endfacet
  facet normal  0.000000e+000  0.000000e+000 -1.000000e+000
    outer loop
      vertex  1.700000e+000  8.000000e-001  2.500000e+000
      vertex  1.700000e+000 -4.200000e+000  2.500000e+000
      vertex -4.000000e-001  8.000000e-001  2.500000e+000
    endloop
  endfacet
  facet normal  0.000000e+000  0.000000e+000 -1.000000e+000
    outer loop
      vertex -4.000000e-001  8.000000e-001  2.500000e+000
      vertex  1.700000e+000 -4.200000e+000  2.500000e+000
      vertex -4.000000e-001 -4.200000e+000  2.500000e+000
    endloop
  endfacet
  facet normal -1.000000e+000  0.000000e+000  0.000000e+000
    outer loop
      vertex  1.700000e+000  8.000000e-001  4.000000e-001
      vertex  1.700000e+000 -4.200000e+000  4.000000e-001
      vertex  1.700000e+000  8.000000e-001  2.500000e+000
    endloop
  endfacet
  facet normal -1.000000e+000  -0.000000e+000  0.000000e+000
    outer loop
      vertex  1.700000e+000  8.000000e-001  2.500000e+000
      vertex  1.700000e+000 -4.200000e+000  4.000000e-001
      vertex  1.700000e+000 -4.200000e+000  2.500000e+000
    endloop
  endfacet
  facet normal  0.000000e+000  0.000000e+000  1.000000e+000
    outer loop
      vertex -4.000000e-001  8.000000e-001  4.000000e-001
      vertex -4.000000e-001 -4.200000e+000  4.000000e-001
      vertex  1.700000e+000  8.000000e-001  4.000000e-001
    endloop
  endfacet
  facet normal  0.000000e+000  0.000000e+000  1.000000e+000
    outer loop
      vertex  1.700000e+000  8.000000e-001  4.000000e-001
      vertex -4.000000e-001 -4.200000e+000  4.000000e-001
      vertex  1.700000e+000 -4.200000e+000  4.000000e-001
    endloop
  endfacet
  facet normal  1.000000e+000  -0.000000e+000  0.000000e+000
    outer loop
      vertex -4.000000e-001  8.000000e-001  2.500000e+000
      vertex -4.000000e-001 -4.200000e+000  2.500000e+000
      vertex -4.000000e-001  8.000000e-001  4.000000e-001
    endloop
  endfacet
  facet normal  1.000000e+000  0.000000e+000  0.000000e+000
    outer loop
      vertex -4.000000e-001  8.000000e-001  4.000000e-001
      vertex -4.000000e-001 -4.200000e+000  2.500000e+000
      vertex -4.000000e-001 -4.200000e+000  4.000000e-001
    endloop
  endfacet
  facet normal  0.000000e+000 -1.000000e+000  -0.000000e+000
    outer loop
      vertex  8.000000e-001 -8.000000e-001  3.000000e+000
      vertex  8.000000e-001 -8.000000e-001  1.500000e+001
      vertex -8.000000e-001 -8.000000e-001  3.000000e+000
    endloop
  endfacet
  facet normal  0.000000e+000 -1.000000e+000  0.000000e+000
    outer loop
      vertex -8.000000e-001 -8.000000e-001  3.000000e+000
      vertex  8.000000e-001 -8.000000e-001  1.500000e+001
      vertex -8.000000e-001 -8.000000e-001  1.500000e+001
    endloop
  endfacet
  facet normal  1.000000e+000  -0.000000e+000  -0.000000e+000
    outer loop
      vertex  8.000000e-001 -4.952266e+000  2.085208e+001
      vertex  8.000000e-001 -4.309916e+000  2.058601e+001
      vertex  8.000000e-001 -1.484562e+000  2.051544e+001
    endloop
  endfacet
  facet normal  1.000000e+000  0.000000e+000  0.000000e+000
    outer loop
      vertex  8.000000e-001 -7.000000e+000  2.120000e+001
      vertex  8.000000e-001 -2.666548e+000  2.148547e+001
      vertex  8.000000e-001 -3.323102e+000  2.187899e+001
    endloop
  endfacet
  facet normal  1.000000e+000  0.000000e+000  0.000000e+000
    outer loop
      vertex  8.000000e-001 -7.000000e+000  2.120000e+001
      vertex  8.000000e-001 -3.323102e+000  2.187899e+001
      vertex  8.000000e-001 -4.015066e+000  2.220627e+001
    endloop
  endfacet
  facet normal  1.000000e+000  0.000000e+000  0.000000e+000
    outer loop
      vertex  8.000000e-001 -7.000000e+000  2.120000e+001
      vertex  8.000000e-001 -4.015066e+000  2.220627e+001
      vertex  8.000000e-001 -4.735777e+000  2.246414e+001
    endloop
  endfacet
  facet normal  1.000000e+000  0.000000e+000  0.000000e+000
    outer loop
      vertex  8.000000e-001 -7.000000e+000  2.120000e+001
      vertex  8.000000e-001 -4.735777e+000  2.246414e+001
      vertex  8.000000e-001 -5.478294e+000  2.265013e+001
    endloop
  endfacet
  facet normal  1.000000e+000  0.000000e+000  0.000000e+000
    outer loop
      vertex  8.000000e-001 -7.000000e+000  2.120000e+001
      vertex  8.000000e-001 -5.478294e+000  2.265013e+001
      vertex  8.000000e-001 -6.235466e+000  2.276245e+001
    endloop
  endfacet
  facet normal  1.000000e+000  0.000000e+000  0.000000e+000
    outer loop
      vertex  8.000000e-001 -7.000000e+000  2.120000e+001
      vertex  8.000000e-001 -6.235466e+000  2.276245e+001
      vertex  8.000000e-001 -7.000000e+000  2.280000e+001
    endloop
  endfacet
  facet normal  1.000000e+000  0.000000e+000  0.000000e+000
    outer loop
      vertex  8.000000e-001 -2.051728e+000  2.102949e+001
      vertex  8.000000e-001 -2.666548e+000  2.148547e+001
      vertex  8.000000e-001 -7.000000e+000  2.120000e+001
    endloop
  endfacet
  facet normal  1.000000e+000  0.000000e+000  0.000000e+000
    outer loop
      vertex  8.000000e-001 -2.051728e+000  2.102949e+001
      vertex  8.000000e-001 -7.000000e+000  2.120000e+001
      vertex  8.000000e-001 -6.305819e+000  2.116102e+001
    endloop
  endfacet
  facet normal  1.000000e+000  0.000000e+000  0.000000e+000
    outer loop
      vertex  8.000000e-001 -2.051728e+000  2.102949e+001
      vertex  8.000000e-001 -6.305819e+000  2.116102e+001
      vertex  8.000000e-001 -5.620368e+000  2.104456e+001
    endloop
  endfacet
  facet normal  1.000000e+000  0.000000e+000  0.000000e+000
    outer loop
      vertex  8.000000e-001 -2.051728e+000  2.102949e+001
      vertex  8.000000e-001 -5.620368e+000  2.104456e+001
      vertex  8.000000e-001 -4.952266e+000  2.085208e+001
    endloop
  endfacet
  facet normal  1.000000e+000  -0.000000e+000  0.000000e+000
    outer loop
      vertex  8.000000e-001 -2.051728e+000  2.102949e+001
      vertex  8.000000e-001 -4.952266e+000  2.085208e+001
      vertex  8.000000e-001 -1.484562e+000  2.051544e+001
    endloop
  endfacet
  facet normal  1.000000e+000  0.000000e+000  0.000000e+000
    outer loop
      vertex  8.000000e-001 -3.134356e+000  1.984736e+001
      vertex  8.000000e-001 -9.705124e-001  1.994827e+001
      vertex  8.000000e-001 -3.701395e+000  2.024970e+001
    endloop
  endfacet
  facet normal  1.000000e+000  -0.000000e+000  0.000000e+000
    outer loop
      vertex  8.000000e-001 -3.701395e+000  2.024970e+001
      vertex  8.000000e-001 -9.705124e-001  1.994827e+001
      vertex  8.000000e-001 -1.484562e+000  2.051544e+001
    endloop
  endfacet
  facet normal  1.000000e+000  0.000000e+000  0.000000e+000
    outer loop
      vertex  8.000000e-001 -3.701395e+000  2.024970e+001
      vertex  8.000000e-001 -1.484562e+000  2.051544e+001
      vertex  8.000000e-001 -4.309916e+000  2.058601e+001
    endloop
  endfacet
  facet normal  1.000000e+000  0.000000e+000  0.000000e+000
    outer loop
      vertex  8.000000e-001 -1.413984e+000  1.769008e+001
      vertex  8.000000e-001  2.062678e-001  1.798493e+001
      vertex  8.000000e-001 -1.750301e+000  1.829860e+001
    endloop
  endfacet
  facet normal  1.000000e+000  -0.000000e+000  0.000000e+000
    outer loop
      vertex  8.000000e-001 -1.750301e+000  1.829860e+001
      vertex  8.000000e-001  2.062678e-001  1.798493e+001
      vertex  8.000000e-001 -1.210071e-001  1.867690e+001
    endloop
  endfacet
  facet normal  1.000000e+000  0.000000e+000  0.000000e+000
    outer loop
      vertex  8.000000e-001 -1.750301e+000  1.829860e+001
      vertex  8.000000e-001 -1.210071e-001  1.867690e+001
      vertex  8.000000e-001 -2.152636e+000  1.886564e+001
    endloop
  endfacet
  facet normal  9.999999e-001  -0.000000e+000  0.000000e+000
    outer loop
      vertex  8.000000e-001 -2.152636e+000  1.886564e+001
      vertex  8.000000e-001 -1.210071e-001  1.867690e+001
      vertex  8.000000e-001 -5.145304e-001  1.933345e+001
    endloop
  endfacet
  facet normal  1.000000e+000  0.000000e+000  0.000000e+000
    outer loop
      vertex  8.000000e-001 -2.152636e+000  1.886564e+001
      vertex  8.000000e-001 -5.145304e-001  1.933345e+001
      vertex  8.000000e-001 -2.615930e+000  1.938407e+001
    endloop
  endfacet
  facet normal  1.000000e+000  -0.000000e+000  0.000000e+000
    outer loop
      vertex  8.000000e-001 -2.615930e+000  1.938407e+001
      vertex  8.000000e-001 -5.145304e-001  1.933345e+001
      vertex  8.000000e-001 -9.705124e-001  1.994827e+001
    endloop
  endfacet
  facet normal  1.000000e+000  0.000000e+000  0.000000e+000
    outer loop
      vertex  8.000000e-001 -2.615930e+000  1.938407e+001
      vertex  8.000000e-001 -9.705124e-001  1.994827e+001
      vertex  8.000000e-001 -3.134356e+000  1.984736e+001
    endloop
  endfacet
  facet normal  1.000000e+000  0.000000e+000  0.000000e+000
    outer loop
      vertex  8.000000e-001 -9.554387e-001  1.637963e+001
      vertex  8.000000e-001  4.641424e-001  1.726422e+001
      vertex  8.000000e-001 -1.147914e+000  1.704773e+001
    endloop
  endfacet
  facet normal  1.000000e+000  0.000000e+000  0.000000e+000
    outer loop
      vertex  8.000000e-001 -1.147914e+000  1.704773e+001
      vertex  8.000000e-001  4.641424e-001  1.726422e+001
      vertex  8.000000e-001  2.062678e-001  1.798493e+001
    endloop
  endfacet
  facet normal  1.000000e+000  0.000000e+000  0.000000e+000
    outer loop
      vertex  8.000000e-001 -1.147914e+000  1.704773e+001
      vertex  8.000000e-001  2.062678e-001  1.798493e+001
      vertex  8.000000e-001 -1.413984e+000  1.769008e+001
    endloop
  endfacet
  facet normal  1.000000e+000  0.000000e+000  0.000000e+000
    outer loop
      vertex  8.000000e-001  4.641424e-001  1.726422e+001
      vertex  8.000000e-001 -9.554387e-001  1.637963e+001
      vertex  8.000000e-001  6.501331e-001  1.652171e+001
    endloop
  endfacet
  facet normal  1.000000e+000  0.000000e+000  0.000000e+000
    outer loop
      vertex  8.000000e-001  6.501331e-001  1.652171e+001
      vertex  8.000000e-001 -9.554387e-001  1.637963e+001
      vertex  8.000000e-001 -8.389773e-001  1.569418e+001
    endloop
  endfacet
  facet normal  1.000000e+000  0.000000e+000  0.000000e+000
    outer loop
      vertex  8.000000e-001  6.501331e-001  1.652171e+001
      vertex  8.000000e-001 -8.389773e-001  1.569418e+001
      vertex  8.000000e-001  7.624490e-001  1.576453e+001
    endloop
  endfacet
  facet normal  1.000000e+000  0.000000e+000  0.000000e+000
    outer loop
      vertex  8.000000e-001  7.624490e-001  1.576453e+001
      vertex  8.000000e-001 -8.389773e-001  1.569418e+001
      vertex  8.000000e-001 -8.000000e-001  1.500000e+001
    endloop
  endfacet
  facet normal  1.000000e+000  0.000000e+000  0.000000e+000
    outer loop
      vertex  8.000000e-001  7.624490e-001  1.576453e+001
      vertex  8.000000e-001 -8.000000e-001  1.500000e+001
      vertex  8.000000e-001  8.000000e-001  1.500000e+001
    endloop
  endfacet
  facet normal  1.000000e+000  0.000000e+000  0.000000e+000
    outer loop
      vertex  8.000000e-001  8.000000e-001  1.500000e+001
      vertex  8.000000e-001 -8.000000e-001  1.500000e+001
      vertex  8.000000e-001 -8.000000e-001  3.000000e+000
    endloop
  endfacet
  facet normal  1.000000e+000  0.000000e+000  0.000000e+000
    outer loop
      vertex  8.000000e-001  8.000000e-001  1.500000e+001
      vertex  8.000000e-001 -8.000000e-001  3.000000e+000
      vertex  8.000000e-001  8.000000e-001  3.000000e+000
    endloop
  endfacet
  facet normal  -0.000000e+000 -6.663459e-001 -7.456428e-001
    outer loop
      vertex -8.000000e-001 -2.615930e+000  1.938407e+001
      vertex  8.000000e-001 -3.134356e+000  1.984736e+001
      vertex -8.000000e-001 -3.134356e+000  1.984736e+001
    endloop
  endfacet
  facet normal  0.000000e+000 -5.786700e-001 -8.155619e-001
    outer loop
      vertex -8.000000e-001 -3.134356e+000  1.984736e+001
      vertex  8.000000e-001 -3.134356e+000  1.984736e+001
      vertex  8.000000e-001 -3.701395e+000  2.024970e+001
    endloop
  endfacet
  facet normal  -0.000000e+000 -5.786700e-001 -8.155619e-001
    outer loop
      vertex -8.000000e-001 -3.134356e+000  1.984736e+001
      vertex  8.000000e-001 -3.701395e+000  2.024970e+001
      vertex -8.000000e-001 -3.701395e+000  2.024970e+001
    endloop
  endfacet
  facet normal  0.000000e+000 -4.837181e-001 -8.752238e-001
    outer loop
      vertex -8.000000e-001 -3.701395e+000  2.024970e+001
      vertex  8.000000e-001 -3.701395e+000  2.024970e+001
      vertex  8.000000e-001 -4.309916e+000  2.058601e+001
    endloop
  endfacet
  facet normal  -0.000000e+000 -4.837181e-001 -8.752238e-001
    outer loop
      vertex -8.000000e-001 -3.701395e+000  2.024970e+001
      vertex  8.000000e-001 -4.309916e+000  2.058601e+001
      vertex -8.000000e-001 -4.309916e+000  2.058601e+001
    endloop
  endfacet
  facet normal  0.000000e+000 -3.826825e-001 -9.238799e-001
    outer loop
      vertex -8.000000e-001 -4.309916e+000  2.058601e+001
      vertex  8.000000e-001 -4.309916e+000  2.058601e+001
      vertex  8.000000e-001 -4.952266e+000  2.085208e+001
    endloop
  endfacet
  facet normal  -0.000000e+000 -3.826825e-001 -9.238799e-001
    outer loop
      vertex -8.000000e-001 -4.309916e+000  2.058601e+001
      vertex  8.000000e-001 -4.952266e+000  2.085208e+001
      vertex -8.000000e-001 -4.952266e+000  2.085208e+001
    endloop
  endfacet
  facet normal  0.000000e+000 -2.768323e-001 -9.609184e-001
    outer loop
      vertex -8.000000e-001 -4.952266e+000  2.085208e+001
      vertex  8.000000e-001 -4.952266e+000  2.085208e+001
      vertex  8.000000e-001 -5.620368e+000  2.104456e+001
    endloop
  endfacet
  facet normal  -0.000000e+000 -2.768323e-001 -9.609184e-001
    outer loop
      vertex -8.000000e-001 -4.952266e+000  2.085208e+001
      vertex  8.000000e-001 -5.620368e+000  2.104456e+001
      vertex -8.000000e-001 -5.620368e+000  2.104456e+001
    endloop
  endfacet
  facet normal  0.000000e+000 -1.675061e-001 -9.858710e-001
    outer loop
      vertex -8.000000e-001 -5.620368e+000  2.104456e+001
      vertex  8.000000e-001 -5.620368e+000  2.104456e+001
      vertex  8.000000e-001 -6.305819e+000  2.116102e+001
    endloop
  endfacet
  facet normal  -0.000000e+000 -1.675061e-001 -9.858710e-001
    outer loop
      vertex -8.000000e-001 -5.620368e+000  2.104456e+001
      vertex  8.000000e-001 -6.305819e+000  2.116102e+001
      vertex -8.000000e-001 -6.305819e+000  2.116102e+001
    endloop
  endfacet
  facet normal  0.000000e+000 -5.605941e-002 -9.984275e-001
    outer loop
      vertex -8.000000e-001 -6.305819e+000  2.116102e+001
      vertex  8.000000e-001 -6.305819e+000  2.116102e+001
      vertex  8.000000e-001 -7.000000e+000  2.120000e+001
    endloop
  endfacet
  facet normal  -0.000000e+000 -5.605941e-002 -9.984275e-001
    outer loop
      vertex -8.000000e-001 -6.305819e+000  2.116102e+001
      vertex  8.000000e-001 -7.000000e+000  2.120000e+001
      vertex -8.000000e-001 -7.000000e+000  2.120000e+001
    endloop
  endfacet
  facet normal  0.000000e+000 -6.663459e-001 -7.456428e-001
    outer loop
      vertex  8.000000e-001 -3.134356e+000  1.984736e+001
      vertex -8.000000e-001 -2.615930e+000  1.938407e+001
      vertex  8.000000e-001 -2.615930e+000  1.938407e+001
    endloop
  endfacet
  facet normal  -0.000000e+000 -7.456427e-001 -6.663459e-001
    outer loop
      vertex  8.000000e-001 -2.615930e+000  1.938407e+001
      vertex -8.000000e-001 -2.615930e+000  1.938407e+001
      vertex -8.000000e-001 -2.152636e+000  1.886564e+001
    endloop
  endfacet
  facet normal  0.000000e+000 -7.456427e-001 -6.663459e-001
    outer loop
      vertex  8.000000e-001 -2.615930e+000  1.938407e+001
      vertex -8.000000e-001 -2.152636e+000  1.886564e+001
      vertex  8.000000e-001 -2.152636e+000  1.886564e+001
    endloop
  endfacet
  facet normal  -0.000000e+000 -8.155605e-001 -5.786718e-001
    outer loop
      vertex  8.000000e-001 -2.152636e+000  1.886564e+001
      vertex -8.000000e-001 -2.152636e+000  1.886564e+001
      vertex -8.000000e-001 -1.750301e+000  1.829860e+001
    endloop
  endfacet
  facet normal  0.000000e+000 -8.155605e-001 -5.786718e-001
    outer loop
      vertex  8.000000e-001 -2.152636e+000  1.886564e+001
      vertex -8.000000e-001 -1.750301e+000  1.829860e+001
      vertex  8.000000e-001 -1.750301e+000  1.829860e+001
    endloop
  endfacet
  facet normal  -0.000000e+000 -8.752237e-001 -4.837184e-001
    outer loop
      vertex  8.000000e-001 -1.750301e+000  1.829860e+001
      vertex -8.000000e-001 -1.750301e+000  1.829860e+001
      vertex -8.000000e-001 -1.413984e+000  1.769008e+001
    endloop
  endfacet
  facet normal  0.000000e+000 -8.752237e-001 -4.837184e-001
    outer loop
      vertex  8.000000e-001 -1.750301e+000  1.829860e+001
      vertex -8.000000e-001 -1.413984e+000  1.769008e+001
      vertex  8.000000e-001 -1.413984e+000  1.769008e+001
    endloop
  endfacet
  facet normal  -0.000000e+000 -9.238802e-001 -3.826819e-001
    outer loop
      vertex  8.000000e-001 -1.413984e+000  1.769008e+001
      vertex -8.000000e-001 -1.413984e+000  1.769008e+001
      vertex -8.000000e-001 -1.147914e+000  1.704773e+001
    endloop
  endfacet
  facet normal  0.000000e+000 -9.238802e-001 -3.826819e-001
    outer loop
      vertex  8.000000e-001 -1.413984e+000  1.769008e+001
      vertex -8.000000e-001 -1.147914e+000  1.704773e+001
      vertex  8.000000e-001 -1.147914e+000  1.704773e+001
    endloop
  endfacet
  facet normal  -0.000000e+000 -9.609178e-001 -2.768338e-001
    outer loop
      vertex  8.000000e-001 -1.147914e+000  1.704773e+001
      vertex -8.000000e-001 -1.147914e+000  1.704773e+001
      vertex -8.000000e-001 -9.554387e-001  1.637963e+001
    endloop
  endfacet
  facet normal  0.000000e+000 -9.609178e-001 -2.768338e-001
    outer loop
      vertex  8.000000e-001 -1.147914e+000  1.704773e+001
      vertex -8.000000e-001 -9.554387e-001  1.637963e+001
      vertex  8.000000e-001 -9.554387e-001  1.637963e+001
    endloop
  endfacet
  facet normal  -0.000000e+000 -9.858713e-001 -1.675044e-001
    outer loop
      vertex  8.000000e-001 -9.554387e-001  1.637963e+001
      vertex -8.000000e-001 -9.554387e-001  1.637963e+001
      vertex -8.000000e-001 -8.389773e-001  1.569418e+001
    endloop
  endfacet
  facet normal  0.000000e+000 -9.858713e-001 -1.675044e-001
    outer loop
      vertex  8.000000e-001 -9.554387e-001  1.637963e+001
      vertex -8.000000e-001 -8.389773e-001  1.569418e+001
      vertex  8.000000e-001 -8.389773e-001  1.569418e+001
    endloop
  endfacet
  facet normal  -0.000000e+000 -9.984274e-001 -5.606030e-002
    outer loop
      vertex  8.000000e-001 -8.389773e-001  1.569418e+001
      vertex -8.000000e-001 -8.389773e-001  1.569418e+001
      vertex -8.000000e-001 -8.000000e-001  1.500000e+001
    endloop
  endfacet
  facet normal  0.000000e+000 -9.984274e-001 -5.606030e-002
    outer loop
      vertex  8.000000e-001 -8.389773e-001  1.569418e+001
      vertex -8.000000e-001 -8.000000e-001  1.500000e+001
      vertex  8.000000e-001 -8.000000e-001  1.500000e+001
    endloop
  endfacet
  facet normal  0.000000e+000 -1.000000e+000  0.000000e+000
    outer loop
      vertex -8.000000e-001 -7.000000e+000  2.120000e+001
      vertex  8.000000e-001 -7.000000e+000  2.120000e+001
      vertex -8.000000e-001 -7.000000e+000  2.280000e+001
    endloop
  endfacet
  facet normal  0.000000e+000 -1.000000e+000  0.000000e+000
    outer loop
      vertex -8.000000e-001 -7.000000e+000  2.280000e+001
      vertex  8.000000e-001 -7.000000e+000  2.120000e+001
      vertex  8.000000e-001 -7.000000e+000  2.280000e+001
    endloop
  endfacet
endsolid CATIA STL
