solid CATIA STL
  facet normal  -0.000000e+000  0.000000e+000  1.000000e+000
    outer loop
      vertex  6.000000e+000  2.500000e+000  0.000000e+000
      vertex -6.000000e+000  2.500000e+000  0.000000e+000
      vertex  1.450000e+000  1.450000e+000  0.000000e+000
    endloop
  endfacet
  facet normal  -0.000000e+000  0.000000e+000  1.000000e+000
    outer loop
      vertex  6.000000e+000  2.500000e+000  0.000000e+000
      vertex  1.450000e+000  1.450000e+000  0.000000e+000
      vertex  4.000000e+000  1.100000e+000  0.000000e+000
    endloop
  endfacet
  facet normal  -0.000000e+000  0.000000e+000  1.000000e+000
    outer loop
      vertex  6.000000e+000  2.500000e+000  0.000000e+000
      vertex  4.000000e+000  1.100000e+000  0.000000e+000
      vertex  4.214599e+000  1.078864e+000  0.000000e+000
    endloop
  endfacet
  facet normal  -0.000000e+000  0.000000e+000  9.999999e-001
    outer loop
      vertex  6.000000e+000  2.500000e+000  0.000000e+000
      vertex  4.214599e+000  1.078864e+000  0.000000e+000
      vertex  4.420952e+000  1.016268e+000  0.000000e+000
    endloop
  endfacet
  facet normal  -0.000000e+000  0.000000e+000  1.000000e+000
    outer loop
      vertex  6.000000e+000  2.500000e+000  0.000000e+000
      vertex  4.420952e+000  1.016268e+000  0.000000e+000
      vertex  4.611127e+000  9.146166e-001  0.000000e+000
    endloop
  endfacet
  facet normal  -0.000000e+000  0.000000e+000  1.000000e+000
    outer loop
      vertex  6.000000e+000  2.500000e+000  0.000000e+000
      vertex  4.611127e+000  9.146166e-001  0.000000e+000
      vertex  4.777817e+000  7.778175e-001  0.000000e+000
    endloop
  endfacet
  facet normal  -0.000000e+000  0.000000e+000  1.000000e+000
    outer loop
      vertex  6.000000e+000  2.500000e+000  0.000000e+000
      vertex  4.777817e+000  7.778175e-001  0.000000e+000
      vertex  4.914617e+000  6.111273e-001  0.000000e+000
    endloop
  endfacet
  facet normal  -0.000000e+000  0.000000e+000  9.999999e-001
    outer loop
      vertex  6.000000e+000  2.500000e+000  0.000000e+000
      vertex  4.914617e+000  6.111273e-001  0.000000e+000
      vertex  5.016267e+000  4.209518e-001  0.000000e+000
    endloop
  endfacet
  facet normal  -0.000000e+000  0.000000e+000  1.000000e+000
    outer loop
      vertex  6.000000e+000  2.500000e+000  0.000000e+000
      vertex  5.016267e+000  4.209518e-001  0.000000e+000
      vertex  5.078864e+000  2.145994e-001  0.000000e+000
    endloop
  endfacet
  facet normal  -0.000000e+000  0.000000e+000  1.000000e+000
    outer loop
      vertex  6.000000e+000  2.500000e+000  0.000000e+000
      vertex  5.078864e+000  2.145994e-001  0.000000e+000
      vertex  6.000000e+000 -2.500000e+000  0.000000e+000
    endloop
  endfacet
  facet normal  0.000000e+000  0.000000e+000  1.000000e+000
    outer loop
      vertex -6.000000e+000  2.500000e+000  0.000000e+000
      vertex -6.000000e+000 -2.500000e+000  0.000000e+000
      vertex -5.078864e+000  2.145994e-001  0.000000e+000
    endloop
  endfacet
  facet normal  0.000000e+000  -0.000000e+000  1.000000e+000
    outer loop
      vertex -6.000000e+000  2.500000e+000  0.000000e+000
      vertex -5.078864e+000  2.145994e-001  0.000000e+000
      vertex -5.016267e+000  4.209518e-001  0.000000e+000
    endloop
  endfacet
  facet normal  0.000000e+000  -0.000000e+000  9.999999e-001
    outer loop
      vertex -6.000000e+000  2.500000e+000  0.000000e+000
      vertex -5.016267e+000  4.209518e-001  0.000000e+000
      vertex -4.914617e+000  6.111273e-001  0.000000e+000
    endloop
  endfacet
  facet normal  0.000000e+000  -0.000000e+000  1.000000e+000
    outer loop
      vertex -6.000000e+000  2.500000e+000  0.000000e+000
      vertex -4.914617e+000  6.111273e-001  0.000000e+000
      vertex -4.777817e+000  7.778175e-001  0.000000e+000
    endloop
  endfacet
  facet normal  0.000000e+000  -0.000000e+000  1.000000e+000
    outer loop
      vertex -6.000000e+000  2.500000e+000  0.000000e+000
      vertex -4.777817e+000  7.778175e-001  0.000000e+000
      vertex -4.611127e+000  9.146166e-001  0.000000e+000
    endloop
  endfacet
  facet normal  0.000000e+000  -0.000000e+000  1.000000e+000
    outer loop
      vertex -6.000000e+000  2.500000e+000  0.000000e+000
      vertex -4.611127e+000  9.146166e-001  0.000000e+000
      vertex -4.420952e+000  1.016268e+000  0.000000e+000
    endloop
  endfacet
  facet normal  0.000000e+000  -0.000000e+000  9.999999e-001
    outer loop
      vertex -6.000000e+000  2.500000e+000  0.000000e+000
      vertex -4.420952e+000  1.016268e+000  0.000000e+000
      vertex -4.214599e+000  1.078864e+000  0.000000e+000
    endloop
  endfacet
  facet normal  0.000000e+000  -0.000000e+000  1.000000e+000
    outer loop
      vertex -6.000000e+000  2.500000e+000  0.000000e+000
      vertex -4.214599e+000  1.078864e+000  0.000000e+000
      vertex -4.000000e+000  1.100000e+000  0.000000e+000
    endloop
  endfacet
  facet normal  0.000000e+000  -0.000000e+000  1.000000e+000
    outer loop
      vertex -6.000000e+000  2.500000e+000  0.000000e+000
      vertex -4.000000e+000  1.100000e+000  0.000000e+000
      vertex -1.450000e+000  1.450000e+000  0.000000e+000
    endloop
  endfacet
  facet normal  0.000000e+000  -0.000000e+000  1.000000e+000
    outer loop
      vertex -6.000000e+000  2.500000e+000  0.000000e+000
      vertex -1.450000e+000  1.450000e+000  0.000000e+000
      vertex  1.450000e+000  1.450000e+000  0.000000e+000
    endloop
  endfacet
  facet normal  0.000000e+000  0.000000e+000  1.000000e+000
    outer loop
      vertex -6.000000e+000 -2.500000e+000  0.000000e+000
      vertex  6.000000e+000 -2.500000e+000  0.000000e+000
      vertex  1.450000e+000 -1.450000e+000  0.000000e+000
    endloop
  endfacet
  facet normal  0.000000e+000  0.000000e+000  1.000000e+000
    outer loop
      vertex -6.000000e+000 -2.500000e+000  0.000000e+000
      vertex  1.450000e+000 -1.450000e+000  0.000000e+000
      vertex -1.450000e+000 -1.450000e+000  0.000000e+000
    endloop
  endfacet
  facet normal  0.000000e+000  0.000000e+000  1.000000e+000
    outer loop
      vertex -6.000000e+000 -2.500000e+000  0.000000e+000
      vertex -1.450000e+000 -1.450000e+000  0.000000e+000
      vertex -4.000000e+000 -1.100000e+000  0.000000e+000
    endloop
  endfacet
  facet normal  0.000000e+000  0.000000e+000  1.000000e+000
    outer loop
      vertex -6.000000e+000 -2.500000e+000  0.000000e+000
      vertex -4.000000e+000 -1.100000e+000  0.000000e+000
      vertex -4.214599e+000 -1.078864e+000  0.000000e+000
    endloop
  endfacet
  facet normal  0.000000e+000  0.000000e+000  9.999999e-001
    outer loop
      vertex -6.000000e+000 -2.500000e+000  0.000000e+000
      vertex -4.214599e+000 -1.078864e+000  0.000000e+000
      vertex -4.420952e+000 -1.016268e+000  0.000000e+000
    endloop
  endfacet
  facet normal  0.000000e+000  0.000000e+000  1.000000e+000
    outer loop
      vertex -6.000000e+000 -2.500000e+000  0.000000e+000
      vertex -4.420952e+000 -1.016268e+000  0.000000e+000
      vertex -4.611127e+000 -9.146166e-001  0.000000e+000
    endloop
  endfacet
  facet normal  0.000000e+000  0.000000e+000  1.000000e+000
    outer loop
      vertex -6.000000e+000 -2.500000e+000  0.000000e+000
      vertex -4.611127e+000 -9.146166e-001  0.000000e+000
      vertex -4.777817e+000 -7.778175e-001  0.000000e+000
    endloop
  endfacet
  facet normal  0.000000e+000  0.000000e+000  1.000000e+000
    outer loop
      vertex -6.000000e+000 -2.500000e+000  0.000000e+000
      vertex -4.777817e+000 -7.778175e-001  0.000000e+000
      vertex -4.914617e+000 -6.111273e-001  0.000000e+000
    endloop
  endfacet
  facet normal  0.000000e+000  0.000000e+000  9.999999e-001
    outer loop
      vertex -6.000000e+000 -2.500000e+000  0.000000e+000
      vertex -4.914617e+000 -6.111273e-001  0.000000e+000
      vertex -5.016267e+000 -4.209518e-001  0.000000e+000
    endloop
  endfacet
  facet normal  0.000000e+000  0.000000e+000  1.000000e+000
    outer loop
      vertex -6.000000e+000 -2.500000e+000  0.000000e+000
      vertex -5.016267e+000 -4.209518e-001  0.000000e+000
      vertex -5.078864e+000 -2.145994e-001  0.000000e+000
    endloop
  endfacet
  facet normal  0.000000e+000  0.000000e+000  9.999999e-001
    outer loop
      vertex -6.000000e+000 -2.500000e+000  0.000000e+000
      vertex -5.078864e+000 -2.145994e-001  0.000000e+000
      vertex -5.100000e+000  1.347112e-016  0.000000e+000
    endloop
  endfacet
  facet normal  0.000000e+000  -0.000000e+000  1.000000e+000
    outer loop
      vertex -6.000000e+000 -2.500000e+000  0.000000e+000
      vertex -5.100000e+000  1.347112e-016  0.000000e+000
      vertex -5.078864e+000  2.145994e-001  0.000000e+000
    endloop
  endfacet
  facet normal  0.000000e+000  0.000000e+000  1.000000e+000
    outer loop
      vertex -1.450000e+000 -1.450000e+000  0.000000e+000
      vertex -3.085383e+000  6.111273e-001  0.000000e+000
      vertex -2.983732e+000  4.209518e-001  0.000000e+000
    endloop
  endfacet
  facet normal  0.000000e+000  0.000000e+000  1.000000e+000
    outer loop
      vertex -1.450000e+000 -1.450000e+000  0.000000e+000
      vertex -2.983732e+000  4.209518e-001  0.000000e+000
      vertex -2.921136e+000  2.145994e-001  0.000000e+000
    endloop
  endfacet
  facet normal  0.000000e+000  0.000000e+000  1.000000e+000
    outer loop
      vertex -1.450000e+000 -1.450000e+000  0.000000e+000
      vertex -2.921136e+000  2.145994e-001  0.000000e+000
      vertex -2.900000e+000 -1.246419e-015  0.000000e+000
    endloop
  endfacet
  facet normal  0.000000e+000  0.000000e+000  9.999999e-001
    outer loop
      vertex -1.450000e+000 -1.450000e+000  0.000000e+000
      vertex -2.900000e+000 -1.246419e-015  0.000000e+000
      vertex -2.921136e+000 -2.145994e-001  0.000000e+000
    endloop
  endfacet
  facet normal  0.000000e+000  0.000000e+000  1.000000e+000
    outer loop
      vertex -1.450000e+000 -1.450000e+000  0.000000e+000
      vertex -2.921136e+000 -2.145994e-001  0.000000e+000
      vertex -2.983732e+000 -4.209518e-001  0.000000e+000
    endloop
  endfacet
  facet normal  0.000000e+000  0.000000e+000  1.000000e+000
    outer loop
      vertex -1.450000e+000 -1.450000e+000  0.000000e+000
      vertex -2.983732e+000 -4.209518e-001  0.000000e+000
      vertex -3.085383e+000 -6.111273e-001  0.000000e+000
    endloop
  endfacet
  facet normal  0.000000e+000  0.000000e+000  1.000000e+000
    outer loop
      vertex -1.450000e+000 -1.450000e+000  0.000000e+000
      vertex -3.085383e+000 -6.111273e-001  0.000000e+000
      vertex -3.222183e+000 -7.778175e-001  0.000000e+000
    endloop
  endfacet
  facet normal  0.000000e+000  0.000000e+000  1.000000e+000
    outer loop
      vertex -1.450000e+000 -1.450000e+000  0.000000e+000
      vertex -3.222183e+000 -7.778175e-001  0.000000e+000
      vertex -3.388873e+000 -9.146166e-001  0.000000e+000
    endloop
  endfacet
  facet normal  0.000000e+000  0.000000e+000  1.000000e+000
    outer loop
      vertex -1.450000e+000 -1.450000e+000  0.000000e+000
      vertex -3.388873e+000 -9.146166e-001  0.000000e+000
      vertex -3.579048e+000 -1.016268e+000  0.000000e+000
    endloop
  endfacet
  facet normal  0.000000e+000  0.000000e+000  1.000000e+000
    outer loop
      vertex -1.450000e+000 -1.450000e+000  0.000000e+000
      vertex -3.579048e+000 -1.016268e+000  0.000000e+000
      vertex -3.785401e+000 -1.078864e+000  0.000000e+000
    endloop
  endfacet
  facet normal  0.000000e+000  0.000000e+000  1.000000e+000
    outer loop
      vertex -1.450000e+000 -1.450000e+000  0.000000e+000
      vertex -3.785401e+000 -1.078864e+000  0.000000e+000
      vertex -4.000000e+000 -1.100000e+000  0.000000e+000
    endloop
  endfacet
  facet normal  -0.000000e+000  0.000000e+000  1.000000e+000
    outer loop
      vertex -1.450000e+000  1.450000e+000  0.000000e+000
      vertex -4.000000e+000  1.100000e+000  0.000000e+000
      vertex -3.785401e+000  1.078864e+000  0.000000e+000
    endloop
  endfacet
  facet normal  -0.000000e+000  0.000000e+000  1.000000e+000
    outer loop
      vertex -1.450000e+000  1.450000e+000  0.000000e+000
      vertex -3.785401e+000  1.078864e+000  0.000000e+000
      vertex -3.579048e+000  1.016268e+000  0.000000e+000
    endloop
  endfacet
  facet normal  -0.000000e+000  0.000000e+000  1.000000e+000
    outer loop
      vertex -1.450000e+000  1.450000e+000  0.000000e+000
      vertex -3.579048e+000  1.016268e+000  0.000000e+000
      vertex -3.388873e+000  9.146166e-001  0.000000e+000
    endloop
  endfacet
  facet normal  -0.000000e+000  0.000000e+000  1.000000e+000
    outer loop
      vertex -1.450000e+000  1.450000e+000  0.000000e+000
      vertex -3.388873e+000  9.146166e-001  0.000000e+000
      vertex -3.222183e+000  7.778175e-001  0.000000e+000
    endloop
  endfacet
  facet normal  -0.000000e+000  0.000000e+000  1.000000e+000
    outer loop
      vertex -1.450000e+000  1.450000e+000  0.000000e+000
      vertex -3.222183e+000  7.778175e-001  0.000000e+000
      vertex -3.085383e+000  6.111273e-001  0.000000e+000
    endloop
  endfacet
  facet normal  -0.000000e+000  0.000000e+000  1.000000e+000
    outer loop
      vertex -1.450000e+000  1.450000e+000  0.000000e+000
      vertex -3.085383e+000  6.111273e-001  0.000000e+000
      vertex -1.450000e+000 -1.450000e+000  0.000000e+000
    endloop
  endfacet
  facet normal  0.000000e+000  0.000000e+000  1.000000e+000
    outer loop
      vertex  1.450000e+000 -1.450000e+000  0.000000e+000
      vertex  6.000000e+000 -2.500000e+000  0.000000e+000
      vertex  4.000000e+000 -1.100000e+000  0.000000e+000
    endloop
  endfacet
  facet normal  0.000000e+000  0.000000e+000  1.000000e+000
    outer loop
      vertex  1.450000e+000 -1.450000e+000  0.000000e+000
      vertex  4.000000e+000 -1.100000e+000  0.000000e+000
      vertex  3.785401e+000 -1.078864e+000  0.000000e+000
    endloop
  endfacet
  facet normal  0.000000e+000  0.000000e+000  1.000000e+000
    outer loop
      vertex  1.450000e+000 -1.450000e+000  0.000000e+000
      vertex  3.785401e+000 -1.078864e+000  0.000000e+000
      vertex  3.579048e+000 -1.016268e+000  0.000000e+000
    endloop
  endfacet
  facet normal  0.000000e+000  0.000000e+000  1.000000e+000
    outer loop
      vertex  1.450000e+000 -1.450000e+000  0.000000e+000
      vertex  3.579048e+000 -1.016268e+000  0.000000e+000
      vertex  3.388873e+000 -9.146166e-001  0.000000e+000
    endloop
  endfacet
  facet normal  0.000000e+000  0.000000e+000  1.000000e+000
    outer loop
      vertex  1.450000e+000 -1.450000e+000  0.000000e+000
      vertex  3.388873e+000 -9.146166e-001  0.000000e+000
      vertex  3.222183e+000 -7.778175e-001  0.000000e+000
    endloop
  endfacet
  facet normal  0.000000e+000  0.000000e+000  1.000000e+000
    outer loop
      vertex  1.450000e+000 -1.450000e+000  0.000000e+000
      vertex  3.222183e+000 -7.778175e-001  0.000000e+000
      vertex  3.085383e+000 -6.111273e-001  0.000000e+000
    endloop
  endfacet
  facet normal  0.000000e+000  0.000000e+000  1.000000e+000
    outer loop
      vertex  1.450000e+000 -1.450000e+000  0.000000e+000
      vertex  3.085383e+000 -6.111273e-001  0.000000e+000
      vertex  2.983732e+000 -4.209518e-001  0.000000e+000
    endloop
  endfacet
  facet normal  0.000000e+000  0.000000e+000  1.000000e+000
    outer loop
      vertex  1.450000e+000 -1.450000e+000  0.000000e+000
      vertex  2.983732e+000 -4.209518e-001  0.000000e+000
      vertex  2.921136e+000 -2.145994e-001  0.000000e+000
    endloop
  endfacet
  facet normal  0.000000e+000  0.000000e+000  9.999999e-001
    outer loop
      vertex  1.450000e+000 -1.450000e+000  0.000000e+000
      vertex  2.921136e+000 -2.145994e-001  0.000000e+000
      vertex  2.900000e+000  1.347112e-016  0.000000e+000
    endloop
  endfacet
  facet normal  0.000000e+000  -0.000000e+000  1.000000e+000
    outer loop
      vertex  1.450000e+000 -1.450000e+000  0.000000e+000
      vertex  2.900000e+000  1.347112e-016  0.000000e+000
      vertex  2.921136e+000  2.145994e-001  0.000000e+000
    endloop
  endfacet
  facet normal  0.000000e+000  -0.000000e+000  1.000000e+000
    outer loop
      vertex  1.450000e+000 -1.450000e+000  0.000000e+000
      vertex  2.921136e+000  2.145994e-001  0.000000e+000
      vertex  2.983732e+000  4.209518e-001  0.000000e+000
    endloop
  endfacet
  facet normal  0.000000e+000  -0.000000e+000  1.000000e+000
    outer loop
      vertex  1.450000e+000 -1.450000e+000  0.000000e+000
      vertex  2.983732e+000  4.209518e-001  0.000000e+000
      vertex  3.085383e+000  6.111273e-001  0.000000e+000
    endloop
  endfacet
  facet normal  0.000000e+000  0.000000e+000  1.000000e+000
    outer loop
      vertex  1.450000e+000  1.450000e+000  0.000000e+000
      vertex  1.450000e+000 -1.450000e+000  0.000000e+000
      vertex  3.085383e+000  6.111273e-001  0.000000e+000
    endloop
  endfacet
  facet normal  0.000000e+000  -0.000000e+000  1.000000e+000
    outer loop
      vertex  1.450000e+000  1.450000e+000  0.000000e+000
      vertex  3.085383e+000  6.111273e-001  0.000000e+000
      vertex  3.222183e+000  7.778175e-001  0.000000e+000
    endloop
  endfacet
  facet normal  0.000000e+000  -0.000000e+000  1.000000e+000
    outer loop
      vertex  1.450000e+000  1.450000e+000  0.000000e+000
      vertex  3.222183e+000  7.778175e-001  0.000000e+000
      vertex  3.388873e+000  9.146166e-001  0.000000e+000
    endloop
  endfacet
  facet normal  0.000000e+000  -0.000000e+000  1.000000e+000
    outer loop
      vertex  1.450000e+000  1.450000e+000  0.000000e+000
      vertex  3.388873e+000  9.146166e-001  0.000000e+000
      vertex  3.579048e+000  1.016268e+000  0.000000e+000
    endloop
  endfacet
  facet normal  0.000000e+000  -0.000000e+000  1.000000e+000
    outer loop
      vertex  1.450000e+000  1.450000e+000  0.000000e+000
      vertex  3.579048e+000  1.016268e+000  0.000000e+000
      vertex  3.785401e+000  1.078864e+000  0.000000e+000
    endloop
  endfacet
  facet normal  0.000000e+000  -0.000000e+000  1.000000e+000
    outer loop
      vertex  1.450000e+000  1.450000e+000  0.000000e+000
      vertex  3.785401e+000  1.078864e+000  0.000000e+000
      vertex  4.000000e+000  1.100000e+000  0.000000e+000
    endloop
  endfacet
  facet normal  0.000000e+000  0.000000e+000  1.000000e+000
    outer loop
      vertex  6.000000e+000 -2.500000e+000  0.000000e+000
      vertex  5.078864e+000  2.145994e-001  0.000000e+000
      vertex  5.100000e+000  0.000000e+000  0.000000e+000
    endloop
  endfacet
  facet normal  0.000000e+000  0.000000e+000  9.999999e-001
    outer loop
      vertex  6.000000e+000 -2.500000e+000  0.000000e+000
      vertex  5.100000e+000  0.000000e+000  0.000000e+000
      vertex  5.078864e+000 -2.145994e-001  0.000000e+000
    endloop
  endfacet
  facet normal  0.000000e+000  0.000000e+000  1.000000e+000
    outer loop
      vertex  6.000000e+000 -2.500000e+000  0.000000e+000
      vertex  5.078864e+000 -2.145994e-001  0.000000e+000
      vertex  5.016267e+000 -4.209518e-001  0.000000e+000
    endloop
  endfacet
  facet normal  0.000000e+000  0.000000e+000  9.999999e-001
    outer loop
      vertex  6.000000e+000 -2.500000e+000  0.000000e+000
      vertex  5.016267e+000 -4.209518e-001  0.000000e+000
      vertex  4.914617e+000 -6.111273e-001  0.000000e+000
    endloop
  endfacet
  facet normal  0.000000e+000  0.000000e+000  1.000000e+000
    outer loop
      vertex  6.000000e+000 -2.500000e+000  0.000000e+000
      vertex  4.914617e+000 -6.111273e-001  0.000000e+000
      vertex  4.777817e+000 -7.778175e-001  0.000000e+000
    endloop
  endfacet
  facet normal  0.000000e+000  0.000000e+000  1.000000e+000
    outer loop
      vertex  6.000000e+000 -2.500000e+000  0.000000e+000
      vertex  4.777817e+000 -7.778175e-001  0.000000e+000
      vertex  4.611127e+000 -9.146166e-001  0.000000e+000
    endloop
  endfacet
  facet normal  0.000000e+000  0.000000e+000  1.000000e+000
    outer loop
      vertex  6.000000e+000 -2.500000e+000  0.000000e+000
      vertex  4.611127e+000 -9.146166e-001  0.000000e+000
      vertex  4.420952e+000 -1.016268e+000  0.000000e+000
    endloop
  endfacet
  facet normal  0.000000e+000  0.000000e+000  9.999999e-001
    outer loop
      vertex  6.000000e+000 -2.500000e+000  0.000000e+000
      vertex  4.420952e+000 -1.016268e+000  0.000000e+000
      vertex  4.214599e+000 -1.078864e+000  0.000000e+000
    endloop
  endfacet
  facet normal  0.000000e+000  0.000000e+000  1.000000e+000
    outer loop
      vertex  6.000000e+000 -2.500000e+000  0.000000e+000
      vertex  4.214599e+000 -1.078864e+000  0.000000e+000
      vertex  4.000000e+000 -1.100000e+000  0.000000e+000
    endloop
  endfacet
  facet normal  1.000000e+000  0.000000e+000  0.000000e+000
    outer loop
      vertex  1.450000e+000  1.450000e+000  0.000000e+000
      vertex  1.450000e+000  1.450000e+000  7.800000e+000
      vertex  1.450000e+000 -1.450000e+000  0.000000e+000
    endloop
  endfacet
  facet normal  1.000000e+000  0.000000e+000  0.000000e+000
    outer loop
      vertex  1.450000e+000 -1.450000e+000  0.000000e+000
      vertex  1.450000e+000  1.450000e+000  7.800000e+000
      vertex  1.450000e+000 -1.450000e+000  7.800000e+000
    endloop
  endfacet
  facet normal  0.000000e+000 -1.000000e+000  -0.000000e+000
    outer loop
      vertex  1.450000e+000 -1.450000e+000  0.000000e+000
      vertex  1.450000e+000 -1.450000e+000  7.800000e+000
      vertex -1.450000e+000 -1.450000e+000  0.000000e+000
    endloop
  endfacet
  facet normal  0.000000e+000 -1.000000e+000  0.000000e+000
    outer loop
      vertex -1.450000e+000 -1.450000e+000  0.000000e+000
      vertex  1.450000e+000 -1.450000e+000  7.800000e+000
      vertex -1.450000e+000 -1.450000e+000  7.800000e+000
    endloop
  endfacet
  facet normal -1.000000e+000  0.000000e+000  0.000000e+000
    outer loop
      vertex -1.450000e+000 -1.450000e+000  0.000000e+000
      vertex -1.450000e+000 -1.450000e+000  7.800000e+000
      vertex -1.450000e+000  1.450000e+000  0.000000e+000
    endloop
  endfacet
  facet normal -1.000000e+000  0.000000e+000  0.000000e+000
    outer loop
      vertex -1.450000e+000  1.450000e+000  0.000000e+000
      vertex -1.450000e+000 -1.450000e+000  7.800000e+000
      vertex -1.450000e+000  1.450000e+000  7.800000e+000
    endloop
  endfacet
  facet normal  0.000000e+000  1.000000e+000  0.000000e+000
    outer loop
      vertex -1.450000e+000  1.450000e+000  0.000000e+000
      vertex -1.450000e+000  1.450000e+000  7.800000e+000
      vertex  1.450000e+000  1.450000e+000  0.000000e+000
    endloop
  endfacet
  facet normal  0.000000e+000  1.000000e+000  -0.000000e+000
    outer loop
      vertex  1.450000e+000  1.450000e+000  0.000000e+000
      vertex -1.450000e+000  1.450000e+000  7.800000e+000
      vertex  1.450000e+000  1.450000e+000  7.800000e+000
    endloop
  endfacet
  facet normal  -0.000000e+000  0.000000e+000 -1.000000e+000
    outer loop
      vertex -6.000000e+000  2.500000e+000 -3.000000e+000
      vertex  6.000000e+000  2.500000e+000 -3.000000e+000
      vertex  4.000000e+000  1.100000e+000 -3.000000e+000
    endloop
  endfacet
  facet normal  0.000000e+000  0.000000e+000 -1.000000e+000
    outer loop
      vertex -6.000000e+000  2.500000e+000 -3.000000e+000
      vertex  4.000000e+000  1.100000e+000 -3.000000e+000
      vertex -4.000000e+000  1.100000e+000 -3.000000e+000
    endloop
  endfacet
  facet normal  -0.000000e+000  0.000000e+000 -1.000000e+000
    outer loop
      vertex -6.000000e+000  2.500000e+000 -3.000000e+000
      vertex -4.000000e+000  1.100000e+000 -3.000000e+000
      vertex -4.214599e+000  1.078864e+000 -3.000000e+000
    endloop
  endfacet
  facet normal  -0.000000e+000  0.000000e+000 -9.999999e-001
    outer loop
      vertex -6.000000e+000  2.500000e+000 -3.000000e+000
      vertex -4.214599e+000  1.078864e+000 -3.000000e+000
      vertex -4.420952e+000  1.016268e+000 -3.000000e+000
    endloop
  endfacet
  facet normal  -0.000000e+000  0.000000e+000 -1.000000e+000
    outer loop
      vertex -6.000000e+000  2.500000e+000 -3.000000e+000
      vertex -4.420952e+000  1.016268e+000 -3.000000e+000
      vertex -4.611127e+000  9.146166e-001 -3.000000e+000
    endloop
  endfacet
  facet normal  -0.000000e+000  0.000000e+000 -1.000000e+000
    outer loop
      vertex -6.000000e+000  2.500000e+000 -3.000000e+000
      vertex -4.611127e+000  9.146166e-001 -3.000000e+000
      vertex -4.777817e+000  7.778175e-001 -3.000000e+000
    endloop
  endfacet
  facet normal  -0.000000e+000  0.000000e+000 -1.000000e+000
    outer loop
      vertex -6.000000e+000  2.500000e+000 -3.000000e+000
      vertex -4.777817e+000  7.778175e-001 -3.000000e+000
      vertex -4.914617e+000  6.111273e-001 -3.000000e+000
    endloop
  endfacet
  facet normal  -0.000000e+000  0.000000e+000 -9.999999e-001
    outer loop
      vertex -6.000000e+000  2.500000e+000 -3.000000e+000
      vertex -4.914617e+000  6.111273e-001 -3.000000e+000
      vertex -5.016267e+000  4.209518e-001 -3.000000e+000
    endloop
  endfacet
  facet normal  -0.000000e+000  0.000000e+000 -1.000000e+000
    outer loop
      vertex -6.000000e+000  2.500000e+000 -3.000000e+000
      vertex -5.016267e+000  4.209518e-001 -3.000000e+000
      vertex -5.078864e+000  2.145994e-001 -3.000000e+000
    endloop
  endfacet
  facet normal  -0.000000e+000  0.000000e+000 -1.000000e+000
    outer loop
      vertex -6.000000e+000  2.500000e+000 -3.000000e+000
      vertex -5.078864e+000  2.145994e-001 -3.000000e+000
      vertex -6.000000e+000 -2.500000e+000 -3.000000e+000
    endloop
  endfacet
  facet normal  0.000000e+000  0.000000e+000 -1.000000e+000
    outer loop
      vertex -6.000000e+000 -2.500000e+000 -3.000000e+000
      vertex -5.078864e+000  2.145994e-001 -3.000000e+000
      vertex -5.100000e+000  1.347112e-016 -3.000000e+000
    endloop
  endfacet
  facet normal  0.000000e+000  -0.000000e+000 -9.999999e-001
    outer loop
      vertex -6.000000e+000 -2.500000e+000 -3.000000e+000
      vertex -5.100000e+000  1.347112e-016 -3.000000e+000
      vertex -5.078864e+000 -2.145994e-001 -3.000000e+000
    endloop
  endfacet
  facet normal  0.000000e+000  -0.000000e+000 -1.000000e+000
    outer loop
      vertex -6.000000e+000 -2.500000e+000 -3.000000e+000
      vertex -5.078864e+000 -2.145994e-001 -3.000000e+000
      vertex -5.016267e+000 -4.209518e-001 -3.000000e+000
    endloop
  endfacet
  facet normal  0.000000e+000  -0.000000e+000 -9.999999e-001
    outer loop
      vertex -6.000000e+000 -2.500000e+000 -3.000000e+000
      vertex -5.016267e+000 -4.209518e-001 -3.000000e+000
      vertex -4.914617e+000 -6.111273e-001 -3.000000e+000
    endloop
  endfacet
  facet normal  0.000000e+000  -0.000000e+000 -1.000000e+000
    outer loop
      vertex -6.000000e+000 -2.500000e+000 -3.000000e+000
      vertex -4.914617e+000 -6.111273e-001 -3.000000e+000
      vertex -4.777817e+000 -7.778175e-001 -3.000000e+000
    endloop
  endfacet
  facet normal  0.000000e+000  -0.000000e+000 -1.000000e+000
    outer loop
      vertex -6.000000e+000 -2.500000e+000 -3.000000e+000
      vertex -4.777817e+000 -7.778175e-001 -3.000000e+000
      vertex -4.611127e+000 -9.146166e-001 -3.000000e+000
    endloop
  endfacet
  facet normal  0.000000e+000  -0.000000e+000 -1.000000e+000
    outer loop
      vertex -6.000000e+000 -2.500000e+000 -3.000000e+000
      vertex -4.611127e+000 -9.146166e-001 -3.000000e+000
      vertex -4.420952e+000 -1.016268e+000 -3.000000e+000
    endloop
  endfacet
  facet normal  0.000000e+000  -0.000000e+000 -9.999999e-001
    outer loop
      vertex -6.000000e+000 -2.500000e+000 -3.000000e+000
      vertex -4.420952e+000 -1.016268e+000 -3.000000e+000
      vertex -4.214599e+000 -1.078864e+000 -3.000000e+000
    endloop
  endfacet
  facet normal  0.000000e+000  -0.000000e+000 -1.000000e+000
    outer loop
      vertex -6.000000e+000 -2.500000e+000 -3.000000e+000
      vertex -4.214599e+000 -1.078864e+000 -3.000000e+000
      vertex -4.000000e+000 -1.100000e+000 -3.000000e+000
    endloop
  endfacet
  facet normal  0.000000e+000  -0.000000e+000 -1.000000e+000
    outer loop
      vertex -6.000000e+000 -2.500000e+000 -3.000000e+000
      vertex -4.000000e+000 -1.100000e+000 -3.000000e+000
      vertex  4.000000e+000 -1.100000e+000 -3.000000e+000
    endloop
  endfacet
  facet normal  0.000000e+000  -0.000000e+000 -1.000000e+000
    outer loop
      vertex -6.000000e+000 -2.500000e+000 -3.000000e+000
      vertex  4.000000e+000 -1.100000e+000 -3.000000e+000
      vertex  6.000000e+000 -2.500000e+000 -3.000000e+000
    endloop
  endfacet
  facet normal  0.000000e+000  0.000000e+000 -1.000000e+000
    outer loop
      vertex  6.000000e+000 -2.500000e+000 -3.000000e+000
      vertex  4.000000e+000 -1.100000e+000 -3.000000e+000
      vertex  4.214599e+000 -1.078864e+000 -3.000000e+000
    endloop
  endfacet
  facet normal  0.000000e+000  0.000000e+000 -9.999999e-001
    outer loop
      vertex  6.000000e+000 -2.500000e+000 -3.000000e+000
      vertex  4.214599e+000 -1.078864e+000 -3.000000e+000
      vertex  4.420952e+000 -1.016268e+000 -3.000000e+000
    endloop
  endfacet
  facet normal  0.000000e+000  0.000000e+000 -1.000000e+000
    outer loop
      vertex  6.000000e+000 -2.500000e+000 -3.000000e+000
      vertex  4.420952e+000 -1.016268e+000 -3.000000e+000
      vertex  4.611127e+000 -9.146166e-001 -3.000000e+000
    endloop
  endfacet
  facet normal  0.000000e+000  0.000000e+000 -1.000000e+000
    outer loop
      vertex  6.000000e+000 -2.500000e+000 -3.000000e+000
      vertex  4.611127e+000 -9.146166e-001 -3.000000e+000
      vertex  4.777817e+000 -7.778175e-001 -3.000000e+000
    endloop
  endfacet
  facet normal  0.000000e+000  0.000000e+000 -1.000000e+000
    outer loop
      vertex  6.000000e+000 -2.500000e+000 -3.000000e+000
      vertex  4.777817e+000 -7.778175e-001 -3.000000e+000
      vertex  4.914617e+000 -6.111273e-001 -3.000000e+000
    endloop
  endfacet
  facet normal  0.000000e+000  0.000000e+000 -9.999999e-001
    outer loop
      vertex  6.000000e+000 -2.500000e+000 -3.000000e+000
      vertex  4.914617e+000 -6.111273e-001 -3.000000e+000
      vertex  5.016267e+000 -4.209518e-001 -3.000000e+000
    endloop
  endfacet
  facet normal  0.000000e+000  0.000000e+000 -1.000000e+000
    outer loop
      vertex  6.000000e+000 -2.500000e+000 -3.000000e+000
      vertex  5.016267e+000 -4.209518e-001 -3.000000e+000
      vertex  5.078864e+000 -2.145994e-001 -3.000000e+000
    endloop
  endfacet
  facet normal  0.000000e+000  0.000000e+000 -9.999999e-001
    outer loop
      vertex  6.000000e+000 -2.500000e+000 -3.000000e+000
      vertex  5.078864e+000 -2.145994e-001 -3.000000e+000
      vertex  5.100000e+000  0.000000e+000 -3.000000e+000
    endloop
  endfacet
  facet normal  0.000000e+000  0.000000e+000 -1.000000e+000
    outer loop
      vertex  6.000000e+000 -2.500000e+000 -3.000000e+000
      vertex  5.100000e+000  0.000000e+000 -3.000000e+000
      vertex  5.078864e+000  2.145994e-001 -3.000000e+000
    endloop
  endfacet
  facet normal  0.000000e+000  0.000000e+000 -1.000000e+000
    outer loop
      vertex  6.000000e+000  2.500000e+000 -3.000000e+000
      vertex  6.000000e+000 -2.500000e+000 -3.000000e+000
      vertex  5.078864e+000  2.145994e-001 -3.000000e+000
    endloop
  endfacet
  facet normal  0.000000e+000  0.000000e+000 -1.000000e+000
    outer loop
      vertex  6.000000e+000  2.500000e+000 -3.000000e+000
      vertex  5.078864e+000  2.145994e-001 -3.000000e+000
      vertex  5.016267e+000  4.209518e-001 -3.000000e+000
    endloop
  endfacet
  facet normal  0.000000e+000  0.000000e+000 -9.999999e-001
    outer loop
      vertex  6.000000e+000  2.500000e+000 -3.000000e+000
      vertex  5.016267e+000  4.209518e-001 -3.000000e+000
      vertex  4.914617e+000  6.111273e-001 -3.000000e+000
    endloop
  endfacet
  facet normal  0.000000e+000  0.000000e+000 -1.000000e+000
    outer loop
      vertex  6.000000e+000  2.500000e+000 -3.000000e+000
      vertex  4.914617e+000  6.111273e-001 -3.000000e+000
      vertex  4.777817e+000  7.778175e-001 -3.000000e+000
    endloop
  endfacet
  facet normal  0.000000e+000  0.000000e+000 -1.000000e+000
    outer loop
      vertex  6.000000e+000  2.500000e+000 -3.000000e+000
      vertex  4.777817e+000  7.778175e-001 -3.000000e+000
      vertex  4.611127e+000  9.146166e-001 -3.000000e+000
    endloop
  endfacet
  facet normal  0.000000e+000  0.000000e+000 -1.000000e+000
    outer loop
      vertex  6.000000e+000  2.500000e+000 -3.000000e+000
      vertex  4.611127e+000  9.146166e-001 -3.000000e+000
      vertex  4.420952e+000  1.016268e+000 -3.000000e+000
    endloop
  endfacet
  facet normal  0.000000e+000  0.000000e+000 -9.999999e-001
    outer loop
      vertex  6.000000e+000  2.500000e+000 -3.000000e+000
      vertex  4.420952e+000  1.016268e+000 -3.000000e+000
      vertex  4.214599e+000  1.078864e+000 -3.000000e+000
    endloop
  endfacet
  facet normal  0.000000e+000  0.000000e+000 -1.000000e+000
    outer loop
      vertex  6.000000e+000  2.500000e+000 -3.000000e+000
      vertex  4.214599e+000  1.078864e+000 -3.000000e+000
      vertex  4.000000e+000  1.100000e+000 -3.000000e+000
    endloop
  endfacet
  facet normal  0.000000e+000  0.000000e+000 -1.000000e+000
    outer loop
      vertex  2.900000e+000  1.347112e-016 -3.000000e+000
      vertex -2.921136e+000  2.145994e-001 -3.000000e+000
      vertex  2.921136e+000  2.145994e-001 -3.000000e+000
    endloop
  endfacet
  facet normal  0.000000e+000  0.000000e+000 -1.000000e+000
    outer loop
      vertex  2.921136e+000  2.145994e-001 -3.000000e+000
      vertex -2.921136e+000  2.145994e-001 -3.000000e+000
      vertex -2.983732e+000  4.209518e-001 -3.000000e+000
    endloop
  endfacet
  facet normal  0.000000e+000  0.000000e+000 -1.000000e+000
    outer loop
      vertex  2.921136e+000  2.145994e-001 -3.000000e+000
      vertex -2.983732e+000  4.209518e-001 -3.000000e+000
      vertex  2.983732e+000  4.209518e-001 -3.000000e+000
    endloop
  endfacet
  facet normal  0.000000e+000  0.000000e+000 -1.000000e+000
    outer loop
      vertex  2.983732e+000  4.209518e-001 -3.000000e+000
      vertex -2.983732e+000  4.209518e-001 -3.000000e+000
      vertex -3.085383e+000  6.111273e-001 -3.000000e+000
    endloop
  endfacet
  facet normal  0.000000e+000  0.000000e+000 -1.000000e+000
    outer loop
      vertex  2.983732e+000  4.209518e-001 -3.000000e+000
      vertex -3.085383e+000  6.111273e-001 -3.000000e+000
      vertex  3.085383e+000  6.111273e-001 -3.000000e+000
    endloop
  endfacet
  facet normal  0.000000e+000  0.000000e+000 -1.000000e+000
    outer loop
      vertex  3.085383e+000  6.111273e-001 -3.000000e+000
      vertex -3.085383e+000  6.111273e-001 -3.000000e+000
      vertex -3.222183e+000  7.778175e-001 -3.000000e+000
    endloop
  endfacet
  facet normal  0.000000e+000  0.000000e+000 -1.000000e+000
    outer loop
      vertex  3.085383e+000  6.111273e-001 -3.000000e+000
      vertex -3.222183e+000  7.778175e-001 -3.000000e+000
      vertex  3.222183e+000  7.778175e-001 -3.000000e+000
    endloop
  endfacet
  facet normal  0.000000e+000  0.000000e+000 -1.000000e+000
    outer loop
      vertex  3.222183e+000  7.778175e-001 -3.000000e+000
      vertex -3.222183e+000  7.778175e-001 -3.000000e+000
      vertex -3.388873e+000  9.146166e-001 -3.000000e+000
    endloop
  endfacet
  facet normal  0.000000e+000  0.000000e+000 -9.999999e-001
    outer loop
      vertex  3.222183e+000  7.778175e-001 -3.000000e+000
      vertex -3.388873e+000  9.146166e-001 -3.000000e+000
      vertex  3.388873e+000  9.146166e-001 -3.000000e+000
    endloop
  endfacet
  facet normal  0.000000e+000  0.000000e+000 -1.000000e+000
    outer loop
      vertex  3.388873e+000  9.146166e-001 -3.000000e+000
      vertex -3.388873e+000  9.146166e-001 -3.000000e+000
      vertex -3.579048e+000  1.016268e+000 -3.000000e+000
    endloop
  endfacet
  facet normal  0.000000e+000  0.000000e+000 -1.000000e+000
    outer loop
      vertex  3.388873e+000  9.146166e-001 -3.000000e+000
      vertex -3.579048e+000  1.016268e+000 -3.000000e+000
      vertex  3.579048e+000  1.016268e+000 -3.000000e+000
    endloop
  endfacet
  facet normal  0.000000e+000  0.000000e+000 -1.000000e+000
    outer loop
      vertex  3.579048e+000  1.016268e+000 -3.000000e+000
      vertex -3.579048e+000  1.016268e+000 -3.000000e+000
      vertex -3.785401e+000  1.078864e+000 -3.000000e+000
    endloop
  endfacet
  facet normal  0.000000e+000  0.000000e+000 -9.999999e-001
    outer loop
      vertex  3.579048e+000  1.016268e+000 -3.000000e+000
      vertex -3.785401e+000  1.078864e+000 -3.000000e+000
      vertex  3.785401e+000  1.078864e+000 -3.000000e+000
    endloop
  endfacet
  facet normal  0.000000e+000  0.000000e+000 -1.000000e+000
    outer loop
      vertex  3.785401e+000  1.078864e+000 -3.000000e+000
      vertex -3.785401e+000  1.078864e+000 -3.000000e+000
      vertex -4.000000e+000  1.100000e+000 -3.000000e+000
    endloop
  endfacet
  facet normal  0.000000e+000  0.000000e+000 -1.000000e+000
    outer loop
      vertex  3.785401e+000  1.078864e+000 -3.000000e+000
      vertex -4.000000e+000  1.100000e+000 -3.000000e+000
      vertex  4.000000e+000  1.100000e+000 -3.000000e+000
    endloop
  endfacet
  facet normal  -0.000000e+000  0.000000e+000 -1.000000e+000
    outer loop
      vertex -2.921136e+000  2.145994e-001 -3.000000e+000
      vertex  2.900000e+000  1.347112e-016 -3.000000e+000
      vertex -2.900000e+000 -1.246419e-015 -3.000000e+000
    endloop
  endfacet
  facet normal  0.000000e+000  0.000000e+000 -1.000000e+000
    outer loop
      vertex -2.900000e+000 -1.246419e-015 -3.000000e+000
      vertex  2.900000e+000  1.347112e-016 -3.000000e+000
      vertex  2.921136e+000 -2.145994e-001 -3.000000e+000
    endloop
  endfacet
  facet normal  0.000000e+000  0.000000e+000 -1.000000e+000
    outer loop
      vertex -2.900000e+000 -1.246419e-015 -3.000000e+000
      vertex  2.921136e+000 -2.145994e-001 -3.000000e+000
      vertex -2.921136e+000 -2.145994e-001 -3.000000e+000
    endloop
  endfacet
  facet normal  0.000000e+000  0.000000e+000 -1.000000e+000
    outer loop
      vertex -2.921136e+000 -2.145994e-001 -3.000000e+000
      vertex  2.921136e+000 -2.145994e-001 -3.000000e+000
      vertex  2.983732e+000 -4.209518e-001 -3.000000e+000
    endloop
  endfacet
  facet normal  0.000000e+000  0.000000e+000 -1.000000e+000
    outer loop
      vertex -2.921136e+000 -2.145994e-001 -3.000000e+000
      vertex  2.983732e+000 -4.209518e-001 -3.000000e+000
      vertex -2.983732e+000 -4.209518e-001 -3.000000e+000
    endloop
  endfacet
  facet normal  0.000000e+000  0.000000e+000 -1.000000e+000
    outer loop
      vertex -2.983732e+000 -4.209518e-001 -3.000000e+000
      vertex  2.983732e+000 -4.209518e-001 -3.000000e+000
      vertex  3.085383e+000 -6.111273e-001 -3.000000e+000
    endloop
  endfacet
  facet normal  0.000000e+000  0.000000e+000 -1.000000e+000
    outer loop
      vertex -2.983732e+000 -4.209518e-001 -3.000000e+000
      vertex  3.085383e+000 -6.111273e-001 -3.000000e+000
      vertex -3.085383e+000 -6.111273e-001 -3.000000e+000
    endloop
  endfacet
  facet normal  0.000000e+000  0.000000e+000 -1.000000e+000
    outer loop
      vertex -3.085383e+000 -6.111273e-001 -3.000000e+000
      vertex  3.085383e+000 -6.111273e-001 -3.000000e+000
      vertex  3.222183e+000 -7.778175e-001 -3.000000e+000
    endloop
  endfacet
  facet normal  0.000000e+000  0.000000e+000 -1.000000e+000
    outer loop
      vertex -3.085383e+000 -6.111273e-001 -3.000000e+000
      vertex  3.222183e+000 -7.778175e-001 -3.000000e+000
      vertex -3.222183e+000 -7.778175e-001 -3.000000e+000
    endloop
  endfacet
  facet normal  0.000000e+000  0.000000e+000 -1.000000e+000
    outer loop
      vertex -3.222183e+000 -7.778175e-001 -3.000000e+000
      vertex  3.222183e+000 -7.778175e-001 -3.000000e+000
      vertex  3.388873e+000 -9.146166e-001 -3.000000e+000
    endloop
  endfacet
  facet normal  0.000000e+000  0.000000e+000 -9.999999e-001
    outer loop
      vertex -3.222183e+000 -7.778175e-001 -3.000000e+000
      vertex  3.388873e+000 -9.146166e-001 -3.000000e+000
      vertex -3.388873e+000 -9.146166e-001 -3.000000e+000
    endloop
  endfacet
  facet normal  0.000000e+000  0.000000e+000 -1.000000e+000
    outer loop
      vertex -3.388873e+000 -9.146166e-001 -3.000000e+000
      vertex  3.388873e+000 -9.146166e-001 -3.000000e+000
      vertex  3.579048e+000 -1.016268e+000 -3.000000e+000
    endloop
  endfacet
  facet normal  0.000000e+000  0.000000e+000 -1.000000e+000
    outer loop
      vertex -3.388873e+000 -9.146166e-001 -3.000000e+000
      vertex  3.579048e+000 -1.016268e+000 -3.000000e+000
      vertex -3.579048e+000 -1.016268e+000 -3.000000e+000
    endloop
  endfacet
  facet normal  0.000000e+000  0.000000e+000 -1.000000e+000
    outer loop
      vertex -3.579048e+000 -1.016268e+000 -3.000000e+000
      vertex  3.579048e+000 -1.016268e+000 -3.000000e+000
      vertex  3.785401e+000 -1.078864e+000 -3.000000e+000
    endloop
  endfacet
  facet normal  0.000000e+000  0.000000e+000 -9.999999e-001
    outer loop
      vertex -3.579048e+000 -1.016268e+000 -3.000000e+000
      vertex  3.785401e+000 -1.078864e+000 -3.000000e+000
      vertex -3.785401e+000 -1.078864e+000 -3.000000e+000
    endloop
  endfacet
  facet normal  0.000000e+000  0.000000e+000 -1.000000e+000
    outer loop
      vertex -3.785401e+000 -1.078864e+000 -3.000000e+000
      vertex  3.785401e+000 -1.078864e+000 -3.000000e+000
      vertex  4.000000e+000 -1.100000e+000 -3.000000e+000
    endloop
  endfacet
  facet normal  0.000000e+000  0.000000e+000 -1.000000e+000
    outer loop
      vertex -3.785401e+000 -1.078864e+000 -3.000000e+000
      vertex  4.000000e+000 -1.100000e+000 -3.000000e+000
      vertex -4.000000e+000 -1.100000e+000 -3.000000e+000
    endloop
  endfacet
  facet normal -9.801701e-002  9.951847e-001  0.000000e+000
    outer loop
      vertex -4.000000e+000 -1.100000e+000 -3.000000e+000
      vertex -3.785401e+000 -1.078864e+000  0.000000e+000
      vertex -3.785401e+000 -1.078864e+000 -3.000000e+000
    endloop
  endfacet
  facet normal -2.902846e-001  9.569404e-001  0.000000e+000
    outer loop
      vertex -3.785401e+000 -1.078864e+000 -3.000000e+000
      vertex -3.785401e+000 -1.078864e+000  0.000000e+000
      vertex -3.579048e+000 -1.016268e+000  0.000000e+000
    endloop
  endfacet
  facet normal -2.902846e-001  9.569404e-001  0.000000e+000
    outer loop
      vertex -3.785401e+000 -1.078864e+000 -3.000000e+000
      vertex -3.579048e+000 -1.016268e+000  0.000000e+000
      vertex -3.579048e+000 -1.016268e+000 -3.000000e+000
    endloop
  endfacet
  facet normal -4.713973e-001  8.819210e-001  0.000000e+000
    outer loop
      vertex -3.579048e+000 -1.016268e+000 -3.000000e+000
      vertex -3.579048e+000 -1.016268e+000  0.000000e+000
      vertex -3.388873e+000 -9.146166e-001  0.000000e+000
    endloop
  endfacet
  facet normal -4.713973e-001  8.819210e-001  0.000000e+000
    outer loop
      vertex -3.579048e+000 -1.016268e+000 -3.000000e+000
      vertex -3.388873e+000 -9.146166e-001  0.000000e+000
      vertex -3.388873e+000 -9.146166e-001 -3.000000e+000
    endloop
  endfacet
  facet normal -6.343929e-001  7.730108e-001  0.000000e+000
    outer loop
      vertex -3.388873e+000 -9.146166e-001 -3.000000e+000
      vertex -3.388873e+000 -9.146166e-001  0.000000e+000
      vertex -3.222183e+000 -7.778175e-001  0.000000e+000
    endloop
  endfacet
  facet normal -6.343929e-001  7.730108e-001  0.000000e+000
    outer loop
      vertex -3.388873e+000 -9.146166e-001 -3.000000e+000
      vertex -3.222183e+000 -7.778175e-001  0.000000e+000
      vertex -3.222183e+000 -7.778175e-001 -3.000000e+000
    endloop
  endfacet
  facet normal -7.730106e-001  6.343932e-001  0.000000e+000
    outer loop
      vertex -3.222183e+000 -7.778175e-001 -3.000000e+000
      vertex -3.222183e+000 -7.778175e-001  0.000000e+000
      vertex -3.085383e+000 -6.111273e-001  0.000000e+000
    endloop
  endfacet
  facet normal -7.730106e-001  6.343932e-001  0.000000e+000
    outer loop
      vertex -3.222183e+000 -7.778175e-001 -3.000000e+000
      vertex -3.085383e+000 -6.111273e-001  0.000000e+000
      vertex -3.085383e+000 -6.111273e-001 -3.000000e+000
    endloop
  endfacet
  facet normal -8.819212e-001  4.713969e-001  0.000000e+000
    outer loop
      vertex -3.085383e+000 -6.111273e-001 -3.000000e+000
      vertex -3.085383e+000 -6.111273e-001  0.000000e+000
      vertex -2.983732e+000 -4.209518e-001  0.000000e+000
    endloop
  endfacet
  facet normal -8.819212e-001  4.713969e-001  0.000000e+000
    outer loop
      vertex -3.085383e+000 -6.111273e-001 -3.000000e+000
      vertex -2.983732e+000 -4.209518e-001  0.000000e+000
      vertex -2.983732e+000 -4.209518e-001 -3.000000e+000
    endloop
  endfacet
  facet normal -9.569403e-001  2.902846e-001  0.000000e+000
    outer loop
      vertex -2.983732e+000 -4.209518e-001 -3.000000e+000
      vertex -2.983732e+000 -4.209518e-001  0.000000e+000
      vertex -2.921136e+000 -2.145994e-001  0.000000e+000
    endloop
  endfacet
  facet normal -9.569403e-001  2.902846e-001  0.000000e+000
    outer loop
      vertex -2.983732e+000 -4.209518e-001 -3.000000e+000
      vertex -2.921136e+000 -2.145994e-001  0.000000e+000
      vertex -2.921136e+000 -2.145994e-001 -3.000000e+000
    endloop
  endfacet
  facet normal -9.951847e-001  9.801646e-002  0.000000e+000
    outer loop
      vertex -2.921136e+000 -2.145994e-001 -3.000000e+000
      vertex -2.921136e+000 -2.145994e-001  0.000000e+000
      vertex -2.900000e+000 -1.246419e-015  0.000000e+000
    endloop
  endfacet
  facet normal -9.951847e-001  9.801646e-002  0.000000e+000
    outer loop
      vertex -2.921136e+000 -2.145994e-001 -3.000000e+000
      vertex -2.900000e+000 -1.246419e-015  0.000000e+000
      vertex -2.900000e+000 -1.246419e-015 -3.000000e+000
    endloop
  endfacet
  facet normal -9.801701e-002  9.951847e-001  0.000000e+000
    outer loop
      vertex -3.785401e+000 -1.078864e+000  0.000000e+000
      vertex -4.000000e+000 -1.100000e+000 -3.000000e+000
      vertex -4.000000e+000 -1.100000e+000  0.000000e+000
    endloop
  endfacet
  facet normal  9.801712e-002  9.951848e-001  0.000000e+000
    outer loop
      vertex -4.000000e+000 -1.100000e+000  0.000000e+000
      vertex -4.000000e+000 -1.100000e+000 -3.000000e+000
      vertex -4.214599e+000 -1.078864e+000 -3.000000e+000
    endloop
  endfacet
  facet normal  9.801712e-002  9.951848e-001  -0.000000e+000
    outer loop
      vertex -4.000000e+000 -1.100000e+000  0.000000e+000
      vertex -4.214599e+000 -1.078864e+000 -3.000000e+000
      vertex -4.214599e+000 -1.078864e+000  0.000000e+000
    endloop
  endfacet
  facet normal  2.902843e-001  9.569405e-001  0.000000e+000
    outer loop
      vertex -4.214599e+000 -1.078864e+000  0.000000e+000
      vertex -4.214599e+000 -1.078864e+000 -3.000000e+000
      vertex -4.420952e+000 -1.016268e+000 -3.000000e+000
    endloop
  endfacet
  facet normal  2.902843e-001  9.569405e-001  -0.000000e+000
    outer loop
      vertex -4.214599e+000 -1.078864e+000  0.000000e+000
      vertex -4.420952e+000 -1.016268e+000 -3.000000e+000
      vertex -4.420952e+000 -1.016268e+000  0.000000e+000
    endloop
  endfacet
  facet normal  4.713968e-001  8.819212e-001  0.000000e+000
    outer loop
      vertex -4.420952e+000 -1.016268e+000  0.000000e+000
      vertex -4.420952e+000 -1.016268e+000 -3.000000e+000
      vertex -4.611127e+000 -9.146166e-001 -3.000000e+000
    endloop
  endfacet
  facet normal  4.713968e-001  8.819212e-001  -0.000000e+000
    outer loop
      vertex -4.420952e+000 -1.016268e+000  0.000000e+000
      vertex -4.611127e+000 -9.146166e-001 -3.000000e+000
      vertex -4.611127e+000 -9.146166e-001  0.000000e+000
    endloop
  endfacet
  facet normal  6.343940e-001  7.730098e-001  0.000000e+000
    outer loop
      vertex -4.611127e+000 -9.146166e-001  0.000000e+000
      vertex -4.611127e+000 -9.146166e-001 -3.000000e+000
      vertex -4.777817e+000 -7.778175e-001 -3.000000e+000
    endloop
  endfacet
  facet normal  6.343940e-001  7.730098e-001  -0.000000e+000
    outer loop
      vertex -4.611127e+000 -9.146166e-001  0.000000e+000
      vertex -4.777817e+000 -7.778175e-001 -3.000000e+000
      vertex -4.777817e+000 -7.778175e-001  0.000000e+000
    endloop
  endfacet
  facet normal  7.730100e-001  6.343939e-001  0.000000e+000
    outer loop
      vertex -4.777817e+000 -7.778175e-001  0.000000e+000
      vertex -4.777817e+000 -7.778175e-001 -3.000000e+000
      vertex -4.914617e+000 -6.111273e-001 -3.000000e+000
    endloop
  endfacet
  facet normal  7.730100e-001  6.343939e-001  -0.000000e+000
    outer loop
      vertex -4.777817e+000 -7.778175e-001  0.000000e+000
      vertex -4.914617e+000 -6.111273e-001 -3.000000e+000
      vertex -4.914617e+000 -6.111273e-001  0.000000e+000
    endloop
  endfacet
  facet normal  8.819216e-001  4.713960e-001  0.000000e+000
    outer loop
      vertex -4.914617e+000 -6.111273e-001  0.000000e+000
      vertex -4.914617e+000 -6.111273e-001 -3.000000e+000
      vertex -5.016267e+000 -4.209518e-001 -3.000000e+000
    endloop
  endfacet
  facet normal  8.819216e-001  4.713960e-001  -0.000000e+000
    outer loop
      vertex -4.914617e+000 -6.111273e-001  0.000000e+000
      vertex -5.016267e+000 -4.209518e-001 -3.000000e+000
      vertex -5.016267e+000 -4.209518e-001  0.000000e+000
    endloop
  endfacet
  facet normal  9.569403e-001  2.902846e-001  0.000000e+000
    outer loop
      vertex -5.016267e+000 -4.209518e-001  0.000000e+000
      vertex -5.016267e+000 -4.209518e-001 -3.000000e+000
      vertex -5.078864e+000 -2.145994e-001 -3.000000e+000
    endloop
  endfacet
  facet normal  9.569403e-001  2.902846e-001  -0.000000e+000
    outer loop
      vertex -5.016267e+000 -4.209518e-001  0.000000e+000
      vertex -5.078864e+000 -2.145994e-001 -3.000000e+000
      vertex -5.078864e+000 -2.145994e-001  0.000000e+000
    endloop
  endfacet
  facet normal  9.951846e-001  9.801756e-002  0.000000e+000
    outer loop
      vertex -5.078864e+000 -2.145994e-001  0.000000e+000
      vertex -5.078864e+000 -2.145994e-001 -3.000000e+000
      vertex -5.100000e+000  1.347112e-016 -3.000000e+000
    endloop
  endfacet
  facet normal  9.951846e-001  9.801756e-002  -0.000000e+000
    outer loop
      vertex -5.078864e+000 -2.145994e-001  0.000000e+000
      vertex -5.100000e+000  1.347112e-016 -3.000000e+000
      vertex -5.100000e+000  1.347112e-016  0.000000e+000
    endloop
  endfacet
  facet normal  9.801712e-002 -9.951848e-001  0.000000e+000
    outer loop
      vertex -4.000000e+000  1.100000e+000 -3.000000e+000
      vertex -4.214599e+000  1.078864e+000  0.000000e+000
      vertex -4.214599e+000  1.078864e+000 -3.000000e+000
    endloop
  endfacet
  facet normal  2.902843e-001 -9.569405e-001  0.000000e+000
    outer loop
      vertex -4.214599e+000  1.078864e+000 -3.000000e+000
      vertex -4.214599e+000  1.078864e+000  0.000000e+000
      vertex -4.420952e+000  1.016268e+000  0.000000e+000
    endloop
  endfacet
  facet normal  2.902843e-001 -9.569405e-001  0.000000e+000
    outer loop
      vertex -4.214599e+000  1.078864e+000 -3.000000e+000
      vertex -4.420952e+000  1.016268e+000  0.000000e+000
      vertex -4.420952e+000  1.016268e+000 -3.000000e+000
    endloop
  endfacet
  facet normal  4.713968e-001 -8.819212e-001  0.000000e+000
    outer loop
      vertex -4.420952e+000  1.016268e+000 -3.000000e+000
      vertex -4.420952e+000  1.016268e+000  0.000000e+000
      vertex -4.611127e+000  9.146166e-001  0.000000e+000
    endloop
  endfacet
  facet normal  4.713968e-001 -8.819212e-001  0.000000e+000
    outer loop
      vertex -4.420952e+000  1.016268e+000 -3.000000e+000
      vertex -4.611127e+000  9.146166e-001  0.000000e+000
      vertex -4.611127e+000  9.146166e-001 -3.000000e+000
    endloop
  endfacet
  facet normal  6.343940e-001 -7.730098e-001  0.000000e+000
    outer loop
      vertex -4.611127e+000  9.146166e-001 -3.000000e+000
      vertex -4.611127e+000  9.146166e-001  0.000000e+000
      vertex -4.777817e+000  7.778175e-001  0.000000e+000
    endloop
  endfacet
  facet normal  6.343940e-001 -7.730098e-001  0.000000e+000
    outer loop
      vertex -4.611127e+000  9.146166e-001 -3.000000e+000
      vertex -4.777817e+000  7.778175e-001  0.000000e+000
      vertex -4.777817e+000  7.778175e-001 -3.000000e+000
    endloop
  endfacet
  facet normal  7.730100e-001 -6.343939e-001  0.000000e+000
    outer loop
      vertex -4.777817e+000  7.778175e-001 -3.000000e+000
      vertex -4.777817e+000  7.778175e-001  0.000000e+000
      vertex -4.914617e+000  6.111273e-001  0.000000e+000
    endloop
  endfacet
  facet normal  7.730100e-001 -6.343939e-001  0.000000e+000
    outer loop
      vertex -4.777817e+000  7.778175e-001 -3.000000e+000
      vertex -4.914617e+000  6.111273e-001  0.000000e+000
      vertex -4.914617e+000  6.111273e-001 -3.000000e+000
    endloop
  endfacet
  facet normal  8.819216e-001 -4.713960e-001  0.000000e+000
    outer loop
      vertex -4.914617e+000  6.111273e-001 -3.000000e+000
      vertex -4.914617e+000  6.111273e-001  0.000000e+000
      vertex -5.016267e+000  4.209518e-001  0.000000e+000
    endloop
  endfacet
  facet normal  8.819216e-001 -4.713960e-001  0.000000e+000
    outer loop
      vertex -4.914617e+000  6.111273e-001 -3.000000e+000
      vertex -5.016267e+000  4.209518e-001  0.000000e+000
      vertex -5.016267e+000  4.209518e-001 -3.000000e+000
    endloop
  endfacet
  facet normal  9.569403e-001 -2.902846e-001  0.000000e+000
    outer loop
      vertex -5.016267e+000  4.209518e-001 -3.000000e+000
      vertex -5.016267e+000  4.209518e-001  0.000000e+000
      vertex -5.078864e+000  2.145994e-001  0.000000e+000
    endloop
  endfacet
  facet normal  9.569403e-001 -2.902846e-001  0.000000e+000
    outer loop
      vertex -5.016267e+000  4.209518e-001 -3.000000e+000
      vertex -5.078864e+000  2.145994e-001  0.000000e+000
      vertex -5.078864e+000  2.145994e-001 -3.000000e+000
    endloop
  endfacet
  facet normal  9.951846e-001 -9.801756e-002  0.000000e+000
    outer loop
      vertex -5.078864e+000  2.145994e-001 -3.000000e+000
      vertex -5.078864e+000  2.145994e-001  0.000000e+000
      vertex -5.100000e+000  1.347112e-016  0.000000e+000
    endloop
  endfacet
  facet normal  9.951846e-001 -9.801756e-002  0.000000e+000
    outer loop
      vertex -5.078864e+000  2.145994e-001 -3.000000e+000
      vertex -5.100000e+000  1.347112e-016  0.000000e+000
      vertex -5.100000e+000  1.347112e-016 -3.000000e+000
    endloop
  endfacet
  facet normal  9.801712e-002 -9.951848e-001  0.000000e+000
    outer loop
      vertex -4.214599e+000  1.078864e+000  0.000000e+000
      vertex -4.000000e+000  1.100000e+000 -3.000000e+000
      vertex -4.000000e+000  1.100000e+000  0.000000e+000
    endloop
  endfacet
  facet normal -9.801701e-002 -9.951847e-001  -0.000000e+000
    outer loop
      vertex -4.000000e+000  1.100000e+000  0.000000e+000
      vertex -4.000000e+000  1.100000e+000 -3.000000e+000
      vertex -3.785401e+000  1.078864e+000 -3.000000e+000
    endloop
  endfacet
  facet normal -9.801701e-002 -9.951847e-001  0.000000e+000
    outer loop
      vertex -4.000000e+000  1.100000e+000  0.000000e+000
      vertex -3.785401e+000  1.078864e+000 -3.000000e+000
      vertex -3.785401e+000  1.078864e+000  0.000000e+000
    endloop
  endfacet
  facet normal -2.902846e-001 -9.569404e-001  -0.000000e+000
    outer loop
      vertex -3.785401e+000  1.078864e+000  0.000000e+000
      vertex -3.785401e+000  1.078864e+000 -3.000000e+000
      vertex -3.579048e+000  1.016268e+000 -3.000000e+000
    endloop
  endfacet
  facet normal -2.902846e-001 -9.569404e-001  0.000000e+000
    outer loop
      vertex -3.785401e+000  1.078864e+000  0.000000e+000
      vertex -3.579048e+000  1.016268e+000 -3.000000e+000
      vertex -3.579048e+000  1.016268e+000  0.000000e+000
    endloop
  endfacet
  facet normal -4.713973e-001 -8.819210e-001  -0.000000e+000
    outer loop
      vertex -3.579048e+000  1.016268e+000  0.000000e+000
      vertex -3.579048e+000  1.016268e+000 -3.000000e+000
      vertex -3.388873e+000  9.146166e-001 -3.000000e+000
    endloop
  endfacet
  facet normal -4.713973e-001 -8.819210e-001  0.000000e+000
    outer loop
      vertex -3.579048e+000  1.016268e+000  0.000000e+000
      vertex -3.388873e+000  9.146166e-001 -3.000000e+000
      vertex -3.388873e+000  9.146166e-001  0.000000e+000
    endloop
  endfacet
  facet normal -6.343929e-001 -7.730108e-001  -0.000000e+000
    outer loop
      vertex -3.388873e+000  9.146166e-001  0.000000e+000
      vertex -3.388873e+000  9.146166e-001 -3.000000e+000
      vertex -3.222183e+000  7.778175e-001 -3.000000e+000
    endloop
  endfacet
  facet normal -6.343929e-001 -7.730108e-001  0.000000e+000
    outer loop
      vertex -3.388873e+000  9.146166e-001  0.000000e+000
      vertex -3.222183e+000  7.778175e-001 -3.000000e+000
      vertex -3.222183e+000  7.778175e-001  0.000000e+000
    endloop
  endfacet
  facet normal -7.730106e-001 -6.343932e-001  -0.000000e+000
    outer loop
      vertex -3.222183e+000  7.778175e-001  0.000000e+000
      vertex -3.222183e+000  7.778175e-001 -3.000000e+000
      vertex -3.085383e+000  6.111273e-001 -3.000000e+000
    endloop
  endfacet
  facet normal -7.730106e-001 -6.343932e-001  0.000000e+000
    outer loop
      vertex -3.222183e+000  7.778175e-001  0.000000e+000
      vertex -3.085383e+000  6.111273e-001 -3.000000e+000
      vertex -3.085383e+000  6.111273e-001  0.000000e+000
    endloop
  endfacet
  facet normal -8.819212e-001 -4.713969e-001  -0.000000e+000
    outer loop
      vertex -3.085383e+000  6.111273e-001  0.000000e+000
      vertex -3.085383e+000  6.111273e-001 -3.000000e+000
      vertex -2.983732e+000  4.209518e-001 -3.000000e+000
    endloop
  endfacet
  facet normal -8.819212e-001 -4.713969e-001  0.000000e+000
    outer loop
      vertex -3.085383e+000  6.111273e-001  0.000000e+000
      vertex -2.983732e+000  4.209518e-001 -3.000000e+000
      vertex -2.983732e+000  4.209518e-001  0.000000e+000
    endloop
  endfacet
  facet normal -9.569403e-001 -2.902846e-001  -0.000000e+000
    outer loop
      vertex -2.983732e+000  4.209518e-001  0.000000e+000
      vertex -2.983732e+000  4.209518e-001 -3.000000e+000
      vertex -2.921136e+000  2.145994e-001 -3.000000e+000
    endloop
  endfacet
  facet normal -9.569403e-001 -2.902846e-001  0.000000e+000
    outer loop
      vertex -2.983732e+000  4.209518e-001  0.000000e+000
      vertex -2.921136e+000  2.145994e-001 -3.000000e+000
      vertex -2.921136e+000  2.145994e-001  0.000000e+000
    endloop
  endfacet
  facet normal -9.951847e-001 -9.801646e-002  -0.000000e+000
    outer loop
      vertex -2.921136e+000  2.145994e-001  0.000000e+000
      vertex -2.921136e+000  2.145994e-001 -3.000000e+000
      vertex -2.900000e+000 -1.246419e-015 -3.000000e+000
    endloop
  endfacet
  facet normal -9.951847e-001 -9.801646e-002  0.000000e+000
    outer loop
      vertex -2.921136e+000  2.145994e-001  0.000000e+000
      vertex -2.900000e+000 -1.246419e-015 -3.000000e+000
      vertex -2.900000e+000 -1.246419e-015  0.000000e+000
    endloop
  endfacet
  facet normal  9.801701e-002 -9.951847e-001  0.000000e+000
    outer loop
      vertex  4.000000e+000  1.100000e+000 -3.000000e+000
      vertex  3.785401e+000  1.078864e+000  0.000000e+000
      vertex  3.785401e+000  1.078864e+000 -3.000000e+000
    endloop
  endfacet
  facet normal  2.902846e-001 -9.569404e-001  0.000000e+000
    outer loop
      vertex  3.785401e+000  1.078864e+000 -3.000000e+000
      vertex  3.785401e+000  1.078864e+000  0.000000e+000
      vertex  3.579048e+000  1.016268e+000  0.000000e+000
    endloop
  endfacet
  facet normal  2.902846e-001 -9.569404e-001  0.000000e+000
    outer loop
      vertex  3.785401e+000  1.078864e+000 -3.000000e+000
      vertex  3.579048e+000  1.016268e+000  0.000000e+000
      vertex  3.579048e+000  1.016268e+000 -3.000000e+000
    endloop
  endfacet
  facet normal  4.713973e-001 -8.819210e-001  0.000000e+000
    outer loop
      vertex  3.579048e+000  1.016268e+000 -3.000000e+000
      vertex  3.579048e+000  1.016268e+000  0.000000e+000
      vertex  3.388873e+000  9.146166e-001  0.000000e+000
    endloop
  endfacet
  facet normal  4.713973e-001 -8.819210e-001  0.000000e+000
    outer loop
      vertex  3.579048e+000  1.016268e+000 -3.000000e+000
      vertex  3.388873e+000  9.146166e-001  0.000000e+000
      vertex  3.388873e+000  9.146166e-001 -3.000000e+000
    endloop
  endfacet
  facet normal  6.343929e-001 -7.730108e-001  0.000000e+000
    outer loop
      vertex  3.388873e+000  9.146166e-001 -3.000000e+000
      vertex  3.388873e+000  9.146166e-001  0.000000e+000
      vertex  3.222183e+000  7.778175e-001  0.000000e+000
    endloop
  endfacet
  facet normal  6.343929e-001 -7.730108e-001  0.000000e+000
    outer loop
      vertex  3.388873e+000  9.146166e-001 -3.000000e+000
      vertex  3.222183e+000  7.778175e-001  0.000000e+000
      vertex  3.222183e+000  7.778175e-001 -3.000000e+000
    endloop
  endfacet
  facet normal  7.730106e-001 -6.343932e-001  0.000000e+000
    outer loop
      vertex  3.222183e+000  7.778175e-001 -3.000000e+000
      vertex  3.222183e+000  7.778175e-001  0.000000e+000
      vertex  3.085383e+000  6.111273e-001  0.000000e+000
    endloop
  endfacet
  facet normal  7.730106e-001 -6.343932e-001  0.000000e+000
    outer loop
      vertex  3.222183e+000  7.778175e-001 -3.000000e+000
      vertex  3.085383e+000  6.111273e-001  0.000000e+000
      vertex  3.085383e+000  6.111273e-001 -3.000000e+000
    endloop
  endfacet
  facet normal  8.819212e-001 -4.713969e-001  0.000000e+000
    outer loop
      vertex  3.085383e+000  6.111273e-001 -3.000000e+000
      vertex  3.085383e+000  6.111273e-001  0.000000e+000
      vertex  2.983732e+000  4.209518e-001  0.000000e+000
    endloop
  endfacet
  facet normal  8.819212e-001 -4.713969e-001  0.000000e+000
    outer loop
      vertex  3.085383e+000  6.111273e-001 -3.000000e+000
      vertex  2.983732e+000  4.209518e-001  0.000000e+000
      vertex  2.983732e+000  4.209518e-001 -3.000000e+000
    endloop
  endfacet
  facet normal  9.569403e-001 -2.902846e-001  0.000000e+000
    outer loop
      vertex  2.983732e+000  4.209518e-001 -3.000000e+000
      vertex  2.983732e+000  4.209518e-001  0.000000e+000
      vertex  2.921136e+000  2.145994e-001  0.000000e+000
    endloop
  endfacet
  facet normal  9.569403e-001 -2.902846e-001  0.000000e+000
    outer loop
      vertex  2.983732e+000  4.209518e-001 -3.000000e+000
      vertex  2.921136e+000  2.145994e-001  0.000000e+000
      vertex  2.921136e+000  2.145994e-001 -3.000000e+000
    endloop
  endfacet
  facet normal  9.951847e-001 -9.801646e-002  0.000000e+000
    outer loop
      vertex  2.921136e+000  2.145994e-001 -3.000000e+000
      vertex  2.921136e+000  2.145994e-001  0.000000e+000
      vertex  2.900000e+000  1.347112e-016  0.000000e+000
    endloop
  endfacet
  facet normal  9.951847e-001 -9.801646e-002  0.000000e+000
    outer loop
      vertex  2.921136e+000  2.145994e-001 -3.000000e+000
      vertex  2.900000e+000  1.347112e-016  0.000000e+000
      vertex  2.900000e+000  1.347112e-016 -3.000000e+000
    endloop
  endfacet
  facet normal  9.801701e-002 -9.951847e-001  0.000000e+000
    outer loop
      vertex  3.785401e+000  1.078864e+000  0.000000e+000
      vertex  4.000000e+000  1.100000e+000 -3.000000e+000
      vertex  4.000000e+000  1.100000e+000  0.000000e+000
    endloop
  endfacet
  facet normal -9.801712e-002 -9.951848e-001  -0.000000e+000
    outer loop
      vertex  4.000000e+000  1.100000e+000  0.000000e+000
      vertex  4.000000e+000  1.100000e+000 -3.000000e+000
      vertex  4.214599e+000  1.078864e+000 -3.000000e+000
    endloop
  endfacet
  facet normal -9.801712e-002 -9.951848e-001  0.000000e+000
    outer loop
      vertex  4.000000e+000  1.100000e+000  0.000000e+000
      vertex  4.214599e+000  1.078864e+000 -3.000000e+000
      vertex  4.214599e+000  1.078864e+000  0.000000e+000
    endloop
  endfacet
  facet normal -2.902843e-001 -9.569405e-001  -0.000000e+000
    outer loop
      vertex  4.214599e+000  1.078864e+000  0.000000e+000
      vertex  4.214599e+000  1.078864e+000 -3.000000e+000
      vertex  4.420952e+000  1.016268e+000 -3.000000e+000
    endloop
  endfacet
  facet normal -2.902843e-001 -9.569405e-001  0.000000e+000
    outer loop
      vertex  4.214599e+000  1.078864e+000  0.000000e+000
      vertex  4.420952e+000  1.016268e+000 -3.000000e+000
      vertex  4.420952e+000  1.016268e+000  0.000000e+000
    endloop
  endfacet
  facet normal -4.713968e-001 -8.819212e-001  -0.000000e+000
    outer loop
      vertex  4.420952e+000  1.016268e+000  0.000000e+000
      vertex  4.420952e+000  1.016268e+000 -3.000000e+000
      vertex  4.611127e+000  9.146166e-001 -3.000000e+000
    endloop
  endfacet
  facet normal -4.713968e-001 -8.819212e-001  0.000000e+000
    outer loop
      vertex  4.420952e+000  1.016268e+000  0.000000e+000
      vertex  4.611127e+000  9.146166e-001 -3.000000e+000
      vertex  4.611127e+000  9.146166e-001  0.000000e+000
    endloop
  endfacet
  facet normal -6.343940e-001 -7.730098e-001  -0.000000e+000
    outer loop
      vertex  4.611127e+000  9.146166e-001  0.000000e+000
      vertex  4.611127e+000  9.146166e-001 -3.000000e+000
      vertex  4.777817e+000  7.778175e-001 -3.000000e+000
    endloop
  endfacet
  facet normal -6.343940e-001 -7.730098e-001  0.000000e+000
    outer loop
      vertex  4.611127e+000  9.146166e-001  0.000000e+000
      vertex  4.777817e+000  7.778175e-001 -3.000000e+000
      vertex  4.777817e+000  7.778175e-001  0.000000e+000
    endloop
  endfacet
  facet normal -7.730100e-001 -6.343939e-001  -0.000000e+000
    outer loop
      vertex  4.777817e+000  7.778175e-001  0.000000e+000
      vertex  4.777817e+000  7.778175e-001 -3.000000e+000
      vertex  4.914617e+000  6.111273e-001 -3.000000e+000
    endloop
  endfacet
  facet normal -7.730100e-001 -6.343939e-001  0.000000e+000
    outer loop
      vertex  4.777817e+000  7.778175e-001  0.000000e+000
      vertex  4.914617e+000  6.111273e-001 -3.000000e+000
      vertex  4.914617e+000  6.111273e-001  0.000000e+000
    endloop
  endfacet
  facet normal -8.819216e-001 -4.713960e-001  -0.000000e+000
    outer loop
      vertex  4.914617e+000  6.111273e-001  0.000000e+000
      vertex  4.914617e+000  6.111273e-001 -3.000000e+000
      vertex  5.016267e+000  4.209518e-001 -3.000000e+000
    endloop
  endfacet
  facet normal -8.819216e-001 -4.713960e-001  0.000000e+000
    outer loop
      vertex  4.914617e+000  6.111273e-001  0.000000e+000
      vertex  5.016267e+000  4.209518e-001 -3.000000e+000
      vertex  5.016267e+000  4.209518e-001  0.000000e+000
    endloop
  endfacet
  facet normal -9.569403e-001 -2.902846e-001  -0.000000e+000
    outer loop
      vertex  5.016267e+000  4.209518e-001  0.000000e+000
      vertex  5.016267e+000  4.209518e-001 -3.000000e+000
      vertex  5.078864e+000  2.145994e-001 -3.000000e+000
    endloop
  endfacet
  facet normal -9.569403e-001 -2.902846e-001  0.000000e+000
    outer loop
      vertex  5.016267e+000  4.209518e-001  0.000000e+000
      vertex  5.078864e+000  2.145994e-001 -3.000000e+000
      vertex  5.078864e+000  2.145994e-001  0.000000e+000
    endloop
  endfacet
  facet normal -9.951846e-001 -9.801756e-002  -0.000000e+000
    outer loop
      vertex  5.078864e+000  2.145994e-001  0.000000e+000
      vertex  5.078864e+000  2.145994e-001 -3.000000e+000
      vertex  5.100000e+000  0.000000e+000 -3.000000e+000
    endloop
  endfacet
  facet normal -9.951846e-001 -9.801756e-002  0.000000e+000
    outer loop
      vertex  5.078864e+000  2.145994e-001  0.000000e+000
      vertex  5.100000e+000  0.000000e+000 -3.000000e+000
      vertex  5.100000e+000  0.000000e+000  0.000000e+000
    endloop
  endfacet
  facet normal -9.801712e-002  9.951848e-001  0.000000e+000
    outer loop
      vertex  4.000000e+000 -1.100000e+000 -3.000000e+000
      vertex  4.214599e+000 -1.078864e+000  0.000000e+000
      vertex  4.214599e+000 -1.078864e+000 -3.000000e+000
    endloop
  endfacet
  facet normal -2.902843e-001  9.569405e-001  0.000000e+000
    outer loop
      vertex  4.214599e+000 -1.078864e+000 -3.000000e+000
      vertex  4.214599e+000 -1.078864e+000  0.000000e+000
      vertex  4.420952e+000 -1.016268e+000  0.000000e+000
    endloop
  endfacet
  facet normal -2.902843e-001  9.569405e-001  0.000000e+000
    outer loop
      vertex  4.214599e+000 -1.078864e+000 -3.000000e+000
      vertex  4.420952e+000 -1.016268e+000  0.000000e+000
      vertex  4.420952e+000 -1.016268e+000 -3.000000e+000
    endloop
  endfacet
  facet normal -4.713968e-001  8.819212e-001  0.000000e+000
    outer loop
      vertex  4.420952e+000 -1.016268e+000 -3.000000e+000
      vertex  4.420952e+000 -1.016268e+000  0.000000e+000
      vertex  4.611127e+000 -9.146166e-001  0.000000e+000
    endloop
  endfacet
  facet normal -4.713968e-001  8.819212e-001  0.000000e+000
    outer loop
      vertex  4.420952e+000 -1.016268e+000 -3.000000e+000
      vertex  4.611127e+000 -9.146166e-001  0.000000e+000
      vertex  4.611127e+000 -9.146166e-001 -3.000000e+000
    endloop
  endfacet
  facet normal -6.343940e-001  7.730098e-001  0.000000e+000
    outer loop
      vertex  4.611127e+000 -9.146166e-001 -3.000000e+000
      vertex  4.611127e+000 -9.146166e-001  0.000000e+000
      vertex  4.777817e+000 -7.778175e-001  0.000000e+000
    endloop
  endfacet
  facet normal -6.343940e-001  7.730098e-001  0.000000e+000
    outer loop
      vertex  4.611127e+000 -9.146166e-001 -3.000000e+000
      vertex  4.777817e+000 -7.778175e-001  0.000000e+000
      vertex  4.777817e+000 -7.778175e-001 -3.000000e+000
    endloop
  endfacet
  facet normal -7.730100e-001  6.343939e-001  0.000000e+000
    outer loop
      vertex  4.777817e+000 -7.778175e-001 -3.000000e+000
      vertex  4.777817e+000 -7.778175e-001  0.000000e+000
      vertex  4.914617e+000 -6.111273e-001  0.000000e+000
    endloop
  endfacet
  facet normal -7.730100e-001  6.343939e-001  0.000000e+000
    outer loop
      vertex  4.777817e+000 -7.778175e-001 -3.000000e+000
      vertex  4.914617e+000 -6.111273e-001  0.000000e+000
      vertex  4.914617e+000 -6.111273e-001 -3.000000e+000
    endloop
  endfacet
  facet normal -8.819216e-001  4.713960e-001  0.000000e+000
    outer loop
      vertex  4.914617e+000 -6.111273e-001 -3.000000e+000
      vertex  4.914617e+000 -6.111273e-001  0.000000e+000
      vertex  5.016267e+000 -4.209518e-001  0.000000e+000
    endloop
  endfacet
  facet normal -8.819216e-001  4.713960e-001  0.000000e+000
    outer loop
      vertex  4.914617e+000 -6.111273e-001 -3.000000e+000
      vertex  5.016267e+000 -4.209518e-001  0.000000e+000
      vertex  5.016267e+000 -4.209518e-001 -3.000000e+000
    endloop
  endfacet
  facet normal -9.569403e-001  2.902846e-001  0.000000e+000
    outer loop
      vertex  5.016267e+000 -4.209518e-001 -3.000000e+000
      vertex  5.016267e+000 -4.209518e-001  0.000000e+000
      vertex  5.078864e+000 -2.145994e-001  0.000000e+000
    endloop
  endfacet
  facet normal -9.569403e-001  2.902846e-001  0.000000e+000
    outer loop
      vertex  5.016267e+000 -4.209518e-001 -3.000000e+000
      vertex  5.078864e+000 -2.145994e-001  0.000000e+000
      vertex  5.078864e+000 -2.145994e-001 -3.000000e+000
    endloop
  endfacet
  facet normal -9.951846e-001  9.801756e-002  0.000000e+000
    outer loop
      vertex  5.078864e+000 -2.145994e-001 -3.000000e+000
      vertex  5.078864e+000 -2.145994e-001  0.000000e+000
      vertex  5.100000e+000  0.000000e+000  0.000000e+000
    endloop
  endfacet
  facet normal -9.951846e-001  9.801756e-002  0.000000e+000
    outer loop
      vertex  5.078864e+000 -2.145994e-001 -3.000000e+000
      vertex  5.100000e+000  0.000000e+000  0.000000e+000
      vertex  5.100000e+000  0.000000e+000 -3.000000e+000
    endloop
  endfacet
  facet normal -9.801712e-002  9.951848e-001  0.000000e+000
    outer loop
      vertex  4.214599e+000 -1.078864e+000  0.000000e+000
      vertex  4.000000e+000 -1.100000e+000 -3.000000e+000
      vertex  4.000000e+000 -1.100000e+000  0.000000e+000
    endloop
  endfacet
  facet normal  9.801701e-002  9.951847e-001  0.000000e+000
    outer loop
      vertex  4.000000e+000 -1.100000e+000  0.000000e+000
      vertex  4.000000e+000 -1.100000e+000 -3.000000e+000
      vertex  3.785401e+000 -1.078864e+000 -3.000000e+000
    endloop
  endfacet
  facet normal  9.801701e-002  9.951847e-001  -0.000000e+000
    outer loop
      vertex  4.000000e+000 -1.100000e+000  0.000000e+000
      vertex  3.785401e+000 -1.078864e+000 -3.000000e+000
      vertex  3.785401e+000 -1.078864e+000  0.000000e+000
    endloop
  endfacet
  facet normal  2.902846e-001  9.569404e-001  0.000000e+000
    outer loop
      vertex  3.785401e+000 -1.078864e+000  0.000000e+000
      vertex  3.785401e+000 -1.078864e+000 -3.000000e+000
      vertex  3.579048e+000 -1.016268e+000 -3.000000e+000
    endloop
  endfacet
  facet normal  2.902846e-001  9.569404e-001  -0.000000e+000
    outer loop
      vertex  3.785401e+000 -1.078864e+000  0.000000e+000
      vertex  3.579048e+000 -1.016268e+000 -3.000000e+000
      vertex  3.579048e+000 -1.016268e+000  0.000000e+000
    endloop
  endfacet
  facet normal  4.713973e-001  8.819210e-001  0.000000e+000
    outer loop
      vertex  3.579048e+000 -1.016268e+000  0.000000e+000
      vertex  3.579048e+000 -1.016268e+000 -3.000000e+000
      vertex  3.388873e+000 -9.146166e-001 -3.000000e+000
    endloop
  endfacet
  facet normal  4.713973e-001  8.819210e-001  -0.000000e+000
    outer loop
      vertex  3.579048e+000 -1.016268e+000  0.000000e+000
      vertex  3.388873e+000 -9.146166e-001 -3.000000e+000
      vertex  3.388873e+000 -9.146166e-001  0.000000e+000
    endloop
  endfacet
  facet normal  6.343929e-001  7.730108e-001  0.000000e+000
    outer loop
      vertex  3.388873e+000 -9.146166e-001  0.000000e+000
      vertex  3.388873e+000 -9.146166e-001 -3.000000e+000
      vertex  3.222183e+000 -7.778175e-001 -3.000000e+000
    endloop
  endfacet
  facet normal  6.343929e-001  7.730108e-001  -0.000000e+000
    outer loop
      vertex  3.388873e+000 -9.146166e-001  0.000000e+000
      vertex  3.222183e+000 -7.778175e-001 -3.000000e+000
      vertex  3.222183e+000 -7.778175e-001  0.000000e+000
    endloop
  endfacet
  facet normal  7.730106e-001  6.343932e-001  0.000000e+000
    outer loop
      vertex  3.222183e+000 -7.778175e-001  0.000000e+000
      vertex  3.222183e+000 -7.778175e-001 -3.000000e+000
      vertex  3.085383e+000 -6.111273e-001 -3.000000e+000
    endloop
  endfacet
  facet normal  7.730106e-001  6.343932e-001  -0.000000e+000
    outer loop
      vertex  3.222183e+000 -7.778175e-001  0.000000e+000
      vertex  3.085383e+000 -6.111273e-001 -3.000000e+000
      vertex  3.085383e+000 -6.111273e-001  0.000000e+000
    endloop
  endfacet
  facet normal  8.819212e-001  4.713969e-001  0.000000e+000
    outer loop
      vertex  3.085383e+000 -6.111273e-001  0.000000e+000
      vertex  3.085383e+000 -6.111273e-001 -3.000000e+000
      vertex  2.983732e+000 -4.209518e-001 -3.000000e+000
    endloop
  endfacet
  facet normal  8.819212e-001  4.713969e-001  -0.000000e+000
    outer loop
      vertex  3.085383e+000 -6.111273e-001  0.000000e+000
      vertex  2.983732e+000 -4.209518e-001 -3.000000e+000
      vertex  2.983732e+000 -4.209518e-001  0.000000e+000
    endloop
  endfacet
  facet normal  9.569403e-001  2.902846e-001  0.000000e+000
    outer loop
      vertex  2.983732e+000 -4.209518e-001  0.000000e+000
      vertex  2.983732e+000 -4.209518e-001 -3.000000e+000
      vertex  2.921136e+000 -2.145994e-001 -3.000000e+000
    endloop
  endfacet
  facet normal  9.569403e-001  2.902846e-001  -0.000000e+000
    outer loop
      vertex  2.983732e+000 -4.209518e-001  0.000000e+000
      vertex  2.921136e+000 -2.145994e-001 -3.000000e+000
      vertex  2.921136e+000 -2.145994e-001  0.000000e+000
    endloop
  endfacet
  facet normal  9.951847e-001  9.801646e-002  0.000000e+000
    outer loop
      vertex  2.921136e+000 -2.145994e-001  0.000000e+000
      vertex  2.921136e+000 -2.145994e-001 -3.000000e+000
      vertex  2.900000e+000  1.347112e-016 -3.000000e+000
    endloop
  endfacet
  facet normal  9.951847e-001  9.801646e-002  -0.000000e+000
    outer loop
      vertex  2.921136e+000 -2.145994e-001  0.000000e+000
      vertex  2.900000e+000  1.347112e-016 -3.000000e+000
      vertex  2.900000e+000  1.347112e-016  0.000000e+000
    endloop
  endfacet
  facet normal  0.000000e+000  1.000000e+000  0.000000e+000
    outer loop
      vertex -6.000000e+000  2.500000e+000 -3.000000e+000
      vertex -6.000000e+000  2.500000e+000  0.000000e+000
      vertex  6.000000e+000  2.500000e+000 -3.000000e+000
    endloop
  endfacet
  facet normal  0.000000e+000  1.000000e+000  -0.000000e+000
    outer loop
      vertex  6.000000e+000  2.500000e+000 -3.000000e+000
      vertex -6.000000e+000  2.500000e+000  0.000000e+000
      vertex  6.000000e+000  2.500000e+000  0.000000e+000
    endloop
  endfacet
  facet normal  1.000000e+000  0.000000e+000  0.000000e+000
    outer loop
      vertex  6.000000e+000 -2.500000e+000 -3.000000e+000
      vertex  6.000000e+000  2.500000e+000 -3.000000e+000
      vertex  6.000000e+000 -2.500000e+000  0.000000e+000
    endloop
  endfacet
  facet normal  1.000000e+000  -0.000000e+000  0.000000e+000
    outer loop
      vertex  6.000000e+000 -2.500000e+000  0.000000e+000
      vertex  6.000000e+000  2.500000e+000 -3.000000e+000
      vertex  6.000000e+000  2.500000e+000  0.000000e+000
    endloop
  endfacet
  facet normal  0.000000e+000 -1.000000e+000  -0.000000e+000
    outer loop
      vertex  6.000000e+000 -2.500000e+000 -3.000000e+000
      vertex  6.000000e+000 -2.500000e+000  0.000000e+000
      vertex -6.000000e+000 -2.500000e+000 -3.000000e+000
    endloop
  endfacet
  facet normal  0.000000e+000 -1.000000e+000  0.000000e+000
    outer loop
      vertex -6.000000e+000 -2.500000e+000 -3.000000e+000
      vertex  6.000000e+000 -2.500000e+000  0.000000e+000
      vertex -6.000000e+000 -2.500000e+000  0.000000e+000
    endloop
  endfacet
  facet normal -1.000000e+000  0.000000e+000  0.000000e+000
    outer loop
      vertex -6.000000e+000  2.500000e+000 -3.000000e+000
      vertex -6.000000e+000 -2.500000e+000 -3.000000e+000
      vertex -6.000000e+000  2.500000e+000  0.000000e+000
    endloop
  endfacet
  facet normal -1.000000e+000  -0.000000e+000  0.000000e+000
    outer loop
      vertex -6.000000e+000  2.500000e+000  0.000000e+000
      vertex -6.000000e+000 -2.500000e+000 -3.000000e+000
      vertex -6.000000e+000 -2.500000e+000  0.000000e+000
    endloop
  endfacet
  facet normal  0.000000e+000  0.000000e+000  1.000000e+000
    outer loop
      vertex -1.450000e+000 -1.450000e+000  7.800000e+000
      vertex  1.450000e+000 -1.450000e+000  7.800000e+000
      vertex -1.450000e+000  1.450000e+000  7.800000e+000
    endloop
  endfacet
  facet normal  -0.000000e+000  0.000000e+000  1.000000e+000
    outer loop
      vertex -1.450000e+000  1.450000e+000  7.800000e+000
      vertex  1.450000e+000 -1.450000e+000  7.800000e+000
      vertex  1.450000e+000  1.450000e+000  7.800000e+000
    endloop
  endfacet
endsolid CATIA STL
